<svg viewBox="0 0 512 487" xmlns="http://www.w3.org/2000/svg"><path fill="#D18382" d="M309.205 306.835c-11.385 4.423-22.925 8.173-36.099 8.037-11.78-.35-22.794-.556-33.809-.713-.41-.006-.826.462-1.24.71-.218.041-.436.083-1.119-.274-8.281-2.415-16.119-4.36-23.91-6.475-4.43-1.202-8.784-2.685-13.172-4.04 0 0 .087-.045.028-.346-2.72-1.418-5.381-2.535-8.043-3.652 0 0 .108-.018.084-.315-2.688-1.767-5.353-3.238-8.018-4.71 0 0 .068-.014.027-.346-1.085-.793-2.129-1.254-3.173-1.715-6.034-4.01-12.227-7.806-18.042-12.113-3.348-2.48-6.082-5.788-9.468-9.204-10.24-10.745-20.11-21.002-29.96-31.279-1.061-1.106-3.888-2.108-.156-3.52 2.784.415 5.278.566 7.845.96 9.265 4.132 18.445 8.05 27.655 11.9 5.696 2.381 11.437 4.658 17.382 7.254 1.812 1.18 3.4 2.09 5.169 3.29 5.697 2.413 11.214 4.535 16.92 6.673.188.015.568.01.906.217 6.202 1.43 12.066 2.653 18.264 4.062 13.47 1.638 26.604 3.09 40.194 4.659 7.145-.245 13.836-.607 20.792-.968.434-.049.604-.098 1.106-.086.78.02 1.227-.023 2.004 0 1.182-.177 2.033-.417 3.292-.664 3.728-.715 7.047-1.424 10.776-2.135 5.467-1.423 10.524-2.845 15.952-4.273 6.1-1.949 11.83-3.89 17.926-5.881 4.64-1.723 8.914-3.396 13.28-5.38 8.654-4.961 17.194-9.652 25.788-14.24 3.256-1.739 6.638-3.243 10.427-4.941 4.132.11 7.799.306 11.411.86-5.448 6.83-10.888 13.264-16.191 19.807-.935 1.153-1.3 2.768-1.928 4.169 0 0-.056-.065-.343-.107-.432.324-.577.69-.723 1.055 0 0-.001-.074-.28-.076-.427.358-.573.719-.72 1.078 0 0 0-.074-.283-.083-.427.355-.57.719-.714 1.083 0 0 .038-.084-.275-.123-3.445 3.346-6.577 6.731-9.71 10.117 0 0-.016-.068-.303-.075-.426.357-.566.72-.705 1.085 0 0-.004-.071-.295-.096-.43.346-.57.717-.71 1.088 0 0-.016-.073-.336-.178-1.764 1.34-3.208 2.785-4.653 4.23 0 0-.029-.073-.315-.178-1.174.475-2.063 1.054-3.283 1.75-1.684 1.556-3.035 2.996-4.386 4.435 0 0-.044-.066-.373-.176-5.06 3.2-9.792 6.51-14.524 9.82-.181.069-.363.137-.979.206-.434.001-.82-.02-.82-.02l-.138.419s-.041-.12-.353-.14c-6.101 3.171-11.89 6.365-17.679 9.558z"/><path fill="#F6E3E2" d="M122.846 236.615c-3.443 1.677-.616 2.679.444 3.785 9.851 10.277 19.722 20.534 29.644 31.125-.923-.086-2.147-.254-2.848-.949-10.205-10.101-20.376-20.238-30.439-30.48-1.083-1.103-1.443-2.915-1.84-3.764 5.54-2.872 10.245-5.58 15.176-7.781 4.052-1.809 8.44-2.848 12.564-4.514 20.58-8.31 41.01-17.002 61.731-24.941 8.301-3.18 17.21-4.773 26.276-6.813.434.275.436.679.052.763-5.052 1.222-9.928 1.835-14.355 3.585-25.294 9.998-50.511 20.195-75.686 30.49-7.025 2.874-13.819 6.314-20.72 9.494zM372.477 262.1c.256-1.338.621-2.953 1.556-4.106 5.303-6.543 10.743-12.977 16.108-20.147-2.107-2.003-4.05-3.634-6.285-4.564-33.422-13.916-66.012-29.926-100.863-40.467.006-.224.025-.671.025-.671 7.805 2.22 15.866 3.799 23.366 6.786 20.76 8.267 41.077 17.688 62.014 25.453 7.855 2.914 15.064 6.86 22.672 10.093 3.738 1.588 3.588 3.24.98 6.147-5.545 6.181-10.652 12.753-16.025 19.092-.824.972-2.106 1.556-3.548 2.383z"/><path fill="#E7D9D9" d="M282.807 192.065c.21.08.192.527-.28.777-8.6-.124-16.718-.817-23.695 5.01-1.048.875-3.964.586-5.385-.244-6.071-3.545-12.443-5.304-19.457-4.646 0 0-.002-.404-.005-.606 7.444-3.267 13.682.694 20.205 3.187 1.241.475 3.266.91 4.04.277 5.611-4.597 12.184-4.864 19.657-4.507 1.923.372 3.092.496 4.261.62 0 0 .448.053.659.132z"/><path fill="#FAD6D7" d="M200.037 304.404c4.207 1.031 8.561 2.514 12.991 3.716 7.791 2.116 15.629 4.06 23.59 6.382-12.423-1.657-24.85-4.124-36.581-10.098zM238.487 314.926c-.016-.305.4-.773.81-.767 11.015.157 22.028.364 33.357.775-2.374.492-5.07 1.058-7.752.999-8.664-.193-17.324-.616-26.415-1.007zM309.56 306.883c5.434-3.241 11.223-6.435 17.386-9.619-4.703 2.925-9.774 5.85-14.862 8.744-.679.386-1.444.62-2.524.875zM329.497 296.703c4.409-3.2 9.14-6.51 14.235-9.732-4.396 3.267-9.154 6.444-14.235 9.732z"/><path fill="#F6E3E2" d="M359.41 275.065c2.78-3.344 5.912-6.73 9.398-10.055-2.78 3.378-5.913 6.696-9.399 10.055z"/><path fill="#FAD6D7" d="M184.029 295.388c2.543 1.14 5.208 2.612 7.903 4.433-2.573-1.134-5.177-2.618-7.903-4.433zM192.002 300.407c2.5.792 5.162 1.909 7.903 3.371-2.527-.785-5.134-1.915-7.903-3.37zM344.41 287.101a18.502 18.502 0 014.103-4.057c.418.402.448.61.479.817-1.415 1.058-2.829 2.115-4.582 3.24z"/><path fill="#F6E3E2" d="M352.394 281.093a23.293 23.293 0 014.348-4.146c-1.101 1.441-2.555 2.76-4.348 4.146zM349.31 283.889c-.349-.236-.379-.443-.465-.962.832-.89 1.721-1.47 2.932-1.957-.501 1.044-1.324 1.995-2.467 2.919z"/><path fill="#FAD6D7" d="M180.915 293.307c.89.15 1.934.611 3.018 1.44-.928-.133-1.896-.63-3.018-1.44z"/><path fill="#F6E3E2" d="M281.98 191.587c-1 .222-2.17.098-3.642-.21.956-.168 2.215-.151 3.642.21zM357.307 277.033c-.123-.295.016-.666.483-1.01.144.329-.038.632-.483 1.01zM358.308 276.033c-.12-.28.02-.644.481-1.002.141.31-.04.614-.48 1.002zM371.302 263.032c-.117-.287.028-.652.494-1.003.136.319-.048.622-.494 1.003zM369.305 265.035c-.12-.286.024-.65.488-1.004.139.315-.043.62-.488 1.004z"/><path fill="#FAD6D7" d="M327.508 297.524c-.271-.107-.134-.525-.134-.525s.387.02.535.07c.056.22-.037.39-.401.455z"/><path fill="#F6E3E2" d="M370.301 264.031c-.115-.277.031-.638.494-.995.134.305-.05.609-.494.995z"/><path fill="#DF8989" d="M233.606 193.046c7.398-.742 13.77 1.017 19.84 4.562 1.422.83 4.338 1.12 5.386.244 6.977-5.827 15.095-5.134 23.69-4.786 35.322 10.291 67.912 26.3 101.334 40.217 2.235.93 4.178 2.56 6.34 4.206-3.584.144-7.25-.053-11.798-.15-8.81-.313-16.749-.619-24.67-1.165-12.148-.838-24.118-4.42-36.51-1.89-2.017.412-4.497-1.446-7.212-2.266-8.632-.347-16.815-.684-25.225-.98-.228.04-.691.01-1.08-.13-6.19-.385-11.991-.794-17.793-.816-3.042-.012-6.086.656-9.337 1.136-.523.334-.82.313-1.413-.287-9.311-.184-18.31-.026-27.491.193-.184.06-.527-.117-1.003-.078-8.59.364-16.705.688-25.085 1.155-.647.053-1.028-.037-1.692-.002-.851.37-1.418.615-2.373.914-6.45.257-12.598-.12-18.555.775-15.946 2.394-31.848 4.852-48.052 3.698-2.494-.15-4.988-.3-7.772-.716 6.611-3.445 13.405-6.885 20.43-9.758 25.175-10.296 50.392-20.493 75.686-30.491 4.427-1.75 9.303-2.363 14.355-3.585z"/><path fill="#811B1B" d="M310.456 232.029c2.265.809 4.745 2.667 6.761 2.255 12.393-2.53 24.363 1.052 36.511 1.89 7.921.546 15.86.852 24.205 1.253-2.91 1.598-6.29 3.102-9.547 4.84-8.594 4.59-17.134 9.28-26.214 14.149-1.335.079-2.178.028-2.962-.214-20.732-6.4-42.056-8.26-63.606-8.124-8.797.055-17.666 1.482-26.37.737-21.44-1.836-42.533-.113-63.48 4.264-3.425.716-6.646 2.404-9.962 3.642-5.72-2.323-11.46-4.6-17.157-6.981-9.21-3.85-18.39-7.768-27.655-11.9 16.131.91 32.033-1.548 47.979-3.942 5.957-.894 12.105-.518 18.72-.5 1.2-.29 1.845-.803 2.492-1.315.38.09.761.18 1.514.49 1.885.98 3.34 2.225 4.922 2.416 4.899.59 9.856.673 14.77 1.16 3.934.39 5.962-1.039 5.763-5.132 0 0 .343.177.563.51.276 4.025 2.086 5.594 5.833 5.589 4.813-.007 9.624.488 14.44.61 6.813.172 6.814.11 7.494-6.443.28.258.578.28 1.134.361-.184 4.798 1.786 6.449 6.328 6.223 6.462-.32 12.95-.081 19.59-.081l1.568-6.739s.463.031.73.375c.758 2.569.828 5.073 4.23 4.833 5.943-.42 11.914-.549 17.829-1.2 1.288-.142 2.39-1.973 3.577-3.026z"/><path fill="#F18B8C" d="M176.017 256.994c3.09-1.511 6.312-3.2 9.737-3.915 20.947-4.377 42.04-6.1 63.48-4.264 8.704.745 17.573-.682 26.37-.737 21.55-.135 42.874 1.724 63.606 8.124.784.242 1.627.293 2.87.525a97.61 97.61 0 01-12.973 4.88c-6.237-1.523-11.786-2.309-15.965 2.774-1.281-1.349-2.705-3.268-3.793-3.094-3.93.63-9.02-1.876-11.734 3.666-.748.05-1.178.035-1.665-.21-.17-.54-.361-.789-.82-1.293-2.825-.337-5.46-.357-8.527-.388-1.854.187-3.276.385-4.875.527-.443-.02-.642.116-.772.374 0 .023-.02-.024-.332.021-.704.716-1.096 1.385-1.547 2.294-.06.24-.072.731-.37.719-.676-.141-1.052-.27-1.435-.574-.006-.176-.142-.5-.186-.822-.728-.726-1.411-1.13-2.557-1.603-4.738-.117-9.035-.422-13.275-.062-1.396.118-2.646 1.957-4.056 3.43-.176 2.403-.257 4.385-.567 6.083-2.337-10.17-2.337-10.175-12.757-10.146-1.487.004-2.98-.003-4.46.122-2.244.189-4.486.754-6.715.686-4.566-.14-9.123-.594-14.05-.928-1.428 1.716-2.49 3.442-3.34 4.822-.997-5.853-2.69-6.782-11.235-6.86-4.312-.04-5.379 2.236-5.4 5.823 0 0-.38.004-.574-.392-.926-2.136-1.427-5.217-2.428-5.39-4.815-.828-9.765-.872-14.667-1.194-1.588-.909-3.176-1.817-4.988-2.998z"/><path fill="#FAF4F4" d="M219.016 263.192c4.56.325 9.117.779 13.683.919 2.229.068 4.471-.497 6.715-.686 1.48-.125 2.973-.118 4.46-.122 10.42-.029 10.42-.025 12.803 10.486.294 1.08.316 1.534.338 1.99-13.135-1.453-26.27-2.905-39.695-4.917.372-2.93 1.034-5.3 1.696-7.67z"/><path fill="#FCFDFD" d="M257.47 275.895c-.477-.572-.499-1.026-.566-1.821.037-2.323.118-4.305.651-6.875 6.126-.799 11.8-1.01 17.824-1.226.817-.019 1.284-.034 1.751-.05 0 0 .136.324.06.945.219 3.1.513 5.58.807 8.059-6.69.361-13.382.723-20.527.968zM281.905 263.645c1.422-.198 2.844-.396 5.013-.365 2.859.394 4.97.56 6.943 1.043.297 2.785.733 5.253 1.17 7.72-3.32.71-6.64 1.419-10.706 2.076-1.592.184-2.438.42-3.283.657-.447.042-.894.084-1.662-.362-.338-2.793-.356-5.099-.375-7.405 0 0 .012-.492.352-.831a29.813 29.813 0 001.579-2.24s.02.048.19.015c.392-.08.596-.17.78-.308z"/><path fill="#FAF4F4" d="M295.44 272.042a22.404 22.404 0 01-1.247-7.767c.689-.414.907-.461 1.126-.508.27.187.461.436.626 1.301.438 1.105.824 1.652 1.21 2.199l.777-2.378c2.398-5.478 7.487-2.973 11.417-3.602 1.088-.174 2.512 1.745 3.597 3.343-.764 1.475-1.344 2.31-1.924 3.146-5.058 1.421-10.115 2.843-15.582 4.266z"/><path fill="#FBEEED" d="M218.65 263.183c-.296 2.38-.958 4.75-1.664 7.494-5.908-.85-11.772-2.074-17.974-3.503-.317-3.793.75-6.07 5.062-6.03 8.545.08 10.238 1.008 11.235 6.861.85-1.38 1.912-3.106 3.34-4.822zM181.186 260.283c4.72.031 9.671.075 14.486.904 1.001.172 1.502 3.253 2.239 5.373-5.511-1.741-11.028-3.863-16.725-6.277zM311.392 267.769c.21-.829.79-1.664 1.566-2.75 4.363-5.72 9.912-4.935 15.782-3.362-5.519 2.222-11.248 4.163-17.348 6.112z"/><path fill="#F6E3E2" d="M278.707 266.997c.317 2.318.335 4.624.34 7.356-.181.476-.351.525-.785.574-.559-2.48-.853-4.959-1.066-7.883.459-.317.835-.188 1.51-.047zM281.372 274.84c.515-.3 1.36-.537 2.545-.715-.512.299-1.363.54-2.545.715z"/><path fill="#FBEEED" d="M283.7 230.909c-.084 2.175-.558 4.212-1.178 6.877-6.64 0-13.128-.24-19.59.081-4.542.226-6.512-1.425-6.12-6.342 3.01-.777 6.054-1.445 9.096-1.433 5.802.022 11.602.43 17.792.817zM255.158 230.941c-.368 6.896-.37 6.957-7.182 6.785-4.816-.122-9.627-.617-14.44-.61-3.747.005-5.557-1.564-5.65-5.65 8.962-.55 17.96-.709 27.272-.525zM310.006 232.018c-.738 1.064-1.84 2.895-3.127 3.036-5.915.652-11.886.781-17.83 1.201-3.401.24-3.47-2.264-4.001-4.874 8.143-.047 16.326.29 24.958.637zM226.664 231.056c.675 4.054-1.353 5.482-5.287 5.092-4.914-.486-9.871-.568-14.77-1.16-1.582-.19-3.037-1.435-4.656-2.558 8.008-.686 16.122-1.01 24.713-1.374zM199.887 232.209c-.363.386-1.009.898-1.82 1.135.402-.52.969-.765 1.82-1.135z"/><path fill="#FAF4F4" d="M275.03 265.976c-5.675.212-11.35.424-17.381.803.96-.886 2.21-2.725 3.605-2.843 4.24-.36 8.537-.055 13.28.38.478.812.487 1.236.495 1.66z"/><path fill="#F6E3E2" d="M295.13 263.45c-.03.364-.248.411-.798.507-2.444-.118-4.555-.283-6.982-.666 2.32-.198 4.955-.178 7.78.16zM297.615 264.953c.058.729-.201 1.521-.46 2.314-.386-.547-.772-1.094-1.153-1.968.435-.311.865-.297 1.613-.346zM280.624 263.984c-.101.588-.514 1.221-1.207 1.955.111-.57.503-1.24 1.207-1.955zM275.38 265.973c-.36-.421-.368-.845-.383-1.587.678.086 1.361.489 2.089 1.215-.423.338-.89.353-1.707.372zM281.728 263.589c-.006.193-.21.285-.604.34-.038-.224.16-.36.604-.34z"/></svg>