<svg viewBox="0 0 511 489" xmlns="http://www.w3.org/2000/svg"><path fill="#D28382" d="M363.026 267.3c.057.309-.052.539-.897.659-4.064 4.02-7.56 8.07-11.056 12.12 0 0-.067-.066-.35-.085-.413.353-.544.726-.674 1.099 0 0-.03-.074-.318-.093-.42.351-.551.722-.682 1.093 0 0-.03-.074-.316-.092-.42.352-.553.722-.687 1.092 0 0-.033-.083-.349-.178-2.758 2.347-5.2 4.79-7.643 7.232 0 0-.047-.08-.308-.08-.413.34-.563.68-.714 1.022 0 0-.014-.07-.294-.074-.42.356-.56.716-.699 1.076 0 0-.022-.073-.344-.114-.76.676-1.199 1.393-1.637 2.11 0 0-.05-.083-.364-.18-1.097.664-1.879 1.424-2.661 2.184 0 0-.016-.07-.299-.074-.418.356-.553.716-.689 1.076 0 0-.029-.077-.302-.126-.475.29-.678.63-.88.97 0 0-.276.162-.732.198-.676.343-.895.65-1.114.957 0 0-.001-.073-.322-.165-1.101.66-1.88 1.412-2.66 2.164 0 0-.021-.072-.298-.116-.483.293-.69.63-.897.966 0 0-.232.162-.702.111-.74.263-1.01.576-1.28.89 0 0-.259.161-.797.072-3.04 1.3-5.543 2.69-8.045 4.08 0 0 .001-.074-.348-.168-2.462.932-4.575 1.958-6.687 2.984 0 0-.337.173-.855.087-1.052.247-1.585.58-2.119.912 0 0-.339.176-.96.057a390.24 390.24 0 00-19.621 3.843c-1.803.403-3.498 1.284-5.243 1.946-8.493.752-16.986 1.503-26.07 1.81-1.986-.756-3.365-1.235-4.774-1.355-15.035-1.284-29.812-3.737-43.89-9.445-4.124-1.672-8.233-3.379-12.681-5.088-.5.129-.667.275-.834.422 0 0 .03-.077.075-.366-.335-.425-.716-.561-1.096-.697 0 0 .07-.015.053-.34-1.693-1.094-3.368-1.864-5.043-2.635 0 0 .07-.048.098-.375-1.348-1.093-2.723-1.858-4.098-2.623 0 0 .075-.05.126-.363-2.344-2.093-4.74-3.872-7.136-5.652 0 0 .073-.033.12-.347-4.444-4.114-8.936-7.914-13.427-11.713-.27.076-.468-.01-.635-.774-.378-.741-.72-.968-1.06-1.195 0 0 .071-.002.065-.277-.359-.42-.711-.565-1.064-.71 0 0 .07-.015.064-.29-.359-.42-.711-.565-1.064-.71 0 0 .07-.015.064-.289-.36-.42-.711-.565-1.064-.71 0 0 .07-.016.069-.294-.357-.42-.713-.562-1.069-.705 0 0 .07-.016.064-.291-.358-.42-.71-.566-1.063-.711 0 0 .072.016.116-.306-7.54-7.968-15.062-15.677-22.76-23.206-1.496-1.463-3.678-2.224-5.544-3.31 0 0 .144-.062.064-.319-.676-.45-1.272-.644-1.869-.838 0 0 .075-.037.132-.357-.304-1.446-.664-2.573-.676-3.654 1.948.892 3.482 2.288 5.16 2.491 9.559 1.156 19.047 3.967 28.793 1.987 7.238 3.752 14.49 7.172 21.868 10.852.73.715 1.334 1.17 2.076 1.923 6 3.433 11.861 6.567 17.933 9.986 6.072 2.07 11.933 3.854 18.142 5.809 3.976.802 7.604 1.433 11.522 2.288 1.232.356 2.175.487 3.322.69.204.071.634.023.764.154s.466.267.466.267.352-.09.772.067c15.567 3.03 30.818 3.385 45.885.293 11.444-2.349 22.636-5.923 34.309-8.958 5.15-2.526 9.983-4.957 14.667-7.648.876-.503 1.154-2.047 2.09-3.135 1.87-.55 3.359-1.075 5.11-1.853 1.76-1.26 3.2-2.363 4.76-3.26 5.197-2.988 10.437-5.902 16.096-8.848 10.686 1.19 20.954 2.484 30.154-4.786 1.358.369 2.386.73 3.459 1.106-.282.57-.352.95-.58 1.136-2.95 2.403-6.144 4.559-8.82 7.233-2.086 2.085-3.535 4.806-5.267 7.245 0 0-.046-.063-.321-.064-.418.356-.56.713-.702 1.07 0 0 .031-.067-.293-.138-3.105 3.329-5.885 6.73-8.665 10.13 0 0-.073-.066-.351-.09-.413.351-.548.727-.682 1.103 0 0-.022-.07-.33-.053-.435.432-.561.846-.687 1.26z"/><path fill="#F6E5E5" d="M195.992 204.13c12.887-6.67 25.88-13.321 40.977-11.987 4.958.438 9.922 2.237 14.58 4.153 3.067 1.262 5.027 1.751 8.337-.123 9.902-5.607 20.608-5.544 31.627-2.027.07.573-.154.728-.84.815-10.743-2.935-20.797-2.857-30.104 3.155-3.4 2.195-6.38 1.923-9.683-.012-8.479-4.97-17.68-5.951-26.882-3.118-9.468 2.915-18.633 6.815-27.952 10-.035-.476-.047-.666-.06-.856z"/><path fill="#F9E2E2" d="M195.63 204.147c.375.173.387.363.202 1.08-6.536 4.11-12.983 7.514-19.189 11.311-13.937 8.526-28.51 15.424-44.583 18.935-3.437.75-6.693 2.327-10.032 3.522.36 1.128.72 2.255 1.001 3.737-1.383-1.181-2.687-2.716-3.99-4.252 1.308-.838 2.51-2.041 3.941-2.46 14.05-4.102 28.427-7.148 41.293-14.706 10.179-5.979 20.654-11.453 31.358-17.167z"/><path fill="#FBE0E1" d="M375.37 253.958c1.419-2.316 2.868-5.037 4.954-7.122 2.676-2.674 5.87-4.83 8.82-7.233.228-.186.298-.566.58-1.136a56.311 56.311 0 00-3.847-1.229c-14.088-2.78-27.082-6.625-38.954-13.443-6.191-3.556-11.968-7.833-17.913-11.805l.055-.063c7.269 4.01 14.504 8.083 21.815 12.015 11.517 6.194 24.213 8.84 36.714 12.081 1.542.4 2.931 1.385 4.39 2.1-.962 1.444-1.682 3.16-2.933 4.285-4.356 3.92-8.897 7.635-13.68 11.55z"/><path fill="#FDD3D7" d="M191.1 302.695c4.116 1.691 8.225 3.398 12.349 5.07 14.078 5.708 28.855 8.161 43.89 9.445 1.41.12 2.788.6 4.314 1.24-20.875-.525-41.123-4.507-60.287-14.72-.302-.646-.284-.84-.265-1.035z"/><path fill="#F9E2E2" d="M124.6 244.556c1.99.74 4.173 1.5 5.669 2.964 7.698 7.529 15.22 15.238 22.74 23.237-.8.08-1.722.003-2.242-.495-8.793-8.423-17.537-16.898-26.167-25.706z"/><path fill="#FBE0E1" d="M291.095 194.972c.264-.098.489-.253.782-.64 4.005 1.106 8.017 2.116 11.768 3.732 5.824 2.51 11.47 5.432 17.292 8.538.102.358.064.396-.312.472-10.094-3.984-19.812-8.043-29.53-12.102z"/><path fill="#FDD3D7" d="M278.537 316.58c1.39-.487 3.086-1.368 4.889-1.77 6.312-1.41 12.662-2.656 19.433-3.88-7.7 1.88-15.834 3.677-24.322 5.65z"/><path fill="#F9E2E2" d="M159.807 278.28c4.29 3.507 8.782 7.307 13.21 11.457-4.379-3.488-8.694-7.327-13.21-11.458z"/><path fill="#FBE0E1" d="M365.4 264.971c2.456-3.293 5.236-6.693 8.368-9.997-2.447 3.36-5.245 6.625-8.367 9.997zM351.393 279.977c3.176-3.948 6.672-7.999 10.533-12.004-3.16 3.997-6.686 7.949-10.533 12.004zM340.403 290.088a65.493 65.493 0 017.328-7.145c-2.093 2.445-4.536 4.765-7.328 7.145z"/><path fill="#F9E2E2" d="M173.038 290.363a52.075 52.075 0 016.986 5.374c-2.338-1.452-4.6-3.256-6.986-5.374z"/><path fill="#FDD3D7" d="M314.4 307.047a66.124 66.124 0 017.515-4.078c-2.115 1.373-4.624 2.702-7.516 4.078zM307.363 309.958c1.73-1.074 3.843-2.1 6.336-3.012-1.731 1.095-3.843 2.077-6.336 3.012z"/><path fill="#FBE0E1" d="M321.058 206.941c1.61.759 3.2 1.537 4.888 2.665.097.35.05.398-.31.467-1.785-.98-3.21-2.027-4.635-3.075l.057-.057z"/><path fill="#F9E2E2" d="M184.033 299.395c1.565.437 3.24 1.207 4.926 2.337-1.599-.428-3.208-1.216-4.926-2.337zM180.023 296.386c1.275.442 2.65 1.207 3.979 2.338-1.323-.428-2.6-1.222-3.979-2.338z"/><path fill="#FBE0E1" d="M326.066 209.932c.946.442 1.868.908 2.895 1.684.104.311.067.353-.301.428-1.133-.63-1.898-1.335-2.664-2.04l.07-.072zM333.366 296.053c.45-.722 1.231-1.482 2.364-2.114-.443.777-1.237 1.426-2.364 2.114zM326.369 301.052c.445-.713 1.225-1.465 2.357-2.106-.44.763-1.232 1.415-2.357 2.106zM336.352 294.007c.144-.637.582-1.354 1.378-2.014-.124.682-.605 1.308-1.378 2.014z"/><path fill="#FDD3D7" d="M304.348 310.952c.193-.376.726-.708 1.59-.984-.195.38-.722.704-1.59.984z"/><path fill="#F9E2E2" d="M123.047 243.39c.47-.143 1.066.05 1.753.579-.482.141-1.054-.051-1.753-.58zM188.97 302.305c.323-.133.704.003 1.03.463-.362.152-.668-.021-1.03-.463z"/><path fill="#FBE0E1" d="M331.16 297.968c-.095-.371.108-.71.619-.98.099.384-.11.698-.618.98zM329.294 299.009c-.058-.224.161-.531.682-.915.066.227-.17.53-.682.915zM325.143 301.97c-.096-.366.111-.702.63-.98.098.375-.114.693-.63.98zM374.298 255.016c-.122-.286.02-.643.475-.991.138.312-.037.616-.475.991zM323.184 302.965c-.056-.337.214-.65.822-.964.06.33-.218.659-.822.964z"/><path fill="#F9E2E2" d="M190.768 302.677c.314.213.296.407.261.894-.333.215-.65.137-1.03-.207.102-.412.27-.558.769-.687zM152.982 271.297c.284-.12.636.026.987.481-.307.135-.613-.04-.987-.481z"/><path fill="#FBE0E1" d="M332.315 297.03c-.134-.297.001-.657.455-1.006.15.322-.018.633-.455 1.006zM338.31 292.03c-.131-.299.008-.659.463-1.007.145.323-.024.635-.464 1.007zM339.295 291.015c-.112-.267.038-.609.492-.97.126.286-.051.591-.492.97zM364.31 266.032c-.133-.316.002-.692.46-1.023.151.35-.02.657-.46 1.023zM348.314 283.032c-.134-.31-.001-.679.456-1.016.152.34-.018.647-.456 1.016zM349.316 282.031c-.136-.309-.005-.68.452-1.017.155.342-.015.649-.452 1.017zM350.316 281.031c-.137-.311-.006-.684.45-1.019.157.345-.013.651-.45 1.02zM363.28 267.155c-.128-.27-.002-.684.469-1.11.159.315-.027.64-.468 1.11z"/><path fill="#F9E2E2" d="M157.993 276.31c.259-.064.6.163.978.729-.274.08-.585-.178-.978-.728zM156.985 275.294c.28-.117.632.028.984.483-.304.133-.608-.043-.984-.483zM155.985 274.295c.28-.118.632.027.985.483-.305.133-.609-.044-.985-.483zM154.985 273.295c.28-.117.632.028.984.483-.304.133-.608-.043-.984-.483zM153.977 272.302c.29-.125.647.017.996.473-.314.14-.622-.033-.996-.473z"/><path fill="#E08888" d="M325.636 210.073c1.126.636 1.89 1.342 3.006 1.992 6.313 3.897 12.09 8.174 18.281 11.73 11.872 6.818 24.866 10.664 38.624 13.435-8.482 7.401-18.75 6.107-29.864 4.93a2543.736 2543.736 0 01-46.649-8.32c-7.922-1.052-15.489-1.913-23.095-3.074-.454-.598-.87-.896-1.285-1.195-.153.547-.307 1.094-.391 1.76.068.117.01.383-.368.2-.657-.19-.937-.196-1.481-.232-.62-.031-.975-.034-1.796-.132-6.2.168-11.932.431-18.099.746-2.344.05-4.256.05-7.015.05.62 2.538 1.057 4.323 1.192 6.36-1.33.274-2.36.298-3.166-.006.715-2.329 1.21-4.33 1.915-7.19-8.65 0-16.407.154-24.153-.067-3.707-.106-4.777 1.375-4.217 4.909-.656-.193-1.188-.57-1.808-1.37-.308-1.018-.475-2.106-.754-2.135-7.651-.808-15.345-1.794-22.795 2.353-1.925.161-3.525.326-5.1.627-13.427 2.567-26.85 5.159-40.275 7.743-9.76 2.313-19.248-.498-28.807-1.654-1.678-.203-3.212-1.6-5.16-2.491 2.991-1.242 6.247-2.819 9.684-3.57 16.072-3.51 30.646-10.408 44.583-18.934 6.206-3.797 12.653-7.201 19.21-11.026 9.518-3.71 18.683-7.61 28.15-10.526 9.203-2.833 18.404-1.851 26.883 3.118 3.303 1.935 6.283 2.207 9.683.012 9.307-6.012 19.36-6.09 30.103-3.155 10.14 4.07 19.859 8.129 29.953 12.113 1.801.972 3.226 2.02 5.011 2.999z"/><path fill="#F18C8D" d="M253.308 238.645a31.087 31.087 0 003.8-.278c9.062-.616 17.411-1.028 26.067-1.646.519-1.183.73-2.159 1.187-2.822 1.688 1.254 3.07 2.871 4.584 3.005 3.85.339 7.76.015 11.917.218 11.556 5.969 22.843 11.677 34.13 17.386-1.49.525-2.977 1.05-5.279 1.63-6.219.738-12.273-1.365-16.65 3.74-.316-.379-.632-.758-1.15-1.463-2.618-.602-5.311-1.7-7.402-1-6.66 2.227-13.47.915-20.142 1.706-2.837.336-5.534 1.856-8.404 2.44-5.302-2.882-17.965-2.211-20.35.673-3.687-3.934-16.445-4.128-23.567-.312-.044.045.067-.017.017-.353-1.063-.964-2.078-1.592-3.54-2.327-4.13-.038-7.813.03-11.851.168-1.539-.14-2.827-.116-3.888-.597-5.547-2.513-12.98-.847-15.048 3.154-1.93-5.913-10.573-8.753-17.604-5.972-.604-.454-1.208-.908-1.637-1.784 9.023-5.034 17.87-9.65 26.72-14.254a148.4 148.4 0 017.229-3.547c4.554-.492 8.73-.94 12.908-1.387.532.377 1.064.753 2.004 1.194 1.95.609 3.468 1.54 5.035 1.63 6.964.397 13.941.554 20.914.798z"/><path fill="#FCFAF9" d="M276.075 261.96c2.76-.983 5.458-2.503 8.295-2.839 6.672-.79 13.482.52 20.142-1.707 2.091-.7 4.784.4 7.363 1.434.49 3.189.817 5.619 1.145 8.049-11.305 3.029-22.497 6.603-33.941 8.952-15.067 3.092-30.318 2.737-46.022-.388-.77-.353-.995-.392-1.231-.37 0 0-.43.048-.885-.289-1.424-.44-2.392-.544-3.36-.647-3.63-.632-7.257-1.263-11.233-2.498-.005-4.508.339-8.412.682-12.316 3.683-.068 7.365-.137 11.521.244 1.504 1.073 2.535 1.697 3.565 2.32 0 0-.11.062-.096.469.174 2.735.333 5.064.492 7.393 2.379-2.744 3.042-6.433 5.038-7.417 2.554-1.258 6.183-.336 9.348-.352.333-.002.674.045.999-.007 4.7-.752 6.762 1.013 6.175 5.95-.25 2.096.318 4.289.514 6.438l2.028.023c.13-2.649.512-5.314.33-7.941-.247-3.574 1.205-4.677 4.638-4.521 4.821.218 9.661.032 14.493.02z"/><path fill="#831D1D" d="M335.256 254.255a663.853 663.853 0 01-33.98-17.231c2.8-1.237 5.457-2.114 8.114-2.992 15.143 2.715 30.286 5.43 45.857 8.132-4.795 2.929-10.035 5.843-15.232 8.831-1.56.897-3 2-4.76 3.26zM212.07 236.454c-2.285 1.167-4.576 2.32-6.851 3.503-8.852 4.605-17.698 9.22-26.846 13.993a340.847 340.847 0 01-22.044-10.43c13.439-2.917 26.862-5.509 40.29-8.076 1.574-.301 3.174-.466 5.46-.444 3.796.65 6.893 1.052 9.99 1.454z"/><path fill="#FCF3F3" d="M216.675 259.41c.012 3.835-.332 7.739-.675 12.076a117.814 117.814 0 01-17.79-5.582c-.208-1.663-.209-2.663-.21-3.662 1.807-4.276 9.24-5.942 14.787-3.429 1.06.48 2.35.457 3.888.597z"/><path fill="#F9F2F0" d="M313.388 266.891c-.696-2.424-1.023-4.854-1.311-7.717.355-.054.67.325.986.705 4.378-5.106 10.432-3.003 16.269-3.716-.123 1.033-.401 2.577-1.277 3.08-4.684 2.69-9.517 5.122-14.667 7.648zM197.739 261.967c.262 1.274.263 2.274.26 3.65-5.865-2.755-11.726-5.889-17.726-9.322 6.893-3.08 15.536-.241 17.466 5.672z"/><path fill="#FCF3F3" d="M227.87 274.378c.679-.12 1.647-.016 2.866.353-.691.134-1.634.003-2.866-.353zM231.956 275.222c.106-.153.33-.114.681.081.137.095-.215.186-.215.186s-.336-.136-.466-.267z"/><path fill="#F9F2F0" d="M253.53 238.317a306.029 306.029 0 01-21.136-.47c-1.567-.09-3.086-1.021-4.91-1.813-.969-3.599.1-5.08 3.808-4.974 7.746.221 15.504.067 24.153.067-.706 2.86-1.2 4.861-1.915 7.19z"/><path fill="#FCFAF9" d="M282.868 236.928c-8.349.411-16.698.823-25.458 1.189-.849-1.83-1.286-3.616-1.906-6.153 2.76 0 4.67 0 7.485-.015 6.633-.239 12.364-.463 18.095-.687.355.003.71.006 1.406.428.353 2.026.365 3.632.378 5.238z"/><path fill="#F9F2F0" d="M309.034 233.84c-2.3 1.07-4.957 1.947-8.028 2.923-4.3.156-8.21.48-12.06.14-1.513-.133-2.896-1.75-4.555-3.237-.185-1.014-.152-1.483-.118-1.952 0 0 .058-.266.287-.35a19.672 19.672 0 011.419-.298c7.566.86 15.133 1.722 23.055 2.775z"/><path fill="#FCF3F3" d="M212.447 236.41a150.782 150.782 0 01-10.03-1.343c6.75-4.397 14.445-3.41 22.096-2.603.279.03.446 1.117.754 2.136-4.09.87-8.266 1.318-12.82 1.81z"/><path fill="#D4CBC5" d="M280.618 231.167c-5.265.32-10.996.543-17.196.731 5.264-.3 10.997-.563 17.196-.731zM283.895 231.53c.344.653.311 1.122.25 1.824-.24 1.208-.451 2.184-.97 3.367-.32-1.399-.332-3.005-.42-5.002.203-.384.483-.378 1.14-.188z"/><path fill="#F18C8D" d="M285.94 230.766c-.358.371-.754.443-1.448.48-.145-.58.009-1.128.162-1.675.416.299.83.597 1.285 1.195z"/><path fill="#FCF3F3" d="M275.966 261.56c-4.723.412-9.563.598-14.384.38-3.433-.156-4.885.947-4.638 4.52.182 2.628-.2 5.293-.33 7.942l-2.028-.023c-.196-2.15-.764-4.342-.514-6.438.587-4.937-1.475-6.702-6.175-5.95-.325.052-.666.005-.999.007-3.165.016-6.794-.906-9.348.352-1.996.984-2.66 4.673-5.038 7.417-.16-2.329-.318-4.658-.448-7.439 7.107-4.222 19.865-4.028 23.552-.094 2.385-2.884 15.048-3.555 20.35-.673zM232.066 261.569c-.98-.287-2.01-.911-3.066-1.877.988.285 2.003.913 3.066 1.877z"/></svg>