<svg viewBox="0 0 512 487" xmlns="http://www.w3.org/2000/svg"><path fill="#D28382" d="M281.37 298.77c-2.883.416-5.765.831-9.387.908-2.39-.398-4.047-.583-5.691-.5-22.368 1.133-44.094-1.456-64.71-10.841-1.728-.787-3.78-.862-5.68-1.267 0 0 .077-.018-.018-.304-.975-.433-1.854-.58-2.733-.727-.51-.344-1.021-.689-1.943-1.427-4.712-2.443-9.012-4.494-13.313-6.545 0 0 .07-.015.038-.323-4.033-2.43-8.034-4.55-12.034-6.671 0 0 .069-.02.068-.345-1.021-.775-2.042-1.226-3.062-1.677 0 0 .086.039.078-.267-.782-.692-1.555-1.078-2.328-1.465 0 0 .093-.051.026-.348-1.304-.839-2.54-1.38-3.776-1.922 0 0 .092.047.082-.277-1.036-.785-2.06-1.245-3.086-1.706 0 0 .069-.019.076-.342-1.352-1.108-2.713-1.893-4.073-2.678 0 0 .098.046.07-.276-1.043-.781-2.06-1.24-3.076-1.698 0 0 .07-.018.058-.354-1.024-.766-2.038-1.198-3.052-1.629 0 0 .067-.05.073-.328-.359-.426-.722-.575-1.086-.724 0 0 .075 0 .071-.336-1.021-.758-2.04-1.18-3.057-1.602 0 0 .1-.083.19-.375-5.348-5.402-10.786-10.513-15.81-15.676 8.354-.308 16.294-.564 24.467-.632 9.226 4.037 18.187 7.963 27.238 11.67 1.881.77 4.097.727 6.196 1.4 5.568 2.182 11.097 4.021 16.909 6.083 12.477 2.577 24.673 4.933 37.203 7.388.798.093 1.261.085 2.037.219 1.666.214 3.02.289 4.834.47 3.266.137 6.072.166 9.106.246.228.05.689-.025 1.065.04 1.134-.016 1.891-.098 2.971-.098.763.06 1.204.037 2.104.079 3.566-.057 6.672-.178 10.132-.233 1.762-.15 3.171-.367 4.9-.543.74-.032 1.162-.102 2.032-.13 19.265-1.324 37.713-4.534 55.814-11.2.881-.741 1.377-1.456 2.056-1.752a2832.855 2832.855 0 0134.445-14.807c2.261.161 4.138.825 5.848.528 4.148-.721 8.218-1.89 12.66-2.849 1.577.524 2.812 1.02 4.524 1.706-7.44 6.615-14.286 12.639-21.035 18.77-1.123 1.02-1.821 2.509-2.716 3.781 0 0-.055-.075-.37-.178-1.705 1.052-3.096 2.207-4.486 3.362 0 0 .037-.102-.271-.084-1.163.982-2.018 1.946-2.872 2.91 0 0-.06-.08-.383-.186-2.43 1.633-4.536 3.373-6.643 5.112 0 0-.02-.071-.34-.18-2.1 1.328-3.88 2.766-5.659 4.204 0 0-.016-.07-.332-.18-1.105.647-1.895 1.403-2.686 2.16 0 0 .008-.072-.309-.178-1.108.654-1.899 1.415-2.69 2.176 0 0-.004-.07-.334-.177-4.11 2.321-7.89 4.748-11.671 7.175 0 0 .001-.073-.284-.122-.524.281-.763.612-1.002.942 0 0-.161.162-.65.012-1.684.624-2.88 1.4-4.074 2.174 0 0 .016-.07-.33-.199-3.84 1.582-7.335 3.292-10.83 5.001 0 0-.221.17-.77.016-9.464 2.073-18.383 4.283-27.285 6.564-.55.14-.96.829-1.434 1.263z"/><path fill="#E08889" d="M148.52 236.228c-7.94.256-15.88.512-24.214.787-.394.019-.322.05-.47-.15-.365-.453-.616-.668-.887-.81.013.036-.058.062-.031-.342.015-.946.004-1.487.306-2.215 10.816-3.993 21.32-7.799 31.825-11.605-.08-.345.031-.609.859-.702 2.279-.309 4.096-.531 5.778-1.132 16.902-6.041 33.65-12.55 50.711-18.101 13.53-4.403 27.294-6.172 40.517 1.942 1.605.985 4.812.96 6.473.004 16.072-9.235 32.081-6.3 48.047-.07 9.135 3.564 17.955 7.962 27.163 11.306 17.026 6.183 34.233 11.867 51.365 17.759-4.102.988-8.172 2.156-12.32 2.877-1.71.297-3.587-.367-6.261-.51-11.716.294-22.559.503-33.75.5-8.474-.224-16.601-.234-25.052-.34-.77-.095-1.219-.096-2.093-.19-2.758-.064-5.09-.037-7.856-.059-2.184-.014-3.933.022-6.066-.014-1.42-.014-2.457.043-3.85.064-.833 0-1.309.037-2.248.033-1.279.047-2.094.21-2.909.208-21.497-.07-42.995-.157-64.955-.292-4.18-.03-7.9-.01-11.858-.035-.24-.045-.724.03-1.066-.003-.799-.004-1.255.026-2.108-.005-1.197-.09-1.998-.119-2.932-.065-.133.083-.398-.083-.882-.069-7.174.277-13.863.54-21.029.866-10.388.164-20.298.264-30.208.363z"/><path fill="#F8E1E2" d="M386.303 232.927c-17.473-5.92-34.68-11.604-51.706-17.787-9.208-3.344-18.028-7.742-27.163-11.306-15.966-6.23-31.975-9.165-48.047.07-1.661.955-4.868.98-6.473-.004-13.223-8.114-26.988-6.345-40.517-1.942-17.06 5.552-33.809 12.06-50.711 18.1-1.682.602-3.5.824-5.554 1.09a418.807 418.807 0 0118.717-7.567c11.645-4.389 23.191-9.104 35.028-12.907 11.824-3.8 24.368-6.813 36.175-1.409 8.062 3.69 13.999 2.218 21.714-.76 9.262-3.576 19.911-2.966 29.447.32 16.42 5.658 32.46 12.415 48.723 18.546 8.814 3.324 17.722 6.414 26.655 9.409 5.71 1.914 11.495 3.657 17.338 5.107 4.207 1.044 4.186 2.946 1.39 5.28-7.884 6.578-14.609 14.534-23.893 19.94.544-1.195 1.242-2.683 2.365-3.704 6.75-6.131 13.596-12.155 21.035-18.77-1.712-.687-2.947-1.182-4.523-1.706zM154.628 221.972c-10.083 3.727-20.588 7.533-31.696 11.6-.416 1.022-.228 1.784-.04 2.545 0 0 .07-.026.13.197.36.4.66.575.962.752 0 0-.072-.032-.093.001 5.418 5.144 10.856 10.255 16.16 15.705-2.736-1.141-5.602-2.298-7.879-4.17-4.328-3.56-8.37-7.477-12.412-11.369-.853-.82-1.749-2.252-1.599-3.248.118-.786 1.743-1.503 2.822-1.954 2.913-1.219 5.831-2.495 8.858-3.361 8.091-2.315 16.24-4.426 24.787-6.698zM196.046 287.413c1.757.062 3.808.137 5.535.924 20.617 9.385 42.343 11.974 64.71 10.841 1.645-.083 3.303.102 5.262.422-4.923.627-10.156 1.335-15.384 1.3-20.9-.14-41.011-4.09-60.123-13.487zM281.76 298.819c.085-.482.494-1.17 1.044-1.311 8.902-2.28 17.821-4.491 27.16-6.625a508.553 508.553 0 01-21.652 7.075c-1.966.593-4.103.621-6.551.86zM178.022 278.405c4.174 1.713 8.474 3.764 12.855 6.136-4.189-1.718-8.458-3.758-12.855-6.136zM328.403 283.067a134.34 134.34 0 0111.331-7.114c-3.41 2.43-7.183 4.746-11.331 7.114zM166.024 271.408a116.446 116.446 0 0111.912 6.371c-3.906-1.783-7.846-3.91-11.912-6.371zM311.26 290.965a90.38 90.38 0 0110.464-5.027c-3.1 1.78-6.581 3.422-10.463 5.027zM352.407 268.073a46.341 46.341 0 016.327-5.095c-1.748 1.734-3.86 3.391-6.327 5.095zM346.403 272.081a31.683 31.683 0 015.343-4.13c-1.427 1.437-3.209 2.753-5.343 4.13z"/><path fill="#F8E1E2" d="M362.582 260.419c1.027-1.206 2.418-2.361 4.162-3.44-1.031 1.214-2.415 2.352-4.162 3.44zM150.032 260.36c1.232.471 2.593 1.256 3.939 2.4-1.28-.457-2.546-1.272-3.94-2.4zM322.38 286.058c.834-.707 2.029-1.482 3.616-2.167-.824.76-2.04 1.43-3.617 2.167zM359.413 263.114c.517-.884 1.372-1.848 2.582-2.802-.512.914-1.379 1.819-2.582 2.802zM157.044 265.368c1.097.223 2.333.764 3.653 1.654-1.115-.214-2.314-.774-3.653-1.654zM340.366 276.068c.46-.707 1.25-1.468 2.392-2.11-.453.763-1.257 1.41-2.392 2.11zM343.364 274.069c.46-.702 1.25-1.458 2.391-2.106-.452.756-1.256 1.403-2.39 2.106zM163.03 269.36c.895.142 1.916.593 2.932 1.403-.94-.124-1.873-.608-2.932-1.402zM147.007 258.388c.908.143 1.924.601 2.944 1.43-.943-.123-1.888-.618-2.944-1.43zM154.008 263.384c.918.143 1.943.603 2.955 1.433-.96-.125-1.904-.62-2.955-1.433zM144.015 256.403c.903.117 1.917.549 2.938 1.35-.938-.098-1.883-.567-2.938-1.35zM140.017 253.41c.906.11 1.924.533 2.944 1.328-.943-.089-1.887-.552-2.944-1.327zM160.645 267.669c.783.037 1.556.423 2.317 1.158-.784-.038-1.556-.423-2.317-1.158zM193.198 286.386c.832-.2 1.71-.053 2.693.419-.813.193-1.73.06-2.693-.419zM327.06 283.97c-.078-.36.161-.69.722-.97.08.367-.162.684-.722.97zM142.973 255.297c.282-.11.645.038.993.505-.314.13-.613-.058-.993-.505z"/><path fill="#811F1E" d="M148.752 236.416c9.677-.287 19.587-.387 30.308-.385 7.071 1.53 13.332 2.96 19.962 4.474l1.218-5.52s.265.166.473.44c.505 1.179.803 2.081 1.182 3.35 7.515 1.222 14.944 2.125 22.389 2.874.9.09 1.919-1.032 2.823-.949 7.946.732 15.872 1.694 23.824 2.336.968.078 2.057-1.332 3.331-2.21.727-.379 1.212-.6 1.725-.39.553 1.102 1.069 2.35 1.6 2.357 7.809.099 15.62.102 23.426-.115.7-.019 1.354-1.71 2.153-2.749.143-.24.2-.366.172-.47-.056-.216-.156-.42-.137-.887.06-.622.02-.985.267-1.527.687-.122 1.085-.065 1.437.403.691 1.71 1.496 4.17 2.158 4.133 7.315-.416 14.607-1.22 22.138-2.148.54-1.1.847-1.97.997-2.395 1.234 1.028 2.587 3.023 3.605 2.864 6.766-1.05 13.46-2.562 20.177-3.923 10.842-.21 21.685-.42 32.94-.647-10.919 4.886-22.256 9.778-33.57 14.723-.68.296-1.176 1.01-2.154 1.353-1.42-.944-2.464-2.393-3.462-2.362-4.841.149-9.67.696-14.823 1.059-.535-.054-.75-.065-.935-.081.03-.005.001.048-.223-.3-9.497-1.097-18.776-2.546-28.04-2.446-17.098.186-34.145 1-51.291.069-10.8-.586-21.748 1.578-32.842 2.576-.211.067-.53.376-.958.335-5.777-.398-11.126-.756-16.474-1.114-2.061-.331-4.277-.287-6.158-1.058-9.051-3.707-18.012-7.633-27.238-11.67z"/><path fill="#FCF2F2" d="M313.23 250.147c4.834-.405 9.663-.952 14.504-1.101.998-.031 2.043 1.418 3.162 2.585-17.704 6.842-36.152 10.052-55.184 11.105.32-1.873.853-3.43 1.633-5.224.608-4.548 3.305-6.156 7.254-6.09 4 .066 8.015.617 11.992.393 5.145-.29 10.259-1.136 15.386-1.743 0 0 .029-.053.037.242.412.142.814-.012 1.217-.167zM199.05 250.3s.319-.31.996-.312c5.694.081 11.008-1.072 14.96 3.437 5.61-4.497 17.078-2.7 18.486 2.973.43-.904.834-1.754 1.321-2.535.084.069.249.21.238.632.296 3.068.604 5.715.912 8.363-12.195-2.356-24.391-4.712-36.814-7.712-.184-2.045-.141-3.446-.098-4.847z"/><path fill="#FCF8F7" d="M277.099 257.747c-.534 1.558-1.068 3.116-1.835 4.946-.655.342-1.076.412-2.186.412-2.087.123-3.486.316-4.885.509-3.106.12-6.212.242-9.933-.048-1.178-3.516-1.742-6.62-2.06-10.022a220.68 220.68 0 0115.424-1.451c3.906-.233 5.955 1.537 5.475 5.654zM236.298 262.957c-.643-2.747-.95-5.394-.786-8.485 3.93-.455 7.389-.477 10.847-.472 6.831.009 9.46 2.679 9.63 9.752-.758.082-1.515.164-2.747.086-.75-.287-.99-.232-1.195.004-2.806-.03-5.612-.06-9.172-.338-2.12-.323-3.486-.396-4.852-.469-.464.007-.927.015-1.725-.078z"/><path fill="#F8E1E2" d="M198.622 250.258c.386 1.442.343 2.843.246 4.666-5.585-1.417-11.114-3.256-16.682-5.438 5.31.016 10.659.374 16.436.772z"/><path fill="#FCF2F2" d="M256.311 263.834c-.491-7.155-3.12-9.825-9.952-9.834-3.458-.005-6.916.017-10.836.05-.461.023-.626-.118-.54-.556 7.12-2.118 14.119-2.859 20.97.346.565 3.105 1.129 6.21 1.848 9.662-.286.37-.727.392-1.49.332zM238.335 263.176c1.054-.068 2.42.005 4.08.22-1.06.069-2.414-.006-4.08-.22zM268.547 263.68c1.045-.259 2.444-.452 4.212-.614-1.041.247-2.45.463-4.212.614zM252.275 263.892c-.023-.286.217-.34.59-.12.099.095-.362.17-.59.12zM254.02 240.984c-1.032.72-2.12 2.13-3.089 2.052-7.952-.642-15.878-1.604-23.824-2.336-.904-.083-1.923 1.04-2.823.95-7.445-.75-14.874-1.653-22.282-3.19.67-1.541 1.318-2.404 1.964-3.266.457-.03.913-.06 1.818.035.447.125.85.17.85.17l.35-.212c3.719-.02 7.437-.041 11.935.167 3.454.775 6.134 1.807 8.801 1.772 7.19-.094 14.373-.685 21.562-.991 3.268-.14 4.918 1.514 4.738 4.85zM308.969 239.661c-7.299.7-14.591 1.504-21.906 1.92-.662.037-1.467-2.423-1.979-4.328.766-1.054 1.306-1.503 1.845-1.953.476-.036.952-.072 2.035.087 1.733.08 2.859-.036 3.984-.152 1.75-.036 3.498-.072 6.001.121 3.158.143 5.56.058 7.963-.028.448.002.896.003 1.682.44.35 1.588.363 2.74.375 3.893z"/><path fill="#F8E1E2" d="M286.466 235.26c-.076.49-.616.94-1.335 1.583-.578.137-.976.08-1.993-.056-8.444.048-16.275.066-24.09.428-1.071.05-2.062 1.817-3.09 2.79-.484.221-.97.442-1.696.822-.062-3.178-1.712-4.831-4.98-4.692-7.19.306-14.372.897-21.562.991-2.667.035-5.347-.997-8.338-1.721 21.18-.094 42.678-.007 64.175.063.815.002 1.63-.161 2.909-.208zM309.201 239.433c-.244-.924-.256-2.077-.283-3.57 8.112-.331 16.239-.321 24.714-.098-6.37 1.575-13.063 3.087-19.829 4.137-1.018.159-2.37-1.836-3.605-2.864-.15.425-.457 1.296-.997 2.395zM199.756 235c.135 1.57-.215 3.155-.734 5.505-6.63-1.514-12.89-2.943-19.484-4.538 6.355-.429 13.044-.69 20.218-.968zM306.486 235.236c-1.977.178-4.38.263-7.102.17 2.012-.207 4.344-.234 7.102-.17zM203.57 235.133c-.25.923-.897 1.786-1.65 2.962-.404-.589-.702-1.491-1.075-2.752.727-.329 1.528-.3 2.725-.21zM292.564 235.163c-.741.188-1.867.304-3.242.26.785-.217 1.821-.274 3.242-.26z"/><path fill="#D28382" d="M122.918 235.713c-.214-.357-.402-1.119-.298-1.954.302.467.313 1.008.298 1.954z"/><path fill="#F8E1E2" d="M206.744 235.141c.24.046-.11.257-.11.257s-.403-.044-.509-.135c-.105-.091.378-.167.619-.122z"/><path fill="#D28382" d="M123.836 236.865c-.153.024-.454-.152-.827-.586.21-.082.462.133.827.586z"/><path fill="#EE898B" d="M256.2 253.544c-7.098-2.909-14.098-2.168-21.301-.119-.573 1.219-.977 2.069-1.407 2.973-1.408-5.673-12.876-7.47-18.486-2.973-3.952-4.51-9.266-3.356-14.748-3.504 10.416-.996 21.364-3.16 32.164-2.574 17.146.931 34.193.117 51.292-.069 9.263-.1 18.542 1.35 28.039 2.447-4.903.954-10.017 1.8-15.162 2.09-3.977.224-7.992-.327-11.992-.393-3.949-.066-6.646 1.542-7.254 6.09.234-3.882-1.815-5.652-5.721-5.419a220.68 220.68 0 00-15.424 1.45z"/><path fill="#FCF8F7" d="M255.987 240.436c1-1.404 1.99-3.171 3.06-3.22 7.816-.363 15.647-.38 23.803-.25.37.62.411.984.296 1.91-.14.768-.121.973-.103 1.178-.676.915-1.33 2.605-2.03 2.624-7.805.217-15.617.214-23.426.115-.531-.006-1.047-1.255-1.6-2.357z"/><path fill="#EE898B" d="M312.91 250.105c-.082.197-.484.35-.926.215.177-.28.392-.269.927-.215z"/><path fill="#F8E1E2" d="M283.166 239.93c-.141-.081-.16-.286-.122-.795.138-.095.238.108.294.324.027.104-.03.23-.172.47z"/></svg>