<svg viewBox="0 0 910 865" xmlns="http://www.w3.org/2000/svg"><path fill="#D48282" d="M687.045 415.875c3.96.855 3.571 3.333 1.999 5.914-5.208 8.549-10.257 17.214-15.87 25.493-9.267 13.666-18.797 27.16-28.485 40.53-3.65 5.039-7.875 9.698-12.139 14.248-12.345 13.173-24.468 26.587-37.38 39.187-14.506 14.154-31.475 25.057-49.2 34.874-13.641 7.556-27.624 14.138-42.926 17.326-10.771 2.244-21.647 4.224-32.575 5.408-9.673 1.048-19.578 1.86-29.212.962-19.526-1.82-38.889-5.235-57.294-12.395-18.953-7.373-37.235-16.304-53.555-28.48-12.445-9.285-24.849-18.963-35.617-30.07-13.436-13.86-25.836-28.864-37.482-44.281-15.406-20.397-29.653-41.67-44.375-62.582-.45-.639-.643-1.458-.73-2.793 2.076-.83 3.926-1.059 5.849-.953 16.58 17.706 35.546 32.007 55.7 44.812.902.572 2.14.618 3.343 1.223 7.36 5.575 14.332 11.262 21.89 16.016 21.804 13.714 43.507 27.663 67.363 37.717 1.713.722 3.752.669 5.645.972.007-.004.02-.017.244.054 2.751 1.027 5.277 1.981 8.023 3.204 1.865 1.026 3.446 2 5.165 2.508 9.178 2.717 18.39 5.318 27.982 8.065a5510.234 5510.234 0 0036.071 4.209c.654.01 1.028.007 1.452.013.05.009.029.11.253.274.576.288.928.412 1.652.413 2.512-.262 4.67-.267 6.789-.563 9.597-1.344 19.182-2.77 29.048-4.17.646-.029 1.014-.055 1.77-.125 8.907-2.698 17.468-5.234 25.91-8.116 1.503-.513 2.517-2.462 4.045-3.804 1.012-.358 1.735-.66 2.539-.625 3.731-.873 7.382-2.082 11.408-3.315 1.326-.306 2.342-.457 3.216-.892 13.344-6.633 27.05-12.652 39.899-20.139 14.57-8.49 28.37-18.303 42.859-27.64 1.465-.824 2.64-1.468 3.678-2.286 20.35-16.014 40.683-32.047 61.306-48.194.771-.744 1.257-1.372 1.742-2z"/><path fill="#E08787" d="M217.98 417.928c-1.85.229-3.7.458-5.8.92.237-.824.432-2.347 1.26-2.869 7.663-4.838 15.277-9.789 23.205-14.164 23.259-12.836 46.401-25.922 70.07-37.963 22.343-11.367 45.114-21.944 68.051-32.066 13.262-5.852 27.38-9.285 42.161-8.8 9.575.313 18.6 2.502 26.891 7.363 3.837 2.25 7.481 3.214 11.635.489 13.274-8.71 27.94-7.416 42.737-5.952 19.183 1.898 36.842 8.396 53.743 17.148 25.383 13.145 50.664 26.489 75.871 39.968 15.649 8.367 31.1 17.104 46.596 25.756 4.2 2.344 8.236 4.98 12.496 7.8-.336.944-.822 1.572-1.928 2.154a1995.19 1995.19 0 01-29.513-7.92c-49.022-13.557-98.856-21.706-149.81-21.676-41.986.024-83.986.053-125.951 1.158-21.417.564-43.102 1.759-64.077 5.758-32.808 6.255-65.117 15.13-97.637 22.896z"/><path fill="#F28A8B" d="M380.04 521.993c-2.525-.955-5.05-1.91-7.83-3.075a29.815 29.815 0 00-.666-.53l.444.619c-1.887-.307-3.926-.254-5.639-.976-23.856-10.054-45.56-24.003-67.363-37.717-7.558-4.754-14.53-10.441-21.702-16.295 12.17-10.993 26.817-16.493 41.387-22.217 34.212-13.439 69.898-13.74 105.816-12.166 11.955.523 24.027 2.375 35.84 1.319 26.824-2.4 53.593-3.059 80.28.168 30.402 3.677 57.176 15.81 79.359 37.33-14.135 9.238-27.935 19.05-42.506 27.541-12.85 7.487-26.555 13.506-39.899 20.14-.874.434-1.89.585-3.637.93-4.22 1.02-7.644 1.98-11.069 2.939-.722.302-1.445.604-2.763.71-6.733-.436-12.942-1.37-18.995-.76-10.615 1.071-11.367-1.365-11.041 12.977-.369.025-.737.051-1.445-.355-.412-1.426-.473-2.42-.56-3.412-.6-6.948-1.386-7.835-8.446-8.046-6.799-.203-13.612.06-20.41-.17-5.172-.176-7.711 1.788-7.575 7.18.076 2.965-.473 5.947-.74 8.92-.373.003-.747.005-1.402-.471-.4-4.135-.308-7.817-.752-11.434-.167-1.361-1.564-3.668-2.429-3.681-10.93-.166-21.868-.028-32.8.166-.84.015-1.662 1.03-2.807 1.39-1.678-1.035-2.998-2.527-4.407-2.616a349.88 349.88 0 00-22.23-.712c-1.337 0-2.675 1.498-4.013 2.304z"/><path fill="#801918" d="M620.319 468.354c-22.536-21.42-49.31-33.554-79.712-37.23-26.687-3.228-53.456-2.569-80.28-.17-11.813 1.057-23.885-.795-35.84-1.318-35.918-1.574-71.604-1.273-105.816 12.166-14.57 5.724-29.217 11.224-41.51 21.903-1.268-.012-2.506-.058-3.408-.63-20.154-12.805-39.12-27.106-55.7-44.812 32.447-8.1 64.756-16.976 97.564-23.231 20.975-3.999 42.66-5.194 64.077-5.758 41.965-1.105 83.965-1.134 125.95-1.158 50.955-.03 100.789 8.12 149.811 21.676 9.62 2.66 19.26 5.252 29.227 8.037-20.002 16.192-40.335 32.225-60.685 48.24-1.039.817-2.213 1.461-3.678 2.285z"/><path fill="#FEFBFA" d="M411.006 523.207c.83-.55 1.651-1.565 2.49-1.58 10.933-.194 21.87-.332 32.801-.166.865.013 2.262 2.32 2.429 3.681.444 3.617.351 7.299.472 11.422-11.798-.897-23.598-2.261-35.79-4.132-1.063-3.413-1.733-6.319-2.402-9.225zM450.93 537.056c.217-2.982.766-5.964.69-8.929-.136-5.392 2.403-7.356 7.576-7.18 6.797.23 13.61-.033 20.409.17 7.06.211 7.846 1.098 8.447 8.046.086.992.147 1.986.282 3.416-9.527 1.832-19.112 3.257-28.709 4.6-2.118.297-4.277.302-7.012.387-.947-.17-1.3-.285-1.653-.4 0 0 .021-.101-.03-.11z"/><path fill="#FEF7F6" d="M410.69 523.017c.985 3.096 1.655 6.002 2.324 9.31-9.199-2.24-18.41-4.841-27.588-7.558-1.719-.509-3.3-1.482-5.165-2.508 1.117-1.074 2.455-2.572 3.793-2.572 7.412 0 14.832.24 22.229.712 1.41.09 2.73 1.58 4.407 2.616zM490.443 532.885c-.713-14.297.039-11.86 10.654-12.932 6.053-.61 12.262.324 18.706.816-.933 1.538-1.947 3.487-3.45 4-8.442 2.882-17.003 5.418-25.91 8.116zM522.937 520.34c3.343-1.297 6.767-2.256 10.612-3.254-3.23 1.172-6.88 2.381-10.612 3.254z"/><path fill="#F28A8B" d="M451.184 537.33c.129-.05.482.067 1.058.358-.13.054-.482-.07-1.058-.358z"/><path fill="#D48282" d="M371.994 519.003a24.45 24.45 0 01-.45-.615c.137.107.275.213.44.459.03.139.017.152.01.156z"/></svg>