<svg viewBox="0 0 512 487" xmlns="http://www.w3.org/2000/svg"><path fill="#D38382" d="M342.972 301.383c.093.259.02.454-.786.56-1.078.714-1.593 1.454-2.108 2.194 0 0-.046-.118-.277-.259-1.007.537-1.784 1.214-2.562 1.892a42.055 42.055 0 01-2.975 2.3c-.783.537-1.037.804-1.29 1.07 0 0 .037-.1-.259-.188-1.091.67-1.886 1.43-2.681 2.188 0 0 .002-.08-.283-.135-.543.273-.801.602-1.06.93 0 0-.132.159-.617.033-6.258 2.85-12.03 5.827-17.8 8.804-1.178.708-2.355 1.417-4.18 2.12-1.92.138-3.288.027-4.455.459-18.745 6.938-38.067 8.717-57.857 6.773-5.6-.55-11.237-.716-16.856-1.057-5.175-1.353-10.35-2.706-16.054-4.435-6.686-3.099-12.843-5.822-19-8.545 0 0 .08-.02.045-.324-3.151-1.806-6.267-3.307-9.384-4.808 0 0-.071.062-.224-.308-.582-.435-1.012-.5-1.441-.566 0 0 .07-.006.099-.305-.358-.453-.746-.608-1.134-.762a18.642 18.642 0 01-1.986-1.362c-1.597-1.129-2.778-1.85-3.959-2.573 0 0 .069-.008.077-.33-1.692-1.442-3.393-2.562-5.094-3.681 0 0 .09.033.156-.277-2.671-2.435-5.407-4.56-8.144-6.684 0 0 .069-.04.11-.345-.35-.435-.743-.564-1.136-.693 0 0 .073-.01.222-.312-2.31-2.422-4.77-4.542-7.23-6.662 0 0 .048-.053.2-.361-3.953-5.44-8.058-10.57-12.297-16.008-4.061-5.666-7.99-11.024-12.254-16.277-.406.329-.474.554-.543.779 0 0-.112-.021.177-.38-2.54-5.434-5.371-10.507-8.476-16.073 1.975-.995 3.667-1.848 5.356-2.361.007.792.016 1.245-.208 1.951-.158 1.075-.405 2.209.042 2.672 4.492 4.655 8.812 9.54 13.752 13.68 5.15 4.317 10.928 7.886 16.605 12.04 18.494 12.078 37.957 21.401 59.387 27.3 6.364 1.317 12.398 2.477 18.776 3.848 14.406 2.988 28.49 3.177 43.007.572 5.437-.888 10.493-1.642 15.469-2.758 1.158-.26 2.04-1.749 3.173-2.937.503-.697.883-1.13 1.212-1.188 1.11.961 2.403 2.21 3.406 2.009 3.07-.615 6.027-1.786 9.407-2.773 10.003-4.384 19.729-8.525 29.205-13.177 4.813-2.363 9.175-5.645 14.1-8.54 10.069-8.02 19.88-15.89 29.403-24.095 1.978-1.704 2.89-4.645 4.66-7.075 4.368.837 2.216 3.401 1.312 4.84-7.235 11.524-14.684 22.914-22.02 34.375-1.004 1.569-1.745 3.306-2.608 4.966 0 0 .023-.065-.294-.17-2.755 2.39-5.194 4.885-7.915 7.564-1.109 1.653-1.936 3.122-2.762 4.59 0 0-.115-.109-.391-.23-3.104 2.753-5.93 5.63-8.758 8.505z"/><path fill="#F9E5E4" d="M125.015 235.074l-5.36 2.701c3.106 5.566 5.936 10.64 8.486 16.016-3.355-4.33-6.426-8.964-9.503-13.594-1.54-2.314-.663-3.684 1.563-4.973 9.001-5.209 17.861-10.664 26.895-15.814 15.965-9.102 31.869-18.33 48.08-26.978 14.793-7.891 30.817-10.96 47.53-9.298 3.347.333 6.438 2.744 9.8 3.573 2.044.504 4.453.103 6.572-.41 3.667-.887 7.175-2.848 10.858-3.19 23.525-2.178 43.865 6.82 63.374 18.582 7.125 4.296 14.366 8.4 21.328 12.937-.702.358-1.178.37-1.989.286-3.054-1.702-5.795-3.273-8.49-4.92-16.785-10.256-33.774-20.115-53.361-24.103-11.19-2.279-22.36-3.754-32.816 3.155-1.327.877-4.243.649-5.729-.234-6.582-3.91-13.725-5.819-21.061-4.458-9.912 1.839-20.519 3.067-29.238 7.608-26.062 13.574-51.35 28.634-76.94 43.114z"/><path fill="#F9E1E0" d="M352.984 215.009l1.785-.048c6.234 3.426 12.126 6.838 17.984 10.309 5.08 3.01 9.982 6.362 15.23 9.04 3.592 1.835 3.741 4.029 2.176 7.08-7.276 14.183-15.707 27.593-26.76 39.592.556-1.518 1.297-3.255 2.3-4.824 7.337-11.461 14.786-22.851 22.021-34.375.904-1.439 3.056-4.003-1.332-4.83-.39.066-.403.023-.44-.285-.316-.612-.594-.916-1.101-1.447-10.774-6.888-21.319-13.55-31.863-20.212z"/><path fill="#FCD2D3" d="M227.124 329.438c5.421-.03 11.059.135 16.658.686 19.79 1.944 39.112.165 57.857-6.773 1.167-.432 2.535-.321 4.122-.346-10.147 4.659-21.024 7.441-32.45 7.999-5.23.255-10.471 1.108-15.676.9-10.116-.403-20.21-1.365-30.51-2.466z"/><path fill="#F9E5E4" d="M140.885 270.035c4.106 5.13 8.211 10.26 12.173 15.733-4.736-4.797-9.328-9.936-13.629-15.418.68-.334 1.068-.325 1.456-.315z"/><path fill="#F9E1E0" d="M140.752 269.726c-.255.3-.643.29-1.322.276-3.674-4.723-7.057-9.441-10.486-14.965-.067-1.1-.088-1.396-.11-1.692 3.929 5.357 7.857 10.715 11.918 16.38zM192.012 316.42c6.017 2.39 12.174 5.113 18.456 8.112a301.815 301.815 0 01-18.456-8.113z"/><path fill="#FCD2D3" d="M310.634 320.84a271.046 271.046 0 0117.356-8.933c-5.397 3.045-11.196 6.023-17.356 8.933z"/><path fill="#F9E1E0" d="M355.165 288.334c2.439-2.495 4.878-4.99 7.662-7.362-1.782 2.695-3.909 5.267-6.533 7.862-.724-.13-.935-.305-1.13-.5z"/><path fill="#F9E5E4" d="M343.296 301.21c2.503-2.703 5.33-5.579 8.489-8.277-2.501 2.819-5.333 5.46-8.49 8.276zM161.01 294.417c2.61 1.814 5.346 3.94 8 6.419-2.68-1.8-5.276-3.954-8-6.419zM152.912 286.441a52.76 52.76 0 017.15 6.349c-2.473-1.778-4.78-3.89-7.15-6.349z"/><path fill="#F9E1E0" d="M182.765 311.257c2.885 1.2 6.001 2.7 9.161 4.547-2.947-1.185-5.938-2.715-9.16-4.547z"/><path fill="#F9E5E4" d="M169.023 301.371c1.55.816 3.25 1.936 4.942 3.412-1.603-.798-3.197-1.954-4.942-3.412zM354.883 288.518c.476.01.687.185 1.09.446-.967 1.374-2.111 2.64-3.554 4.026.528-1.35 1.355-2.819 2.464-4.472zM173.993 305.378c1.076.423 2.257 1.145 3.567 2.149-1.067-.43-2.264-1.14-3.567-2.149z"/><path fill="#FCD2D3" d="M330.366 311.08c.463-.699 1.258-1.457 2.4-2.109-.459.754-1.263 1.401-2.4 2.108z"/><path fill="#F9E5E4" d="M337.515 305.663a7.124 7.124 0 012.323-1.733c-.505.671-1.277 1.15-2.323 1.733zM340.38 304.019c.213-.622.728-1.362 1.636-2.079-.183.67-.759 1.315-1.636 2.079z"/><path fill="#FCD2D3" d="M333.252 309.046c-.025-.172.229-.44.708-.874.007.148-.211.464-.708.874z"/><path fill="#F9E1E0" d="M179.92 309.284c.3-.116.689.039 1.047.527-.34.137-.65-.06-1.046-.527zM180.996 310.39c.301-.243.731-.178 1.282.222-.304.252-.729.17-1.282-.222z"/><path fill="#F9E5E4" d="M159.944 293.327c.306-.13.699 0 1.04.473-.353.158-.654-.029-1.04-.473z"/><path fill="#FCD2D3" d="M329.017 311.973c-.067-.366.19-.695.773-.967.068.373-.19.688-.773.967z"/><path fill="#F9E5E4" d="M128.498 253.449c.358.192.38.488.426 1.228-.325.433-.608.289-.896-.218-.004-.456.064-.681.47-1.01z"/><path fill="#F18A8B" d="M351.986 268.142c-4.566 2.866-8.928 6.148-13.741 8.511-9.476 4.652-19.202 8.793-29.508 12.977-4.608.084-8.533.337-12.459.589-.38.433-.76.866-1.584 1.387-6.002.25-11.56.413-17.613.586-.823.031-1.152.053-1.924.037-5.418-.14-10.398-.387-15.368-.265-1.814.045-3.627 1.476-5.404 1.402-5.806-.242-11.595-.886-17.833-1.42-2.364-.153-4.285-.285-6.208-.367-5.416-.232-10.997-2.443-16.086 1.32-21.098-5.74-40.56-15.064-58.805-27.396 4.963-3.626 9.617-7.205 14.774-9.774 21.842-10.881 45.247-12.474 69.14-11.262 9.764.495 19.568.088 29.35.303 13.942.305 28.056-.418 41.776 1.54 16.005 2.285 30.54 9.092 41.493 21.832z"/><path fill="#811918" d="M352.345 268.112c-11.312-12.71-25.847-19.517-41.852-21.802-13.72-1.958-27.834-1.235-41.777-1.54-9.78-.215-19.585.192-29.348-.303-23.894-1.212-47.299.38-69.14 11.262-5.158 2.57-9.812 6.148-14.948 9.516-5.754-3.642-11.532-7.21-16.682-11.528-4.94-4.14-9.26-9.025-13.752-13.68-.447-.463-.2-1.597.354-2.69 6.758-1.84 12.923-3.284 19.01-5 33.297-9.387 66.93-16.435 101.784-16.242 27.822.154 55.713-.816 82.997 6.12 18.712 4.757 37.33 9.882 56.25 14.91.42-.01.582-.084.744-.159 0 0 .012.043.034.034-1.382 2.363-2.293 5.304-4.27 7.008-9.524 8.205-19.335 16.075-29.404 24.094z"/><path fill="#E08788" d="M384.982 237.068c-18.66-4.96-37.279-10.086-55.991-14.843-27.284-6.936-55.175-5.966-82.997-6.12-34.854-.193-68.487 6.855-101.784 16.242-6.087 1.716-12.252 3.16-18.777 4.747-.405-.435-.414-.888-.42-1.68 25.592-14.82 50.88-29.88 76.94-43.454 8.72-4.541 19.327-5.77 29.239-7.608 7.336-1.361 14.48.548 21.061 4.458 1.486.883 4.402 1.111 5.73.234 10.454-6.91 21.625-5.434 32.815-3.155 19.587 3.988 36.576 13.847 53.362 24.104 2.694 1.646 5.435 3.217 8.489 4.92 10.88 6.758 21.424 13.42 32.18 20.714.192.902.172 1.172.153 1.441z"/><path fill="#FCF6F6" d="M236.994 291.99c5.796.49 11.585 1.134 17.391 1.376 1.777.074 3.59-1.357 5.404-1.402 4.97-.122 9.95.126 15.437.6.605 1.057.699 1.742.776 2.74-.024.932-.031 1.554-.039 2.176-14.108 2.602-28.191 2.413-42.536-.894 1-1.886 2.284-3.24 3.567-4.595z"/><path fill="#FAF1EF" d="M276.373 297.477c-.402-.619-.395-1.24-.096-2.363.628-1.31.963-2.122 1.298-2.933 5.559-.162 11.117-.325 16.996-.31-.688 1.1-1.571 2.589-2.73 2.848-4.975 1.116-10.031 1.87-15.468 2.758zM236.552 291.947c-.841 1.398-2.125 2.753-3.47 4.426-6.094-.84-12.128-1.999-18.492-3.316 4.757-3.921 10.338-1.71 15.754-1.478 1.923.082 3.844.214 6.208.368z"/><path fill="#F9E1E0" d="M296.227 290.594c3.977-.627 7.902-.88 12.13-.932-2.697 1.155-5.655 2.326-8.724 2.94-1.003.202-2.296-1.047-3.406-2.008z"/><path fill="#D38382" d="M385.241 237.134c-.24-.335-.22-.605-.183-1.28.296-.102.574.202.89.814-.125.383-.287.458-.707.466zM277.081 292.192c.16.8-.176 1.611-.787 2.611-.369-.497-.463-1.182-.625-2.202.26-.356.589-.378 1.412-.41z"/></svg>