<svg viewBox="0 0 509 490" xmlns="http://www.w3.org/2000/svg"><path fill="#D28383" d="M201.837 294.93c-5.42-2.613-10.841-5.225-16.816-8.247-2.752-1.476-4.949-2.542-7.146-3.607 0 0 .078-.022.05-.326-7.362-4.429-14.697-8.553-22.032-12.677 0 0 .07-.008.053-.324-1.027-.781-2.037-1.247-3.047-1.713 0 0 .082.004.056-.297-3.704-2.764-7.382-5.226-11.061-7.688 0 0 .082.023.094-.286-1.392-1.66-2.768-3.038-4.203-4.353-5.076-4.654-10.214-9.242-15.232-13.958-1.266-1.19-3.023-2.844.544-3.487 1.312 1.014 2.354 2.138 3.533 2.306 10.16 1.445 20.293 4.807 30.78 1.123 3.323 1.67 6.471 3.054 9.87 4.655 1.094.444 1.936.672 2.742.848-.036-.052.059-.136.22.177 3.038 1.506 5.916 2.7 9.025 4.167 5.42 2.387 10.61 4.502 16.044 6.835 1.085.426 1.922.634 3.125.922 5.09 1.5 9.813 2.918 14.767 4.505.792.246 1.354.323 2.296.48 6.243 1.26 12.084 2.56 17.97 3.604 26.774 4.75 52.955 2.47 78.888-6.84 3.832-1.302 7.296-2.57 11.144-3.821 4.39-1.944 8.395-3.906 12.71-6.062a454.2 454.2 0 019.332-4.897c-.01.065-.14.046.178-.087.962-.367 1.605-.6 2.454-1.12 2.295-1.101 4.384-1.918 6.96-2.742 6.239-.35 12.047-.311 17.723-1.157 4.462-.665 8.763-2.42 13.467-3.702 1.299.36 2.266.73 2.997 1.009l-5.357 7.26c.09.24.022.42-.74.538-.75.392-.963.786-1.178 1.18 0 0 .002-.07-.305-.223-2.095 1.645-3.884 3.442-5.673 5.239 0 0-.033-.092-.307-.107-.42.35-.568.714-.714 1.078 0 0-.002-.069-.32-.186-1.768 1.338-3.218 2.793-4.669 4.248 0 0-.05-.113-.313-.126-.406.346-.55.705-.694 1.064 0 0-.01-.07-.317-.213-1.437.983-2.566 2.11-3.695 3.235 0 0-.024-.104-.285-.098-.413.358-.565.71-.716 1.062 0 0 .029-.078-.298-.145-1.775 1.339-3.224 2.744-4.673 4.149 0 0-.027-.077-.337-.201-1.103.673-1.896 1.47-2.69 2.268 0 0-.036-.106-.344-.173-1.42 1.012-2.532 2.09-3.645 3.17 0 0-.042-.103-.347-.155-1.429.993-2.551 2.037-3.674 3.081 0 0 0-.072-.325-.122-2.44 1.678-4.553 3.406-6.666 5.133 0 0 0-.07-.32-.139-1.11.698-1.896 1.463-2.683 2.229 0 0-.01-.142-.299-.2-1.096.67-1.902 1.397-2.709 2.124 0 0 .005-.075-.314-.184-1.775.989-3.231 2.085-4.688 3.182 0 0 .005-.076-.289-.175-.776.324-1.259.748-1.741 1.172 0 0 .052-.115-.271-.167-3.456 1.684-6.59 3.42-9.723 5.155 0 0 .01-.087-.338-.147-6.304 2.563-12.26 5.186-18.216 7.808-14.341 4.473-29.073 5.59-43.995 5.208-4.81-.123-9.626 0-15.138-.364-1.755-.755-2.787-1.233-3.871-1.5a5008.444 5008.444 0 00-27.872-6.803c-2.228-.537-4.49-.934-6.736-1.396z"/><path fill="#F8E2E1" d="M122.89 237.634c-3.36.976-1.603 2.63-.337 3.82 5.018 4.716 10.156 9.304 15.232 13.958 1.435 1.315 2.811 2.694 4.19 4.393-7.46-5.982-15.047-12.153-22.226-18.766-1.726-1.59-1.368-4.174 1.92-5.085 9.223-2.554 18.545-4.87 27.555-8.052 18.05-6.375 35.836-13.504 53.893-19.86 12.37-4.354 24.447-10.37 38.192-9.034 1.408.137 2.825.465 4.17.907 6.14 2.013 11.6 3.729 18.587.457 8.064-3.776 17.497-1.775 25.76 1.12 21.203 7.432 42.088 15.767 63.217 23.417 12.286 4.448 24.798 8.271 38.077 12.662 1.034 4.017-3.644 5.128-6.823 7.67 1.393-2.15 3.12-4.488 5.025-7.071-.731-.28-1.698-.649-3.3-1.088-10.8-3.147-21.111-5.822-31.107-9.38-22.872-8.145-45.5-16.976-68.414-24.996-8.997-3.15-18.325-2.673-27.355 1.206-1.908.82-4.785 1.041-6.58.193-10.734-5.072-21.381-3.922-32.074-.233-32.543 11.228-65.069 22.505-97.602 33.762zM201.998 295.29c2.085.1 4.347.498 6.575 1.035 9.297 2.24 18.587 4.51 27.872 6.802 1.084.268 2.116.746 3.42 1.397-12.935-.57-25.489-4.024-37.867-9.234zM156.02 270.407a415.226 415.226 0 0121.915 12.382c-7.237-3.787-14.512-7.918-21.914-12.382zM299.794 299.83a322.047 322.047 0 0117.915-7.848c-5.596 2.674-11.583 5.283-17.915 7.847zM142.026 260.37a126.202 126.202 0 0110.927 7.41c-3.583-2.136-7.19-4.613-10.927-7.41zM318.388 292.061a100.369 100.369 0 019.395-5.066c-2.75 1.72-5.88 3.362-9.395 5.066zM376.412 252.098a33.92 33.92 0 015.363-5.16c-1.448 1.809-3.234 3.452-5.363 5.16zM341.397 279.077c1.756-1.678 3.87-3.406 6.345-5.082-1.754 1.711-3.87 3.372-6.345 5.082zM178.018 283.401c2.054.74 4.251 1.806 6.682 3.096a52.934 52.934 0 01-6.682-3.096zM370.395 257.11a24.176 24.176 0 014.367-4.153c-1.11 1.439-2.57 2.753-4.367 4.154zM359.381 265.994a28.06 28.06 0 014.4-4.002c-1.12 1.344-2.603 2.607-4.4 4.002zM330.38 286.075c1.104-1.034 2.56-2.13 4.373-3.115-1.103 1.091-2.561 2.071-4.373 3.115zM352.386 271.112c.779-1.002 1.89-2.081 3.364-3.11-.77 1.044-1.9 2.038-3.364 3.11zM365.375 261.09c.794-1.059 1.923-2.185 3.393-3.155-.792 1.134-1.925 2.11-3.393 3.155zM348.37 274.067c.784-.996 1.906-2.04 3.386-3.053-.777 1.022-1.912 2.013-3.386 3.053zM335.36 283.077c.476-.664 1.282-1.392 2.45-2.065-.466.704-1.292 1.352-2.45 2.065zM356.368 268.112c.467-.718 1.26-1.515 2.398-2.167-.46.792-1.266 1.44-2.398 2.167zM153.03 268.346c.88.156 1.89.622 2.916 1.438-.917-.142-1.852-.635-2.917-1.438zM338.361 281.12c.463-.67 1.25-1.435 2.394-2.13-.452.724-1.26 1.379-2.394 2.13zM328.32 287.072c.16-.36.642-.785 1.456-1.106-.156.416-.644.729-1.455 1.106zM364.3 262.033c-.11-.264.042-.616.507-.985.127.287-.06.592-.507.985zM369.31 258.04c-.114-.264.03-.623.493-.994.134.292-.051.596-.494.994zM375.306 253.042c-.112-.271.035-.636.502-1.001.132.302-.056.605-.502 1.001zM382.344 247.041c-.082-.287.132-.68.724-1.077.11.321-.16.646-.724 1.077z"/><path fill="#E08989" d="M123.097 237.967c32.326-11.59 64.852-22.867 97.395-34.095 10.693-3.69 21.34-4.84 32.075.233 1.794.848 4.671.627 6.579-.193 9.03-3.879 18.358-4.355 27.355-1.206 22.913 8.02 45.542 16.85 68.414 24.995 9.996 3.56 20.306 6.234 30.776 9.39-4.07 1.351-8.37 3.107-12.833 3.772-5.676.846-11.484.807-17.942.908-2.914-.75-5.12-1.258-7.788-1.706-5.031-.258-9.6-.576-14.545-1.055-3.751-.38-7.126-.6-10.873-.927-1.143-.122-1.914-.136-3.051-.32-7.439-.64-14.51-1.109-22.048-1.666-10.434-.147-20.402-.282-30.37-.248-18.104.06-36.207.222-54.759.262-9.56.876-18.674 1.831-27.964 2.745-.177-.042-.522.069-.934.025-1.786.1-3.16.245-4.981.408-4.505.647-8.56 1.277-12.958 1.829-2.698-.054-5.055-.03-7.411-.007-10.31 3.969-20.443.607-30.604-.838-1.179-.168-2.221-1.292-3.533-2.306z"/><path fill="#FCF9F8" d="M311.99 260.784c-25.566 9.276-51.747 11.556-78.52 6.805a206.31 206.31 0 01-18.022-4.044c-.304-3-.539-5.577.09-7.923.378-1.41 1.928-3.251 3.25-3.544 10.347-2.289 13.276-.079 14.425 10.361.024.217.008.439-.005-.555.761-2.607 1.697-5.812 3.114-8.977 5.901.046 11.32.053 17.009.337.902 4.097 1.536 7.917 1.9 10.109.894-2.568 2.266-6.51 4.116-10.419 5.932.005 11.386-.023 16.984.168.218 1.11.292 2.003.453 3.956 3.975-6.996 10.032-5.622 15.054-4.861 2.143.324 3.654 4.824 4.877 6.593l1.56-8.786a10.006 10.006 0 01-2.25-.587c2.52-.279 4.998-.263 7.768-.09 2.936 1.608 7.947-1.35 8.335 4.633.183.452.33.685.593 1.291.222 1.455.359 2.515.287 3.78a17.494 17.494 0 00-1.018 1.753zM212.972 263.336c-4.723-1.418-9.447-2.836-14.603-4.753-.817-4.906-.426-8.804 5.105-8.823-.842-1.401-1.553-2.584-1.897-3.678 2.646 1.565 6.937-.572 7.705 4.298 4.807 2.457 5.955 6.685 3.69 12.956z"/><path fill="#F8F4F3" d="M312.357 260.75c-.098-.482.172-.997.78-2.061.563-4.988.85-9.382 7.359-9.546 2.574.011 4.735-.207 6.82.097 1.035.15 2.543 1.135 2.713 1.97.165.813-.907 2.19-1.79 2.835-1.566 1.148-3.4 1.93-5.122 2.865-3.464 1.268-6.928 2.537-10.76 3.84z"/><path fill="#E4969A" d="M201.21 245.993l2.264 3.767c-5.531.019-5.922 3.917-5.47 8.741-.77.21-1.608.003-2.327-.505.09-2.637.902-5.5-.157-7.187-1.762-2.805-13.562-2.297-16.484.162-2.878-1.194-5.756-2.389-8.46-3.998 2.28-1.274 4.383-2.133 6.732-3.006.244-.015.732-.067 1.021.152 2.423.69 4.556 1.16 7.028 1.749 1.042.247 1.746.376 2.782.672 1.799.338 3.266.51 4.764.672.03-.01-.001-.065.297.162 3.221 1.161 5.626.841 7.037-2.312.479.405.725.668.972.931z"/><path fill="#DAB1B4" d="M213.203 263.505c2.034-6.44.886-10.668-3.636-13.231.823-.581 1.6-.804 2.727-.888 2.138.19 3.926.24 6.135.354 1.836.036 3.252.01 4.928 0 .682-.237 1.104-.492 1.621-1.013.113-.64.13-1.015.323-1.639.283-.834.393-1.419.581-2.336.123-1.012.166-1.691.428-2.423.218-.051.651-.164.635-.214-.015-.05-.115-.016-.114.353.343 1.785.685 3.199 1.036 4.949.107.77.206 1.205.382 1.84.236.458.459.632 1.071.895 1.777.336 3.228.499 5.082.725 1.755.127 3.106.19 4.228.429a83.29 83.29 0 01-2.79 1.561l-2.632 9.017c.013.994.029.772.005.555-1.149-10.44-4.078-12.65-14.425-10.361-1.322.293-2.872 2.134-3.25 3.544-.629 2.346-.394 4.923-.471 7.843-.51.363-1.072.286-1.864.04z"/><path fill="#F8F4F3" d="M179.267 251.243c2.69-2.731 14.491-3.24 16.253-.434 1.06 1.688.247 4.55-.09 6.968-5.554-2.032-10.743-4.147-16.163-6.534z"/><path fill="#E4969A" d="M323.5 256.928c1.34-.953 3.173-1.735 4.74-2.883.882-.646 1.954-2.022 1.789-2.835-.17-.835-1.678-1.82-2.713-1.97-2.085-.304-4.246-.086-6.826-.385-.449-.495-.448-.688-.075-.98 4.437-1.048 8.503-1.994 12.822-3.063.865-.761 1.474-1.4 2.084-2.04.197.37.394.739.72 1.295.84 1.047 1.55 1.906 1.92 2.931-2.243 1.129-4.145 2.092-6.046 3.056l.74 1.475 3.247-.469c-4.006 1.962-8.012 3.924-12.401 5.868z"/><path fill="#7C292A" d="M338.302 246.833c-.71-.86-1.422-1.72-1.869-2.628 3.894-1.434 7.525-2.817 11.156-4.2 2.207.508 4.413 1.016 6.84 1.774-1.87 1.065-3.959 1.882-6.629 2.988-1.186.61-1.792.929-2.397 1.248 0 0 .13.019-.251-.236-2.538.181-4.694.617-6.85 1.054zM177.063 243.982a574.508 574.508 0 01-6.647 2.678c-.335.103-.43.187-.574-.055-1.033-.417-1.923-.594-2.813-.77-3.148-1.385-6.296-2.77-9.62-4.439 2.181-.308 4.538-.332 7.47-.006 3.94.487 7.311.545 10.662.841.555.05 1.017 1.14 1.522 1.75z"/><path fill="#F8E2E1" d="M337.96 246.998c2.498-.602 4.654-1.038 7.202-1.284-2.62 1.779-5.631 3.368-8.951 5.152-1.392.35-2.474.507-3.556.663l-.74-1.475c1.901-.964 3.803-1.927 6.046-3.056z"/><path fill="#E4969A" d="M167.28 246.051c.639-.04 1.529.137 2.598.606-.662.066-1.504-.162-2.598-.606z"/><path fill="#F8E2E1" d="M345.721 245.882c.287-.186.893-.505 1.873-.83-.268.23-.911.463-1.873.83z"/><path fill="#FDFEFE" d="M211.945 249.247c-.778.223-1.555.446-2.618.774-.813-4.511-5.104-2.374-7.75-3.939-.615-.352-.861-.615-1.247-1.302.275-1.42.688-2.415 1.102-3.41l-.992-.98c-1.155.953-2.346 1.865-3.456 2.867-1.395 1.258-2.724 2.59-4.082 3.89 0 0 .03.055-.1-.277-1.751-.387-3.373-.443-4.995-.498-.704-.129-1.408-.257-2.497-.82-1.028-2.5-1.67-4.563-2.314-6.627 0 0 .345-.11 1.017-.039 9.754-.85 18.835-1.773 27.917-2.696 18.104-.12 36.207-.28 54.312-.341 9.967-.034 19.935.1 30.71.425 4.921 1.213 9.988-.088 12.3 5.53-.45 2.173-.906 3.948-1.394 5.427-.342-.58-.65-.865-.96-1.15-.186.552-.372 1.104-.647 1.944-.976.574-1.863.86-2.75 1.145-2.478-.016-4.956-.032-7.887.322-1.839.376-3.225.383-4.706.07-2.414-3.34-4.735-6.362-6.295-8.394-3.565 3.091-6.68 5.776-9.768 8.491-.36.316-.573.798-1.32 1.222-5.234.121-10.002.224-15.055.216-.681-.772-1.078-1.434-1.267-2.42.726-2.97 2.1-5.807-1.359-7.556.038.007.02.082-.005-.154-.333-.504-.641-.772-.95-1.04.115.415.229.83.246 1.62-.535 2.728-.973 5.078-1.717 7.461-1.027.4-1.748.767-2.854 1.213-2.775.285-5.167.491-7.738.379-3.192-2.266-6.101-2.51-8.826.214-1.452-.163-2.903-.326-4.8-.832-.616-.559-.811-.753-1.028-.925-.1-.435-.198-.87-.088-1.925-.28-2.09-.767-3.562-1.254-5.033 0 0 .1-.034.005-.087-.432-.134-.648.007-.743.37-.044.679-.087 1.358-.365 2.621-.357 1.168-.48 1.751-.601 2.335-.017.374-.035.749-.387 1.437-.77.526-1.207.737-1.643.948-1.415.027-2.83.053-4.785-.296-2.573-3-4.533-3.46-6.366-.18zM319.026 237.933c.77.014 1.541.028 3.006.324 2.407 1.413 5.352 2.33 5.59 3.714.594 3.455-2.732 2.58-4.824 3.161-1.394.387-2.551 1.631-4.14 2.557-.767.073-1.209.08-1.748-.238-2.052-1.698-4.007-3.072-6.034-4.706-.087-.62-.102-.978.015-1.646 2.8-1.262 5.467-2.214 8.135-3.166m5.103 4.271l-.756-.761-.512.585c.333.154.666.308 1.268.176z"/><path fill="#FCF9F8" d="M318.983 247.623c1.264-.86 2.42-2.104 3.815-2.491 2.092-.58 5.418.294 4.824-3.161-.238-1.383-3.183-2.301-5.218-3.605 3.053.045 6.428.263 10.17 1.054.381 2.22.395 3.867.409 5.515-4.065.946-8.13 1.892-12.832 2.847-.813-.047-.99-.103-1.168-.159z"/><path fill="#F8E2E1" d="M333.237 244.812c-.268-1.525-.282-3.172-.287-5.23 4.578-.093 9.147.225 14.178.483-3.17 1.323-6.8 2.707-10.824 3.952-.59-.506-.786-.875-.983-1.245-.61.64-1.22 1.279-2.084 2.04z"/><path fill="#FCF9F8" d="M318.659 237.762c-2.3 1.123-4.968 2.075-8.02 3.32-.721.303-1.058.314-1.395.324-2.304-5.22-7.37-3.919-11.825-5.043 6.73.291 13.801.76 21.24 1.4z"/><path fill="#F8E2E1" d="M177.308 243.967c-.75-.595-1.212-1.687-1.767-1.736-3.35-.296-6.723-.354-10.321-.764a71.496 71.496 0 0112.372-1.793c.442 1.654.445 2.94.448 4.226 0 0-.488.052-.732.067z"/><path fill="#FCF9F8" d="M211.482 236.11c-8.634 1.003-17.715 1.926-27.292 2.818 8.618-.986 17.731-1.941 27.292-2.817zM178.33 244.12c-.293-1.506-.296-2.792-.29-4.464 1.385-.53 2.758-.675 4.544-.775 1.055 2.108 1.698 4.172 2.388 6.552-2.087-.154-4.22-.624-6.643-1.314z"/><path fill="#DAB1B4" d="M291.002 249.882c1.387-.007 2.773-.014 4.57-.095 1.53.068 2.652.21 2.703.217l-1.56 8.786c-1.223-1.77-2.734-6.269-4.877-6.593-5.022-.761-11.08-2.135-15.054 4.86-.161-1.952-.235-2.845-.457-4.237-.134-.875-.12-1.251.288-1.645 3.033-1.383 5.672-2.748 8.093-4-.148 3.187 3.014 3.043 6.294 2.707zM309.251 241.804c.33-.408.667-.419 1.256-.412.267.375.282.733.373 1.752.123 4.985 2.776 5.34 6.128 4.632.441-.007.883-.014 1.65-.087.503-.01.68.046 1.121.194.263.284.262.477.267.958-6.058.466-6.346 4.86-6.7 9.642-.266-.717-.403-1.777-.671-3.433-.245-.861-.407-1.091-.617-1.288-.318-5.785-5.33-2.827-8.265-4.436.595-.441 1.482-.727 2.72-1.29.692-.356 1.035-.433 1.377-.51.456-1.774.912-3.55 1.361-5.722zM256.995 249.001c.397.662.794 1.324 1.519 2.376.337.769.346 1.147.355 1.525l-3.638 10.45c-.364-2.191-.998-6.01-1.95-10.443-.33-1.064-.342-1.516-.15-2.158.332-.72.462-1.248.592-1.777.439-2.35.877-4.7 1.569-7.405.253-.356.571-.366.571-.366s.019-.075-.011.333c.36 2.76.752 5.113 1.143 7.465z"/><path fill="#F8E2E1" d="M259.347 252.934c-.487-.41-.496-.788-.549-1.446 4.725-.383 9.493-.486 15.1-.559 1.333.107 1.828.185 2.324.263-.015.377-.03.753-.04 1.41-5.45.31-10.903.337-16.835.332zM252.928 250.942c.011.451.023.903.084 1.69-5.37.328-10.789.321-16.69.275.372-.502 1.225-.964 2.723-1.647 1.75-.261 2.855-.301 3.96-.341 2.392-.207 4.784-.413 7.782-.545 1.117.24 1.63.403 2.141.568z"/><path fill="#F8F4F3" d="M312.128 253.96c.14-.001.302.229.462.695-.132-.01-.279-.243-.462-.695z"/><path fill="#FCF9F8" d="M193.2 247.374c1.06-1.527 2.389-2.859 3.784-4.117 1.11-1.002 2.3-1.914 3.456-2.866l.992.978c-.414.996-.827 1.991-1.333 3.269-1.273 3.577-3.678 3.897-6.899 2.736zM188.139 246.54a15.12 15.12 0 014.634.34c-1.368.17-2.835-.002-4.634-.34zM242.826 250.6c-.926.359-2.031.399-3.551.485a72.713 72.713 0 01-4.873-.208c2.323-2.787 5.232-2.543 8.424-.277zM212.294 249.386c1.484-3.419 3.444-2.96 5.596-.022-1.67.262-3.458.212-5.596.022zM226.83 242.468a17.342 17.342 0 011.245 4.329c-.559-1.13-.901-2.544-1.244-4.329zM223.357 249.74c.175-.228.611-.44 1.286-.7-.182.208-.604.463-1.286.7zM225.3 247.088c-.052-.334.07-.917.347-1.752.047.333-.063.918-.346 1.752zM226.31 242.33c-.123-.31.093-.452.54-.268.111.103-.322.216-.54.267zM228.25 249.257c.139-.028.334.166.626.553-.168.08-.391-.095-.627-.553zM276.615 251.175c-.889-.06-1.384-.139-2.252-.265-.09-.453.123-.935.482-1.25 3.088-2.716 6.203-5.4 9.768-8.492 1.56 2.032 3.881 5.054 6.295 8.395-3.186.655-6.348.8-6.2-2.389-2.42 1.253-5.06 2.618-8.093 4.001zM257.203 248.677c-.599-2.028-.99-4.381-1.389-7.149 3.49 1.342 2.115 4.179 1.389 7.15zM253.13 250.75c-.714.027-1.226-.137-1.96-.455.5-.52 1.221-.887 2.248-1.287.175.495.045 1.023-.287 1.743zM307.858 247.231c-.31.372-.653.449-1.257.516-.075-.562.111-1.114.297-1.666.31.285.618.57.96 1.15zM255.839 240.967c.024.236-.294.246-.45.225-.271-.436-.385-.85-.5-1.265.309.268.617.536.95 1.04zM316.91 247.45c-3.254 1.034-5.907.68-5.959-4.045 1.952.974 3.907 2.348 5.96 4.046zM323.995 242.347c-.468-.01-.8-.165-1.134-.319l.512-.585c.252.254.504.508.622.904z"/></svg>