<svg viewBox="0 0 511 489" xmlns="http://www.w3.org/2000/svg"><path fill="#D38382" d="M307.826 329.944s-.217.16-.748.006c-3.77 1.561-7.008 3.276-10.247 4.992 0 0-.226.16-.789.019-8.376 1.871-16.19 3.884-24.003 5.898-5.303.719-10.613 2.044-15.91 1.997-5.977-.054-11.989-1.09-17.898-2.176-4.557-.837-8.979-2.41-13.947-4.067a1544.013 1544.013 0 00-27.794-14.183c-.817-.407-1.89-.3-2.845-.432 0 0-.249.107-.359-.342-1.528-1.167-2.946-1.884-4.363-2.602 0 0 .068-.039.064-.364-1.025-.763-2.045-1.2-3.065-1.639 0 0 .068-.035.059-.36-1.026-.762-2.043-1.2-3.06-1.64 0 0 .069-.036.069-.349-1.36-1.099-2.72-1.885-4.08-2.67 0 0 .088.044.083-.278-1.366-1.12-2.727-1.918-4.088-2.716 0 0 .073-.013.052-.278-.363-.422-.707-.579-1.05-.736 0 0 .083.031.091-.277-1.581-1.82-3.17-3.331-4.898-5.15-6.285-7.273-12.366-14.3-18.625-21.162-1.573-1.725-3.718-2.928-5.6-4.37 0 0 .052-.056.166-.38-1.31-1.756-2.734-3.187-4.158-4.619 0 0 .043-.063.182-.38-1.686-2.723-3.511-5.13-5.337-7.537 0 0 .119.009.138-.3-4.943-7.936-9.96-15.528-14.794-23.234-.579-.924-.163-2.471.177-3.653.642.13.899.185 1.234.535 11.357 8.657 22.632 17.025 33.94 25.348.303.223.964-.04 1.526.277.208.65.266 1.063.5 1.23 14.539 10.382 28.541 21.645 45.333 28.395 3.594 1.444 7.464 2.2 11.337 3.603 6.708 2.427 13.286 4.524 20.185 6.84 6.443.828 12.567 1.438 19.128 2.177 4.143-.02 7.85-.167 11.977-.304 2.816-.361 5.21-.733 7.91-1.08.797-.263 1.29-.553 1.798-.82.014.023.067.022.485-.01 6.044-1.287 11.846-2.068 17.198-4.059 1.814-.675 5.816-.01 6.221-4.034 4.48-.782 8.605-1.186 12.47-2.41 3.74-1.183 7.352-2.967 10.779-4.913 10.205-5.796 20.439-11.607 28.257-21.021 9.81-7.116 19.407-14.093 28.69-21.466 2.717-2.157 4.538-5.441 6.792-8.557.038-.58.053-.812.347-.958.775.365 1.273.644 1.824 1.252.338.924.622 1.52.794 2.445a2979.851 2979.851 0 01-8.77 17.816s-.051-.094-.345-.06c-3.465 4.988-6.635 9.94-9.806 14.893 0 0-.014-.078-.347-.102-1.106 1.352-1.88 2.728-2.653 4.104 0 0 .025-.07-.302-.115-3.778 4.34-7.23 8.724-10.68 13.11 0 0-.066-.065-.343-.078-.415.353-.554.72-.692 1.087 0 0-.024-.07-.342-.103-3.742 3.31-7.25 6.573-10.54 10.043-1.002 1.058-1.404 2.684-2.08 4.05 0 0-.072-.063-.354-.085-.412.351-.541.725-.67 1.098 0 0-.037-.087-.353-.2-1.762 1.35-3.208 2.811-4.653 4.273 0 0-.055-.104-.275-.057-.4.36-.58.673-.761.985 0 0 .006-.082-.247-.04-.414.373-.576.705-.738 1.036 0 0-.004-.072-.276-.059-.419.361-.566.71-.713 1.059 0 0-.018-.07-.3-.072-.417.357-.554.716-.69 1.075 0 0-.032-.08-.351-.166-1.097.684-1.875 1.454-2.653 2.225 0 0-.04-.091-.29-.082-.408.346-.566.683-.725 1.02 0 0-.006-.073-.337-.137-2.425 1.696-4.519 3.455-6.613 5.214 0 0-.044-.086-.369-.126-1.104.656-1.885 1.354-2.665 2.051 0 0-.033-.076-.355-.172-1.096.66-1.871 1.416-2.646 2.172 0 0-.029-.072-.31-.117-.49.295-.702.635-.913.974 0 0-.21.16-.719.019-2.027.947-3.545 2.036-5.063 3.125 0 0-.023-.072-.302-.117-.488.294-.697.633-.907.971z"/><path fill="#E08788" d="M387.078 235.65c-.016.231-.031.463-.483 1.033-7.15-.842-13.875-1.972-20.58-3.21-32.966-6.087-66.085-10.411-99.731-9.441-17.314.499-34.655.234-51.952 1.016-13.442.608-26.902 1.808-40.232 3.638-17.295 2.375-34.47 5.636-51.696 8.516-.256-.055-.513-.11-1.126-.52-.325-.732-.293-1.107-.26-1.483 1.25-.498 2.502-.997 4.34-1.794 3.407-1.18 6.387-1.73 9.026-2.994 25.86-12.389 51.665-24.896 77.485-37.37 3.427-1.345 6.853-2.689 11.137-4.023 1.855.004 2.853.02 3.85-.01 9.26-.276 18.634-1.561 27.055 4.14.966.655 3.315.186 4.508-.573 5.475-3.481 11.494-4.699 17.674-3.7 8.958 1.447 18.103 2.724 26.623 5.658 11.725 4.039 22.941 9.556 34.488 14.602.48.115.849.067 1.456-.03.238-.049.724-.085.724-.085s.213-.112.386.276c.552.477.931.565 1.31.654 0 0-.07.036-.085.355 5.021 2.761 10.058 5.204 15.094 7.646 0 0-.076-.032-.084.29 1.603 1.41 3.135 2.646 4.84 3.558 8.72 4.663 17.484 9.242 26.233 13.85z"/><path fill="#F9E2E2" d="M337.091 208.973c-11.434-4.884-22.65-10.401-34.375-14.44-8.52-2.934-17.665-4.211-26.623-5.658-6.18-.999-12.2.219-17.674 3.7-1.193.759-3.542 1.228-4.508.574-8.421-5.702-17.795-4.417-27.055-4.14-.997.029-1.995.013-3.467.017 8.856-3.497 18.312-3.398 27.336.454 3.705 1.582 6.14 1.825 9.75-.152 7.41-4.058 15.728-2.985 23.557-1.738 19.672 3.134 37.4 11.763 55.133 21.112.219.318-.267.354-.839.352-.793-.028-1.014-.054-1.235-.08z"/><path fill="#F6E6E4" d="M211.456 193.063a9587.624 9587.624 0 01-77.072 37.348c-2.639 1.264-5.62 1.814-8.837 2.706 1.867-1.2 4.148-2.376 6.39-3.622 9.208-5.119 18.171-10.745 27.657-15.28 15.486-7.404 31.294-14.138 47.023-21.026 1.25-.548 2.94-.093 4.839-.126z"/><path fill="#FDDEDE" d="M387.356 235.735c-9.027-4.694-17.791-9.273-26.51-13.936-1.706-.912-3.238-2.148-4.82-3.594 7.182 3.057 14.362 6.421 21.483 9.906 4.732 2.315 9.38 4.803 14.603 7.49.042 8.603-6.188 14.732-10.539 21.744 2.517-5.926 5.403-11.755 8.61-18.12-.138-1.212-.597-1.889-1.056-2.566a24.89 24.89 0 00-1.771-.924z"/><path fill="#F9E2E2" d="M144.93 277.415c1.827 1.092 3.972 2.295 5.545 4.02a483.793 483.793 0 0118.28 21.208c-.439.38-.67.407-.9.434-7.624-8.437-15.247-16.874-22.925-25.662zM120.643 235.26c.342.315.31.69.249 1.345.017 1.539-.399 3.086.18 4.01 4.834 7.706 9.851 15.298 14.765 23.285-3.217-3.465-6.551-7.17-9.506-11.155-2.551-3.44-4.841-7.106-6.916-10.855-1.195-2.162-3.245-4.896 1.228-6.63z"/><path fill="#FDDEDE" d="M193.846 322.314c.754-.184 1.827-.29 2.644.116 9.126 4.545 18.211 9.17 27.399 14.095-9.886-4.416-19.864-9.156-30.043-14.211zM357.397 288.971c3.125-4.279 6.576-8.664 10.38-12.977-3.115 4.338-6.584 8.605-10.38 12.977zM272.465 340.929a529.824 529.824 0 0123.449-6.02c-7.385 2.09-15.204 4.09-23.449 6.02zM371.38 271.961a214.059 214.059 0 019.532-14.774c-2.837 4.86-6.022 9.757-9.533 14.774zM343.394 303.975c.356-1.264.758-2.89 1.76-3.948 3.29-3.47 6.798-6.733 10.575-10.03-3.77 4.656-7.892 9.267-12.335 13.978zM355.944 217.622a163.882 163.882 0 01-14.933-7.353c4.95 2.104 9.869 4.564 14.933 7.353zM297.223 334.987c2.847-1.76 6.085-3.476 9.731-5.09-2.841 1.778-6.09 3.456-9.731 5.09z"/><path fill="#F9E2E2" d="M135.587 264.515c1.967 2.041 3.792 4.448 5.484 7.21-1.963-2.046-3.794-4.445-5.484-7.21z"/><path fill="#FDDEDE" d="M322.424 321.092a48.02 48.02 0 016.296-5.123c-1.74 1.738-3.844 3.395-6.296 5.123zM167.983 303.39c.103-.34.333-.366.91-.44a30.388 30.388 0 015.086 4.837c-1.974-1.129-3.92-2.606-5.996-4.397zM337.378 309.078a23.408 23.408 0 014.35-4.153c-1.106 1.454-2.561 2.761-4.35 4.153z"/><path fill="#F9E2E2" d="M140.933 272.406c1.374 1.092 2.799 2.523 4.117 4.315-1.426-1.084-2.747-2.53-4.117-4.315z"/><path fill="#FDDEDE" d="M309.397 329.054c1.156-1.053 2.674-2.142 4.582-3.145-1.147 1.094-2.684 2.102-4.582 3.145zM368.369 275.963c.457-1.256 1.23-2.632 2.37-3.961-.441 1.311-1.248 2.577-2.37 3.961zM175.042 309.348c1.224.488 2.585 1.286 3.926 2.449-1.276-.47-2.532-1.305-3.926-2.45zM179.037 312.346c1.233.471 2.593 1.257 3.94 2.393-1.28-.46-2.546-1.268-3.94-2.393zM189.023 319.382c1.317.39 2.735 1.107 4.154 2.193-1.35-.376-2.702-1.121-4.154-2.193zM316.374 325.053c.441-.72 1.216-1.477 2.347-2.113-.434.772-1.224 1.425-2.347 2.113zM183.017 315.374c.921.116 1.938.555 2.952 1.354-.954-.104-1.905-.568-2.952-1.354zM330.37 315.082c.448-.704 1.226-1.474 2.356-2.131-.44.763-1.233 1.413-2.356 2.13zM186.017 317.373c.925.116 1.945.554 2.956 1.354-.96-.103-1.91-.567-2.956-1.354zM319.374 323.055c.447-.663 1.228-1.36 2.378-2.033-.435.683-1.24 1.34-2.378 2.033z"/><path fill="#FCF4F3" d="M29.997 260.628c-.67.334-1.485.347-2.71.325.582-.238 1.573-.441 2.71-.325z"/><path fill="#FDDEDE" d="M333.313 313.03c-.133-.3.004-.658.457-1.005.148.322-.02.633-.457 1.004zM315.123 325.975c-.095-.368.116-.708.643-.987.099.379-.119.697-.643.987zM308.132 329.974c-.096-.368.113-.707.636-.986.099.378-.116.697-.636.986z"/><path fill="#FCF4F3" d="M26.655 260.976c.282.116.302.329.304.862-.2-.042-.384-.403-.304-.862z"/><path fill="#FDDEDE" d="M329.29 316.012c-.106-.262.052-.6.507-.963.116.279-.064.584-.508.963zM356.306 290.03c-.132-.31.007-.677.465-1.013.148.34-.023.648-.465 1.013zM334.297 312.015c-.116-.277.031-.626.486-.98.13.299-.046.603-.486.98zM335.286 311.01c-.101-.254.06-.586.516-.954.111.268-.07.572-.516.954zM336.274 310.01c-.085-.231.095-.544.547-.93.087.234-.097.542-.547.93zM173.983 308.288c.267-.107.61.05.973.51-.286.12-.591-.063-.973-.51zM342.316 305.03c-.137-.313-.008-.687.448-1.02.157.347-.012.654-.448 1.02z"/><path fill="none" d="M32.096 280.288c.34-.124.558.104.774.64-.218.03-.515-.17-.774-.64z"/><path fill="#FDDEDE" d="M340.999 209.65c-.298.211-.677.123-1.138-.276.298-.214.677-.119 1.138.276z"/><path fill="#F28A8B" d="M214.99 296.02c-3.744-1.073-7.614-1.829-11.208-3.273-16.792-6.75-30.794-18.013-45.333-28.395-.234-.167-.292-.58-.317-1.51 2.197-1.996 4.207-3.49 6.373-4.705 24.689-13.85 51.49-15.62 78.94-13.84 6.79.441 13.613.596 20.418.533 10.967-.1 21.934-.772 32.897-.692 16.563.121 31.794 5.077 45.54 14.244 3.332 2.222 5.949 5.519 8.895 8.321-7.486 9.427-17.72 15.238-27.925 21.034-3.427 1.946-7.038 3.73-10.779 4.914-3.865 1.223-7.99 1.627-12.718 2.365-1.727.358-2.905 1.284-3.72 1.034-7-2.15-13.573-.663-20.058 1.964.006-.008-.013-.006-.187-.355-6.648-.423-13.122-.496-20.012-.574-.695.012-.973.028-1.593-.145-6.254-.4-12.166-.684-18.08-.761-1.29-.017-2.982 1.426-3.822.97-5.663-3.08-11.46-2.14-17.311-1.13z"/><path fill="#811A19" d="M351.527 266.716c-3.278-2.815-5.895-6.112-9.227-8.334-13.746-9.167-28.977-14.123-45.54-14.244-10.963-.08-21.93.592-32.897.692-6.805.063-13.628-.092-20.417-.532-27.452-1.78-54.252-.01-78.94 13.839-2.167 1.215-4.177 2.71-6.442 4.353-.677.315-1.338.578-1.642.355-11.307-8.323-22.582-16.691-33.94-25.348 17.149-3.175 34.323-6.436 51.618-8.81 13.33-1.83 26.79-3.03 40.232-3.639 17.297-.782 34.638-.517 51.952-1.016 33.646-.97 66.765 3.354 99.732 9.44 6.704 1.239 13.428 2.369 20.557 3.559-1.818 2.778-3.64 6.062-6.355 8.22-9.284 7.372-18.882 14.35-28.691 21.465z"/><path fill="#FAF0EF" d="M215.12 296.35c5.722-1.34 11.518-2.28 17.18.798.84.457 2.533-.986 3.823-.97 5.914.078 11.826.362 18.146 1.078.61 1.061.81 1.617 1.31 3.003l.634-3.168c6.473.072 12.947.145 19.128.565-6.083.347-11.873.347-17.815.347l-1.225 7.05h9.688c-3.707.147-7.413.295-11.559-.046.065-5.354-1.84-7.634-6.985-7.068-2.953.325-5.97.068-8.958.06-3.545-.01-5.05 1.402-3.504 4.972-6.578-2.097-13.156-4.194-19.864-6.62z"/><path fill="#FCF4F3" d="M235.304 303.19c-1.867-3.789-.362-5.202 3.183-5.191 2.988.008 6.005.265 8.958-.06 5.144-.566 7.05 1.714 6.548 6.94-6.122-.25-12.246-.861-18.69-1.69zM266.41 305.063c-3.537-.01-6.653-.01-10.11-.01l1.226-7.05c5.942 0 11.732 0 17.989.002.467.003.486.001.481.436.06 1.871.124 3.307.188 4.744 0 0-.053 0-.369-.044-.81.242-1.306.53-1.8.817-2.395.372-4.79.744-7.606 1.105z"/><path fill="#FAF0EF" d="M276.602 303.152c-.482-1.404-.546-2.84-.611-4.703 6.489-3.062 13.061-4.55 20.062-2.4.815.251 1.993-.675 3.25-1.012.313 4.046-3.689 3.382-5.503 4.057-5.352 1.99-11.154 2.772-17.198 4.058z"/><path fill="#E08788" d="M389.18 236.987c.406.35.865 1.026 1.115 1.91-.493-.39-.777-.986-1.115-1.91z"/><path fill="#FAF0EF" d="M274.319 303.984c.19-.313.685-.6 1.482-.866-.191.312-.685.602-1.482.866z"/><path fill="#FDDEDE" d="M337.204 209.135c.108-.135.33-.109.884-.031-.035.098-.404.146-.884.031z"/><path fill="#D38382" d="M255.796 297.085c.263.776.109 1.546-.217 3.174-.5-1.386-.7-1.942-.967-2.813.211-.333.489-.35 1.184-.36z"/></svg>