<svg viewBox="0 0 510 489" xmlns="http://www.w3.org/2000/svg"><path fill="#D28383" d="M295.179 314.828c-3.114.732-6.227 1.465-10.206 2.182-2.692.04-4.568-.16-6.336.188-18.561 3.638-36.644 1.425-54.481-4.216-5.486-1.735-11.017-3.326-16.527-4.984 0 0-.298.106-.428-.335-6.581-4.079-13.02-7.738-19.486-11.344-3.237-1.805-6.528-3.514-9.794-5.266 0 0 .077-.031.113-.346-1.27-1.092-2.576-1.868-3.882-2.644-2.883-2.665-5.766-5.33-9.023-8.454-2.984-2.487-5.594-4.515-8.204-6.542 0 0 .066-.062.082-.346-.354-.414-.724-.544-1.094-.674 0 0 .073-.033.092-.322-.352-.418-.722-.548-1.092-.678 0 0 .074-.034.093-.322-.352-.418-.722-.548-1.093-.678 0 0 .074-.034.093-.321-.352-.419-.722-.55-1.093-.68 0 0 .073-.032.09-.319-.351-.42-.72-.554-1.088-.687 0 0 .073-.032.138-.37-1.001-1.098-2.068-1.855-3.135-2.613 0 0 .062-.048.063-.322-.355-.416-.71-.559-1.067-.701 0 0 .071-.019.07-.296-.358-.42-.714-.562-1.069-.704 0 0 .07-.02.068-.297-.357-.419-.712-.56-1.068-.703 0 0 .07-.02.069-.296-.358-.42-.714-.562-1.07-.704 0 0 .07.03.131-.299-2.665-2.442-5.392-4.555-8.12-6.668 0 0 .066-.063.084-.347-.352-.415-.723-.546-1.093-.677 0 0 .07-.03.068-.305-.358-.419-.715-.562-1.072-.705 0 0 .071-.018.061-.291-.36-.419-.712-.565-1.063-.71 0 0 .076.038.105-.282-4.151-4.222-8.332-8.123-12.868-12.355 4.261-1.27 8.054-2.402 11.798-3.188-1.188 1.135-2.327 1.924-3.38 2.655 1.277.45 2.376.838 3.706 1.476 12.47 6.446 24.709 12.642 37.178 19.056 2.397 1.381 4.473 2.816 6.771 3.58.997.332 2.453-.715 3.71-.912.01.225.03.674.002 1.065.806 1.31 1.465 2.587 2.501 3.09 5.472 2.658 11.039 5.12 16.884 7.845 5.488 1.94 10.632 3.79 15.847 5.412 32.691 10.164 65 9.51 97.21-3.583 5.343-2.221 10.253-4.6 15.318-6.583 3.144-1.23 3.892-3.18 3.35-6.08 4.198-.585 8.08-1.241 11.956-1.92.061-.01.072-.302.443-.521a2401.952 2401.952 0 0036.73-20.99c1.923.285 3.643.84 5.612 1.475.065-1.103.13-2.194.55-3.27 1.438.539 2.522 1.061 3.709 1.633l-1.908 3.606s.01-.13-.29-.129c-2.816 3.089-5.331 6.177-7.847 9.265.068.288-.03.498-.716.738-.67.31-.916.512-1.163.714a451.965 451.965 0 01-6.392 6.955c-.546.797-.637 1.195-.727 1.592.082.276-.004.482-.814.567-3.41 3.344-6.265 6.738-9.12 10.132 0 0-.058-.067-.351-.099-.419.35-.544.73-.67 1.111 0 0-.036-.08-.346-.202-3.759 3.317-7.208 6.757-10.658 10.196 0 0-.026-.07-.311-.08-.421.355-.557.721-.693 1.087 0 0-.025-.075-.352-.165-1.775 1.396-3.222 2.883-4.67 4.369.079.31-.022.543-.833.643-.753-.04-.976-.022-1.54.066-2.093 1.743-3.846 3.415-5.599 5.087 0 0-.033-.077-.36-.163-1.765 1.017-3.2 2.118-4.636 3.22 0 0-.036-.075-.373-.149-5.82 2.697-11.34 5.395-16.768 8.27-2.72 1.441-5.269 3.205-7.895 4.822 0 0 .008-.072-.35-.148-3.733 1.58-7.107 3.233-10.481 4.888z"/><path fill="#F7E2E1" d="M389.526 242.378c.18-1.22.753-2.301 1.516-3.743-1.187-.572-2.27-1.094-4.055-1.75-27.597-10.74-54.574-21.148-81.356-32.035-15.172-6.167-29.96-8.096-45.111-.102-1.893 1-5.387.69-7.331-.425-9.898-5.67-20.507-6.1-30.965-3.547-31.14 7.6-59.826 21.824-89.23 34.087l-11.847 3.532c4.536 4.232 8.717 8.133 12.845 12.39-4.43-2.92-8.957-6.03-13.043-9.638-.68-.601.064-4.596.978-4.964 27.078-10.883 54.213-21.627 81.449-32.11 11.097-4.271 22.608-7.492 34.658-5.94 5.445.7 10.683 2.944 16.048 4.365 1.68.445 3.843 1.247 5.15.6 16.189-8.008 31.954-6.117 48.153.493 27.179 11.092 54.661 21.44 81.98 32.194 1.381.544 3.36 1.97 3.367 2.996.007 1.24-1.795 2.49-3.206 3.597zM207.85 308.32c5.289 1.336 10.82 2.927 16.306 4.662 17.837 5.641 35.92 7.854 54.48 4.216 1.77-.347 3.645-.148 5.922-.16-5.017 1.019-10.45 2.494-15.96 2.884-21.114 1.497-41.21-2.903-60.748-11.602z"/><path fill="#FCFAF9" d="M157.196 454.993c-5.49-3.509-11.616-5.857-14.6-12.781 1.65 0 3.2-.487 3.967.082a149.1 149.1 0 0111.276 9.239c.53.48-.14 2.281-.643 3.46z"/><path fill="#F7E2E1" d="M178.04 291.38c3.147 1.425 6.438 3.134 9.675 4.94 6.467 3.605 12.905 7.264 19.353 11.256-9.636-5.053-19.272-10.46-29.027-16.195zM306.398 310.042c2.238-1.571 4.787-3.335 7.507-4.775 5.427-2.876 10.948-5.574 16.807-8.284-7.724 4.379-15.825 8.696-24.314 13.06z"/><path fill="#FBF1F0" d="M350.365 282.954c3.125-3.312 6.574-6.752 10.367-10.04-3.119 3.404-6.58 6.659-10.367 10.04zM362.383 271.968c2.537-3.287 5.392-6.681 8.622-10.027-2.518 3.34-5.41 6.63-8.622 10.027z"/><path fill="#F7E2E1" d="M381.29 251.18c2.223-2.891 4.738-5.98 7.611-9.04-2.2 2.967-4.758 5.906-7.61 9.04zM137.025 254.39a66.654 66.654 0 017.995 6.373c-2.69-1.78-5.293-3.916-7.995-6.374zM157.032 273.397c2.503 1.697 5.113 3.725 7.774 6.074-2.521-1.7-5.095-3.721-7.774-6.074zM295.514 314.699c3.04-1.526 6.413-3.18 10.178-4.741-3.02 1.599-6.431 3.105-10.178 4.74zM336.393 294.053c1.402-1.637 3.155-3.309 5.265-4.746.37.438.382.642.393.845-1.769 1.29-3.538 2.578-5.658 3.901z"/><path fill="#FBF1F0" d="M344.338 288.155a26.991 26.991 0 014.38-4.212c-1.112 1.432-2.584 2.754-4.38 4.212z"/><path fill="#F7E2E1" d="M331.397 297.084c1.084-1.04 2.52-2.142 4.319-3.136-1.08 1.097-2.524 2.086-4.319 3.136zM174.193 288.392c1.265.447 2.57 1.223 3.818 2.35-1.298-.44-2.537-1.23-3.818-2.35zM149.024 265.353c.96.462 2.028 1.22 3.01 2.35-1.024-.435-1.964-1.244-3.01-2.35z"/><path fill="#FBF1F0" d="M361.308 273.022c-.138-.316-.013-.697.446-1.028.162.354-.01.659-.446 1.028z"/><path fill="#F7E2E1" d="M144.982 261.299c.288-.123.644.02.992.474-.313.138-.619-.036-.992-.474z"/><path fill="#FBF1F0" d="M342.324 290.048c-.284-.1-.296-.303-.324-.812.205-.323.428-.34.977-.287.092.378-.144.687-.653 1.1zM372.243 261.199c-.154-.22-.063-.618.33-1.109.174.248.044.59-.33 1.109z"/><path fill="#F7E2E1" d="M133.984 251.294c.277-.117.629.03.982.484-.301.132-.605-.045-.982-.484z"/><path fill="#FBF1F0" d="M349.303 284.023c-.131-.3.005-.667.461-1.012.15.33-.022.638-.461 1.012z"/><path fill="#F7E2E1" d="M145.984 262.298c.287-.122.642.02.99.475-.312.137-.616-.037-.99-.475zM155.971 272.315c.312-.138.682-.008 1.017.447-.342.157-.65-.011-1.017-.447zM154.971 271.315c.312-.138.682-.008 1.017.447-.342.157-.65-.011-1.017-.447zM153.971 270.315c.313-.138.683-.008 1.018.447-.344.157-.652-.011-1.018-.447zM152.971 269.314c.313-.137.683-.007 1.018.448-.344.157-.652-.011-1.018-.448zM151.971 268.31c.312-.137.68-.003 1.016.454-.342.154-.65-.016-1.016-.455zM135.972 253.312c.314-.138.685-.007 1.018.45-.345.156-.653-.013-1.018-.45zM146.984 263.298c.286-.122.642.02.99.475-.312.138-.616-.037-.99-.475zM147.986 264.296c.284-.12.64.023.988.478-.31.136-.613-.04-.988-.478zM134.981 252.297c.288-.12.645.022.991.477-.314.137-.618-.038-.99-.477zM379.38 252.821c-.015-.194.232-.396.714-.705.006.162-.222.43-.713.705z"/><path fill="#E08888" d="M132.945 235.207c29.453-12.607 58.14-26.83 89.279-34.431 10.458-2.553 21.067-2.124 30.965 3.547 1.944 1.114 5.438 1.424 7.33.425 15.152-7.994 29.94-6.065 45.112.102 26.782 10.887 53.76 21.295 81 32.02.282 1.208.217 2.3.152 3.402-1.97-.635-3.689-1.19-6.066-1.487a551.448 551.448 0 01-24.558-1.215c-20.39-1.44-40.754-3.62-61.167-4.245-24.278-.745-48.598-.188-72.9-.168-3.326.003-6.662.034-9.978.268-26.36 1.858-52.716 3.768-79.074 5.662l-3.475-1.225c1.053-.73 2.192-1.52 3.38-2.655z"/><path fill="#821A1A" d="M133.27 239.338c26.128-2.145 52.484-4.055 78.844-5.913 3.316-.234 6.652-.265 9.978-.268 24.302-.02 48.622-.577 72.9.168 20.413.626 40.778 2.805 61.167 4.245 7.962.562 15.934.985 24.355 1.484-11.61 6.9-23.674 13.787-36.317 20.481-3.2-1.239-5.744-2.588-8.455-3.283-23.218-5.959-46.741-8.534-70.696-6.103-3.3.335-6.696.95-9.93.528-16.787-2.188-33.571-2.055-50.236.508-10.44 1.605-20.692 4.433-31.392 6.735-1.333.1-2.3.178-3.27.256-12.238-6.196-24.478-12.392-36.947-18.838z"/><path fill="#F08A8B" d="M173.851 257.898c10.337-2.28 20.59-5.108 31.03-6.713 16.664-2.563 33.448-2.696 50.236-.508 3.233.421 6.629-.193 9.93-.528 23.954-2.431 47.477.144 70.695 6.103 2.71.695 5.254 2.044 8.119 3.342.21.412.198.703.137.714-3.877.679-7.758 1.335-12.397 1.9-4.25-.088-7.824-.53-11.207.08-2.33.421-4.397 2.301-6.072 3.242-.975-.545-2.653-1.485-4.744-2.485-1.793.035-3.173.13-4.942.145-5.46 1.898-10.66 1.639-15.93.992-1.177-.144-2.456.549-4.025.829-.778.054-1.22.134-2.017.154-1.492.878-2.626 1.818-3.713 2.774.047.016-.017-.06-.315-.21a265.737 265.737 0 00-6.116-2.29c-3.445-.075-6.46-.008-9.844-.056-2.784.417-5.2.95-7.795 1.132-2.256-.72-4.325-1.145-6.412-1.446-6.484-.937-12.986 1.986-19.778-.326-5.03.17-9.75.599-14.582 1.138-.11.109.103-.117.036-.455-1.774-.86-3.482-1.384-5.6-2.025-2.113-.118-3.817-.12-5.89-.207-2.509-.3-4.658-.437-6.782-.743-4.952-.715-9.768-4.049-14.914-.715 0 0-.02-.449-.243-.932-2.437-1.29-4.65-2.098-6.865-2.906z"/><path fill="#FCFAF9" d="M228.999 265.001c6.484 2.054 12.986-.869 19.47.068 2.087.301 4.156.725 6.39 1.912.307 3.823.456 6.829.605 9.834l1.91-.09v-7c2.464-1.838 4.067-3.032 5.67-4.226 3.015-.068 6.03-.135 9.515.26 3.355 3.25 4.839 3.667 6.375 2.12 0 0 .064.076.405.084 1.455-.908 2.569-1.822 3.682-2.737.44-.08.882-.161 1.938.063 6.449.86 12.597.973 13.739 9.22l.481-6.448 5.846-4.79c1.38-.096 2.76-.191 4.567.143 2.89 3.718 5.522 6.962 3.414 11.487-31.842 13.084-64.15 13.737-96.842 3.573a159.225 159.225 0 01-15.848-5.83c.696-3.53 1.702-6.447 2.71-9.363 1.702 0 3.406.002 5.559.47 2.175.983 3.9 1.498 5.627 2.013 0 0-.212.226-.123.502.51.714 1.014 1.585 1.341 1.523 4.537-.854 9.05-1.837 13.569-2.788z"/><path fill="#FBF1F0" d="M313.373 274.89c1.741-4.514-.892-7.758-3.368-11.416 1.664.571 3.342 1.51 4.317 2.056 1.675-.94 3.742-2.82 6.072-3.242 3.383-.61 6.957-.168 10.89-.154 1.3 2.994.552 4.944-2.592 6.174-5.065 1.983-9.975 4.362-15.319 6.583zM202.655 263.194c-.637 3.003-1.643 5.92-2.65 9.255-5.533-2.112-11.1-4.574-16.572-7.232-1.036-.503-1.695-1.78-2.5-3.09 5.172-3.725 9.988-.391 14.94.324 2.124.306 4.273.443 6.782.743z"/><path fill="#F7E2E1" d="M173.488 257.92a62.665 62.665 0 017.218 2.66c-1.033.679-2.489 1.726-3.486 1.395-2.298-.765-4.374-2.2-6.77-3.58.737-.297 1.705-.375 3.038-.475z"/><path fill="#FBF1F0" d="M304.636 263.19c-1.244 1.418-2.876 2.756-5.457 4.871l-.481 6.447c-1.142-8.246-7.29-8.359-13.402-9.192.954-.585 2.233-1.278 3.41-1.134 5.27.647 10.47.906 15.93-.992zM262.676 265.383c-1.235 1.31-2.838 2.504-5.303 4.341v7l-1.91.091c-.148-3.005-.297-6.01-.425-9.482 2.438-1 4.854-1.533 7.638-1.95zM228.69 264.743c-4.21 1.21-8.723 2.192-13.26 3.046-.327.062-.83-.81-1.231-1.632 4.741-.815 9.463-1.244 14.492-1.414zM278.636 267.73c-1.238 1.696-2.722 1.28-5.647-1.828 1.757.345 3.553 1.011 5.647 1.827zM214.145 265.426c-1.66-.177-3.385-.692-5.15-1.557 1.668.173 3.376.696 5.15 1.557zM282.664 265.165c-.756.976-1.87 1.89-3.371 2.781.745-.963 1.88-1.903 3.37-2.781z"/></svg>