<svg viewBox="0 0 901 859" xmlns="http://www.w3.org/2000/svg"><path fill="#D48282" d="M686.103 417.914c3 1.883 1.03 2.384-.77 3.352-12.385 6.657-24.707 13.43-37.062 20.14-35.617 19.35-73.176 34.076-111.612 46.672-12.63 4.139-25.432 7.747-38.878 7.896-10.67.118-21.343.012-32.804-.245-10.492-.138-20.195-.024-29.897.09-.734.065-1.467.13-3.037.204-3.949-.005-7.062-.052-10.174-.024-5.329.05-10.657.145-15.985.221-.438-.088-.876-.176-1.93-.558-6.758-1.54-12.892-2.827-19.054-3.964-.537-.1-1.255.783-1.89 1.21a63.86 63.86 0 00-2.08-1.135 21.1 21.1 0 00-3.037-.654c-.431-.049-.862-.098-1.796-.524-2.723-.743-4.943-1.109-7.164-1.475-10.367-2.877-21.011-5.018-31.04-8.794-17.702-6.664-35.155-14.037-52.473-21.66-13.892-6.114-27.587-12.73-41.07-19.703-10.083-5.213-19.711-11.312-29.487-17.11-1.68-.996-4.435-2.036-.918-4.422 6.43.493 12.288 1.068 18.125.899 22.596-.654 45.19-2.289 67.776-2.153 26.408.159 52.824 1.473 79.205 2.889 16.239.871 32.45 2.58 48.613 4.446 15.285 1.764 30.452 1.793 45.735-.023 17.973-2.136 35.99-4.018 54.035-5.387 15.4-1.168 30.867-1.436 46.303-2.14 5.472-.25 10.953-1.04 16.404-.846 22.747.809 45.484 1.884 68.224 2.9 4.144.184 8.283.794 12.42.76 5.108-.043 10.212-.553 15.318-.862z"/><path fill="#E18888" d="M685.941 417.588c-4.944.635-10.048 1.145-15.156 1.188-4.137.034-8.276-.576-12.42-.76-22.74-1.016-45.477-2.091-68.224-2.9-5.45-.194-10.932.596-16.404.846-15.436.704-30.903.972-46.303 2.14-18.045 1.369-36.062 3.25-54.035 5.387-15.283 1.816-30.45 1.787-45.735.023-16.162-1.865-32.374-3.575-48.613-4.446-26.38-1.416-52.797-2.73-79.205-2.889-22.586-.136-45.18 1.5-67.776 2.153-5.837.169-11.695-.406-17.777-.93a2450.744 2450.744 0 0155.982-22.384c10.954-4.226 22.084-7.994 33.065-12.15 24.873-9.415 49.747-18.828 74.533-28.464 16.323-6.346 33.231-8.984 50.504-7.111 6.305.683 12.374 4.31 18.33 7.071 2.456 1.139 4.106 1.307 6.5-.051 4.201-2.385 8.55-4.68 13.103-6.238 10.692-3.659 21.9-3.436 32.448-.498 18.21 5.073 36.245 10.954 53.987 17.49 30.517 11.244 60.792 23.152 91.09 34.982 14.076 5.496 27.97 11.462 42.106 17.541zM383.427 492.973c.218-.492.936-1.374 1.473-1.275 6.162 1.137 12.296 2.424 18.725 3.89-6.402-.705-13.092-1.627-20.198-2.615zM435.535 495.894c9.247-.19 18.95-.303 29.006-.228-9.281.226-18.916.265-29.006.228zM406.111 496.596c5.1-.452 10.429-.548 15.758-.597 3.112-.028 6.225.02 9.812.093-2.014.357-4.498.864-6.99.906a230.917 230.917 0 01-18.58-.402zM369.114 489.456c2.04.03 4.26.396 6.663 1.072-2.038-.038-4.26-.387-6.663-1.072zM378.034 491.44c.685-.194 1.511-.067 2.605.227-.643.144-1.554.12-2.605-.226z"/></svg>