<svg viewBox="0 0 510 490" xmlns="http://www.w3.org/2000/svg"><path fill="#D38282" d="M346.967 258.14c-4.746 4.904-9.493 9.809-14.882 14.92-1.773 1.497-2.903 2.787-4.033 4.077 0 0-.006-.088-.294-.103-.424.36-.561.734-.698 1.109 0 0-.001-.085-.297-.114-.43.352-.563.733-.697 1.115 0 0-.015-.072-.322-.218-4.103 2.973-7.9 6.093-11.697 9.212 0 0 0-.072-.333-.164-2.447 1.33-4.56 2.75-6.674 4.172 0 0 .002-.07-.3-.204-1.476.615-2.649 1.364-3.822 2.112 0 0 .081-.087-.18-.093-11.276 2.931-22.291 5.86-33.294 8.833-.424.114-.734.648-1.097.986-.21.067-.42.134-1.264-.157-1.122-.446-1.616-.636-2.096-.606-21.271 1.324-41.8-1.25-60.882-11.508-.428-.23-.956-.27-1.437-.4 0 0 .25-.253.219-.115-.359.155-.663.108-.944-.006-2.389-1.232-4.778-2.463-7.613-4.22-3.112-2.246-5.777-3.966-8.442-5.686 0 0 .067-.015.111-.33-.82-1.3-1.629-2.344-2.56-3.262-8.491-8.37-17.076-16.647-25.48-25.102-4.507-4.533-8.716-9.364-13.388-14.416 1.798-1.304 3.1-2.25 4.517-2.848 2.294 1.446 4.396 3.213 6.676 3.487 3.503.421 7.13-.183 10.794-.06a1011.728 1011.728 0 0028.643 15.355c.995.513 2.5.033 3.859.357 1.352 1.318 2.497 2.526 3.896 3.232 13.337 6.736 27.379 11.105 42.27 12.857 14.557 1.713 29 .954 42.772-3.785 8.149-2.805 15.52-7.869 23.59-11.844 2.549-.981 4.807-1.932 6.94-3.109 8.082-4.46 16.122-8.992 24.59-13.46 4.282.861 8.23 2.068 9.792-.66 4.055-.382 6.708-.632 9.683-.769.054 1.446.003 2.875-.533 4.09-.813 1.843-1.962 3.537-2.969 5.295 0 0-.019-.066-.305-.07-.44.365-.592.732-.745 1.1 0 0 .02-.078-.286-.185-3.8 3.657-7.294 7.42-10.788 11.184z"/><path fill="#F7E4E4" d="M359.407 245.989c.69-1.637 1.84-3.33 2.653-5.173.536-1.216.587-2.645.467-4.42-1.445-1.481-2.352-2.758-3.578-3.525-21.595-13.497-43.132-27.093-64.895-40.316-11.645-7.075-23.73-8.044-36.025-.91-1.787 1.038-5.06 1.107-6.918.173-12.51-6.287-24.9-5.49-37.078.37-23.54 11.328-44.267 27.023-65.058 42.59l-4.404 3.194c4.672 5.052 8.88 9.883 13.387 14.416 8.405 8.455 16.99 16.732 25.481 25.102.931.918 1.74 1.961 2.553 3.295-3.499-2.314-7.28-4.643-10.332-7.7-10.075-10.1-19.897-20.452-29.792-30.73-2.955-3.068-2.615-6.245.919-8.666 17.922-12.282 35.655-24.855 53.861-36.7 11.52-7.496 24.09-12.746 38.428-10.96 2.365.295 5.104.365 6.94 1.613 5.588 3.796 10.824 3.267 16.456.257 11.447-6.116 22.615-2.95 32.647 2.923 20.907 12.24 41.288 25.379 61.88 38.157.685.425 1.334.919 1.96 1.43 8.788 7.182 8.795 7.35.448 15.58z"/><path fill="#EEDBDC" d="M202.643 291.497a1.546 1.546 0 011.462.012c19.082 10.257 39.61 12.832 60.882 11.508.48-.03.974.16 1.77.545-22.473 3.296-44.166.44-64.114-12.065z"/><path fill="#F7E4E4" d="M268.746 303.826c-.036-.384.274-.918.698-1.032 11.003-2.973 22.018-5.902 33.337-8.793-10.04 6.667-21.785 8.45-34.035 9.825zM347.325 258.092c3.136-3.716 6.63-7.48 10.469-11.126-3.14 3.771-6.626 7.425-10.469 11.126zM314.407 288.085c3.437-3.066 7.234-6.186 11.371-9.144-3.443 3.138-7.227 6.114-11.371 9.144zM186.012 281.405c2.54 1.397 5.206 3.117 8.043 5.13a84.032 84.032 0 01-8.043-5.13zM307.404 292.086a44.647 44.647 0 016.346-4.111c-1.749 1.412-3.865 2.732-6.346 4.111zM328.403 277.08c.779-1.233 1.91-2.523 3.359-3.93-.79 1.213-1.898 2.543-3.359 3.93zM303.266 293.965c.825-.66 1.998-1.408 3.508-2.018-.828.734-1.995 1.33-3.508 2.018zM327.323 278.057c-.126-.289.011-.663.48-1.025.148.321-.034.63-.48 1.025zM326.327 279.057c-.127-.295.006-.676.478-1.028.153.334-.032.638-.478 1.028z"/><path fill="#EEDBDC" d="M202.22 291.335c.004-.233.308-.186.795-.217-.066.179-.292.371-.794.217z"/><path fill="#F7E4E4" d="M358.297 247.04c-.103-.268.05-.635.523-.998.125.303-.072.601-.523.999z"/><path fill="#E08788" d="M149.088 235.124c20.678-15.913 41.406-31.608 64.945-42.936 12.178-5.86 24.568-6.657 37.078-.37 1.857.934 5.13.865 6.918-.172 12.296-7.135 24.38-6.166 36.025.91 21.763 13.222 43.3 26.818 64.895 40.315 1.226.767 2.133 2.044 3.255 3.412-2.586.579-5.24.829-9.294 1.21-1.563 2.73-5.51 1.522-10.193.653-14.973-3.566-29.269-6.618-43.26-10.712-21.998-6.438-44.154-10.406-66.865-5.175-14.553 3.352-28.771 8.13-43.255 11.814-7.494 1.906-15.239 2.823-22.87 4.186-3.574.17-7.2.773-10.703.352-2.28-.274-4.382-2.041-6.676-3.487z"/><path fill="#811A19" d="M166.558 238.55c7.54-1.654 15.285-2.57 22.779-4.477 14.484-3.684 28.702-8.462 43.255-11.814 22.71-5.23 44.867-1.263 66.865 5.175 13.991 4.094 28.287 7.146 42.847 10.674-7.654 4.514-15.694 9.047-23.775 13.506-2.134 1.177-4.392 2.128-7.167 2.86-6.642-2.934-12.504-6.301-18.816-8.023-22.086-6.026-44.565-5.51-66.829-1.471-9.155 1.66-17.845 5.883-26.746 8.94-1.27.02-2.775.499-3.77-.014a1011.69 1011.69 0 01-28.643-15.356z"/><path fill="#F0898A" d="M199.06 254.263c8.812-3.4 17.502-7.623 26.657-9.283 22.264-4.039 44.743-4.555 66.83 1.47 6.31 1.723 12.173 5.09 18.467 7.952-7.496 4.296-14.867 9.36-23.016 12.165-13.772 4.74-28.215 5.498-42.772 3.785-14.891-1.752-28.933-6.12-42.27-12.857-1.399-.706-2.544-1.914-3.896-3.232z"/></svg>