<svg viewBox="0 0 900 862" xmlns="http://www.w3.org/2000/svg"><path fill="#BFBFC1" d="M901 1.5C601.304 2 301.608 2 1.456 2c-.29-.333-.14-.944.047-.956C2.83.961 4.167 1 5.5 1c298.5 0 597 0 895.5.5z"/><path fill="#D38282" d="M688.786 420.984c-8.703 10.639-17.417 21.27-26.106 31.92-7.144 8.755-13.849 17.913-21.491 26.208-9.736 10.567-20.021 20.653-30.427 30.572-17.545 16.723-38.761 27.825-60.367 38.16-17.062 8.162-34.828 14.555-53.447 18.059-17.903 3.368-36.104 2.653-54.232 3.26-36.127 1.21-69.248-8.657-100.158-26.238-13.572-7.72-26.216-17.224-38.644-26.75-9.635-7.385-18.783-15.573-27.241-24.283-11.924-12.279-22.977-25.4-34.468-38.103-7.528-8.322-15.188-16.525-22.747-24.82-1.194-1.31-2.168-2.823-3.144-4.841 1.665-.476 3.302-.607 4.781-.183 5.125 1.467 10.125 3.43 15.305 4.63 5.225 1.21 10.607 1.736 16.082 2.821 14.953 9.695 29.745 19.13 44.814 28.755a4201.65 4201.65 0 0019.276 10.605c.67.336 1.114.554 1.887 1.002 2.896 1.746 5.445 3.29 8.03 4.774 19.395 11.14 40.098 18.258 62.852 20.343 1.725.135 3.058.186 4.618.429.8.246 1.372.299 2.36.453 2.672.198 4.927.295 7.368.597.542.26.896.314 1.562.447 1.353.028 2.395-.023 3.775.064 1.547.18 2.756.221 4.142.31.177.049.528-.053.801.155 1.161.26 2.05.312 3.352.465 1.837.102 3.258.103 5.05.18 1.124.047 1.878.017 2.958.062.771.048 1.216.021 1.984.2 2.447.266 4.57.324 7.145.473 4.146.08 7.84.068 11.997.138 6.47-.001 12.478-.083 18.917-.093 2.162-.056 3.893-.183 6.003-.186 2.135-.09 3.89-.303 6.018-.473 1.118-.019 1.864-.082 3.075-.09 9.152-.638 17.838-1.332 26.935-1.992 1.495-.075 2.582-.184 3.97-.235.855-.177 1.407-.411 2.327-.599 1.343-.064 2.32-.174 3.73-.24 7.815-1.266 15.199-2.577 22.923-3.873.785-.074 1.23-.163 1.91-.233.238.02.678-.165.965-.123.788-.197 1.288-.435 2.195-.672 10.179-3.659 19.951-7.32 30.003-11.002.724-.328 1.17-.634 1.958-1.005 2.454-1.392 4.564-2.72 6.995-4.063.823-.391 1.324-.769 2.16-1.202 5.84-3.37 11.379-6.632 16.824-10.043 1.043-.653 1.717-1.893 2.77-3.146 1.715-.926 3.403-1.316 4.699-2.25 10.038-7.234 20.057-14.497 29.942-21.939 2.23-1.678 3.908-4.09 6.248-6.2 9.933.754 18.884-1.22 27.57-5.156 4.558-2.066 9.453-3.39 14.196-5.049z"/><path fill="#E08888" d="M688.853 420.615c-4.81 2.028-9.705 3.352-14.263 5.418-8.686 3.935-17.637 5.91-27.976 5.148-3.106-.259-5.428-.399-7.684-.861a1255.427 1255.427 0 01-26.487-5.735 618.172 618.172 0 00-21.68-4.473c-.741.01-1.164-.05-2.017-.103-20.495-2.605-40.497-6.621-60.637-7.504-31.048-1.361-62.19-.754-93.292-.64-21.628.079-43.3-.008-64.865 1.357-17.502 1.108-34.885 4.197-52.288 6.636-1.524.214-2.81 2.125-4.403 3.035-1.097-.38-2-.547-3.218-.899-5.124.786-9.933 1.758-15.189 2.83-2.574.353-4.71.548-6.827.868-11.905 1.798-23.805 3.627-35.706 5.445-5.314-.826-10.696-1.352-15.92-2.563-5.181-1.2-10.18-3.162-15.306-4.63-1.479-.423-3.116-.292-4.917-.13-4.36-3.36-4.232-4.365.963-6.439 18.11-7.23 36.275-14.33 54.369-21.604 19.575-7.87 38.97-16.202 58.668-23.744 23.916-9.156 47.341-19.88 72.541-25.256 16.652-3.552 33.018-4.131 46.447 9.36.534.537 2.544.088 3.59-.444 6.17-3.144 11.928-7.72 18.449-9.413 10.993-2.856 22.474-2.456 33.292 1.613 19.829 7.457 39.485 15.373 59.245 23.013 19.162 7.41 38.376 14.687 57.548 22.069 21.609 8.32 43.202 16.677 64.777 25.082 1.073.418 1.907 1.449 2.786 2.564z"/><path fill="#FDF9F8" d="M11.004 244.765c-.203-4.212-.412-7.96-.62-11.71l1.107-.081 2.348 23.414-.838.157c-.668-3.772-1.335-7.544-1.997-11.78z"/><path fill="#FBEDEA" d="M890.773 249.477c.599-6.113 1.019-11.812 1.438-17.51.428.045.856.09 1.284.137l-2.336 23.566-1.293-.137c.243-1.88.485-3.761.907-6.056z"/><path fill="#FDF9F8" d="M388.949 496.789c-22.362-2-43.065-9.117-62.46-20.257-2.585-1.484-5.134-3.028-7.822-5.111.62-5.562 3.09-8.005 8.386-6.412.588.177 1.287-.02 2.321.04 6.166 1.708 11.945 3.332 17.828 5.356.714 4.363 1.324 8.325 2.134 13.584.966-5.546 1.693-9.719 2.822-14.038 7.903.353 15.414.738 22.89 1.475 1.145.112 2.13 1.85 3.067 3.267.238 6.276.596 12.12.955 17.964l1.602-.03c0-6.066 0-12.133.285-18.512 1.412-.893 2.534-1.958 3.669-1.972 6.77-.082 13.55-.086 20.31.229 3.092.144 6.362.724 6.282 5.194-.016.934.823 1.883 1.267 2.825 1.742-3.608.599-7.584 5.512-6.571-1.39 8.727-6.455 16.366-5.008 25.308-1.21-.042-2.418-.083-3.785-.673.363-3.68 1.446-6.848 1.254-9.937-.214-3.43-1.927-6.747-2.354-10.191-.343-2.764-1.003-4.388-4.083-4.343-5.486.079-10.985-.168-16.453.157-1.48.088-3.972 1.605-4.11 2.702-.608 4.867-1.141 9.915-.406 14.698.308 2.004 3.834 3.513 5.897 5.248z"/><path fill="#811D1C" d="M612.731 424.78c8.731 1.855 17.455 3.749 26.199 5.54 2.256.462 4.578.602 7.276.897-1.526 2.082-3.204 4.494-5.434 6.172-9.885 7.442-19.904 14.705-29.942 21.94-1.296.933-2.984 1.323-5.095 2.3-4.557 1.386-8.456 2.774-12.473 3.413-5.882.937-8.1 4.07-7.059 9.78-.502.378-1.003.756-1.894.865-.592-.78-.794-1.293-1.009-2.174-.167-1.081-.32-1.794-.451-2.924-1.337-1.16-2.668-2.473-4.065-2.548-4.918-.263-9.86-.103-14.516-.349 8.901-2.693 17.73-4.6 26.08-7.77 5.932-2.254 11.655-5.651 16.66-9.573 4.67-3.66 3.905-8.007-1.117-11.43-7.471-5.093-16.114-6.727-24.663-8.229 2.703-1.136 5.207-1.975 8-2.966.236-1.38.183-2.61.093-4.225-.073-1.424-.109-2.46-.145-3.497.423.06.846.12 1.6.507.531 5.492 2.91 7.678 8.231 6.544 4.53-.966 9.146-1.53 13.724-2.273zM328.987 464.965c-.647.024-1.346.22-1.934.044-5.296-1.593-7.767.85-8.717 6.182-.65.119-1.093-.1-1.678-.838.57-7.266.582-7.339-6.243-8.504-4.443-.758-8.93-1.267-13.397-1.887-14.791-9.436-29.583-18.871-44.536-28.566 11.74-2.077 23.64-3.906 35.545-5.704 2.117-.32 4.253-.515 7.228-.795 3.798.3 6.752.597 9.698.96 2.906.359 4.82-.665 5.407-3.677.902.166 1.804.333 2.892 1.12 1.441 5.877 6.444 4.316 9.489 6.138-7.24 2.674-14.574 4.399-21.145 7.662-8.512 4.227-8.46 11.27-.21 16.122 4.663 2.741 9.847 4.617 14.857 6.738 4.202 1.778 8.493 3.345 12.744 5.005z"/><path fill="#FFF" d="M413.166 499.176c-1.624-8.99 3.441-16.63 5.286-25.482 8.489-.42 16.51-.364 24.592.002 2.269 1.978 4.477 3.648 6.766 5.774.171 4.794.262 9.131.065 13.68-1.487 2.681-2.686 5.149-3.885 7.617-3.694.011-7.388.023-11.65-.39-2.83-.399-5.091-.372-7.353-.346-.444.027-.889.054-1.712-.32-1.345-.204-2.311-.008-3.277.188-1.421 0-2.842-.002-4.936-.315-1.571-.361-2.47-.412-3.368-.462 0 0-.351.102-.528.054zM470.994 500.445c-1.731.127-3.462.254-5.794.06-3.078-.987-5.52-1.918-8.039-2.248-3.171-.415-4.23-1.394-3.357-4.855.918-3.637.907-7.522 1.18-11.307.286-3.987 2.33-6.185 6.321-6.058 6.611.212 13.22.583 19.816 1.07 1.202.089 2.884.74 3.415 1.665 2.564 4.47 7.017 8.035 4.733 14.616-1.15 3.316-1.887 4.757-5.363 4.72-1.295-.013-2.603 1.193-3.905 1.843-.746.063-1.492.126-2.759-.154-2.43-.013-4.34.318-6.248.648zM516.995 496.895c-.977.11-1.954.221-3.61.25-1.224.137-1.77.357-2.316.576-1.086.109-2.173.218-3.962.006-3.507-.457-6.341-.397-9.105-.81-1.497-.222-3.964-1.062-4.119-1.95-.746-4.28-1.346-8.708-1.02-13.01.227-2.975 2.044-5.83 3.514-8.826 1.11-.12 1.855-.15 2.883.116 7.42 1.118 14.559 1.938 21.884 3.03.278.698.37 1.123.093 1.758-.368 4.862-.368 9.514-.368 13.963l-3.874 4.897zM389.341 496.875c-2.455-1.82-5.98-3.33-6.29-5.334-.734-4.783-.2-9.831.408-14.698.137-1.097 2.628-2.614 4.11-2.702 5.467-.325 10.966-.078 16.452-.157 3.08-.045 3.74 1.58 4.083 4.343.427 3.444 2.14 6.76 2.354 10.191.192 3.089-.89 6.257-1.591 9.8-1.223.46-2.265.511-3.81.297-.855-.333-1.205-.4-1.556-.467-2.255-.096-4.51-.193-7.402-.579-1.214-.346-1.791-.402-2.368-.458-1.332-.05-2.665-.1-4.39-.236zM542.024 492.814c-.444.09-.888.179-1.728-.085-2.305-.305-4.682-.962-6.03-.068-3.175 2.11-5.564.024-5.89-1.874-1.185-6.88-4.452-14.167 2.004-20.622 1.12-.104 1.872-.116 2.812.198 2.318.505 4.526 1.134 6.566.785 7.365-1.261 10.672 1.944 8.854 8.916-.119.456-.384 1.177-.186 1.37 5.052 4.909 1.067 6.777-2.836 8.793-.397.205-.393 1.188-.575 1.81-.5.239-1.001.477-1.895.565-.722-.251-.956-.13-1.096.212z"/><path fill="#FDF9F8" d="M496.013 473.218c-1.106 2.909-2.923 5.764-3.15 8.74-.326 4.3.274 8.73 1.02 13.009.155.888 2.622 1.728 4.119 1.95 2.764.413 5.598.353 8.696.776-8.394.981-17.08 1.675-26.232 2.313.837-.705 2.145-1.911 3.44-1.898 3.476.037 4.212-1.404 5.363-4.72 2.284-6.58-2.169-10.146-4.733-14.616-.53-.925-2.213-1.576-3.415-1.665a475.815 475.815 0 00-19.816-1.07c-3.99-.127-6.035 2.07-6.322 6.058-.272 3.785-.26 7.67-1.179 11.307-.874 3.461.186 4.44 3.357 4.855 2.52.33 4.96 1.261 7.607 2.176-5.837.332-11.844.414-18.315.415.736-2.549 1.935-5.017 3.828-7.73 1.301-5.794 1.91-11.344 2.738-17.223 1.349-.89 2.469-1.92 3.606-1.94a867.75 867.75 0 0125.822-.076c2.347.029 5.311-.429 5.678 3.283 1.112-.214 2.362-.178 3.304-.699 1.629-.9 3.066-2.145 4.584-3.245z"/><path fill="#FFF" d="M582.825 471.005c.154.714.308 1.427.141 2.656-2.19 2.489-4.059 4.462-5.928 6.435-.445.307-.89.613-2.034.92-5.935 1.76-11.172 3.518-16.812 5.412-2.507-1.851-3.87-4.39-2.48-8.208 1.057-2.906 1.553-6.016 2.711-9.1 1.8-.08 3.189-.097 4.756.21.866.743 1.545 1.514 2.242 1.529 5.8.127 11.602.116 17.404.146z"/><path fill="#FDF9F8" d="M558.011 469.185c-.746 3.02-1.242 6.13-2.3 9.035-1.389 3.818-.026 6.357 2.48 8.208 5.641-1.894 10.878-3.653 16.534-5.39-9.353 3.682-19.125 7.342-29.304 11-.224-.623-.228-1.606.17-1.811 3.902-2.016 7.887-3.884 2.835-8.794-.198-.192.067-.913.186-1.37 1.818-6.97-1.489-10.176-8.854-8.915-2.04.349-4.248-.28-6.236-1.028 4.893-.725 9.966-1.978 14.295-.706 3.804 1.118 6.812 1.376 10.194-.229zM530.014 470.256c-6.09 6.364-2.823 13.652-1.639 20.53.327 1.899 2.716 3.985 5.892 1.875 1.347-.894 3.724-.237 5.689.053-7.329 1.65-14.713 2.96-22.529 4.226.917-1.75 2.267-3.456 3.442-4.942 0-4.45 0-9.101.494-13.602.976 3.07 1.458 5.988 1.94 8.907.183-.02.367-.04.552-.058 0-4.382 0-8.764.083-13.504 2.081-1.4 4.078-2.443 6.076-3.485z"/><path fill="#FBEDEA" d="M586.537 474.766c-1.375-5.654.843-8.787 6.725-9.724 4.017-.64 7.916-2.027 12.264-3.13-.448.919-1.122 2.159-2.165 2.812-5.445 3.41-10.984 6.672-16.824 10.042zM297.296 460.151c4.19.431 8.676.94 13.12 1.698 6.824 1.165 6.812 1.238 6.015 8.386-6.343-3.03-12.6-6.462-19.135-10.084z"/><path fill="#FDF9F8" d="M577.382 480.032c1.525-1.909 3.394-3.882 5.597-6.003.536.365.738.878 1.008 1.672-2.041 1.61-4.15 2.939-6.605 4.331zM471.373 500.569c1.53-.454 3.439-.785 5.497-.816-1.607.513-3.362.726-5.497.816zM427.31 500.238a26.873 26.873 0 016.578.047c-2.007.276-4.13.218-6.577-.047zM422.369 499.975c.595-.272 1.56-.468 2.58-.338-.702.355-1.456.385-2.58.338zM413.967 499.33c.625-.158 1.524-.107 2.68.153-.63.16-1.519.107-2.68-.153zM393.959 497.304c.349-.137.926-.08 1.724.164-.352.135-.925.082-1.724-.164zM511.371 497.779c.244-.277.79-.497 1.648-.68-.24.269-.793.503-1.648.68zM542.262 492.834c-.098-.363.136-.483.57-.273.107.108-.333.292-.57.273zM403.687 498.354c.165-.139.515-.072 1.059.181-.163.133-.517.079-1.059-.18z"/><path fill="#FEFCFC" d="M322.985 429.172c-3.289-1.556-8.292.005-9.537-5.658 1.406-1.53 2.692-3.442 4.216-3.656 17.403-2.439 34.786-5.528 52.288-6.636 21.565-1.365 43.237-1.278 64.865-1.357 31.101-.114 62.244-.721 93.292.64 20.14.883 40.142 4.899 60.637 7.504.466 1.03.502 2.066.437 3.869a95.719 95.719 0 00-.243 3.999c-2.505.838-5.009 1.677-8.137 2.706-6.366 1.097-12.124 1.915-17.847 2.927-12.145 2.15-12.142 2.188-15.65-9.17-.394 2.446-.27 4.756-1.186 6.528-.99 1.916-2.874 4.657-4.502 4.75-12.565.729-25.163.902-37.827 1.083a3.262 3.262 0 00-.594-.761c-.023-.078-.081-.23-.097-.649-.513-5.162-1.01-9.905-1.507-14.648l-1.038.104c-.51 5.376-1.022 10.753-1.594 16.526-.84.845-1.602 1.654-2.397 1.688-10.626.448-21.253.948-31.885 1.108-10.734.163-10.733.003-13.028-10.263-.04-.178-.511-.259-1.18-.57-.487 2.442-.52 5.021-1.57 7.082-.793 1.554-2.894 3.478-4.4 3.467-11.632-.083-23.278-.34-34.886-1.075-6.857-.434-7.168-1.29-7.794-8.312-.21-2.35-.725-4.672-1.215-7.724-.537 3.6-1.198 6.378-1.313 9.18-.18 4.379-2.38 5.63-6.47 5.37-9.29-.593-18.615-.681-27.889-1.425-8.573-.688-8.981-1.393-9.901-9.903-.09-.84-.434-1.653-.66-2.478-.997 1.277-1.19 2.48-1.254 3.69-.372 7.066-1.17 7.715-8.208 6.363-7.314-1.405-14.618-2.864-21.926-4.3z"/><path fill="#FBEDEA" d="M612.443 424.585c-4.29.937-8.905 1.502-13.436 2.468-5.32 1.134-7.7-1.052-7.914-6.613 7.012 1.052 14.036 2.501 21.35 4.145zM310.043 421.994c-.27 3.198-2.184 4.222-5.09 3.863-2.946-.363-5.9-.66-9.25-1.06a181.596 181.596 0 0114.34-2.803z"/><path fill="#F18B8C" d="M503.868 436.865c12.587-.345 25.185-.518 37.75-1.246 1.628-.094 3.512-2.835 4.502-4.751.916-1.772.792-4.082 1.185-6.528 3.509 11.358 3.506 11.32 15.65 9.17 5.724-1.012 11.482-1.83 17.649-2.629 9.173 1.31 17.816 2.945 25.287 8.038 5.022 3.423 5.787 7.77 1.117 11.43-5.005 3.922-10.728 7.32-16.66 9.572-8.35 3.172-17.179 5.078-26.233 7.963-.718.604-.947.833-1.115 1.121-1.388.018-2.777.035-4.577.116-3.794 1.669-6.802 1.411-10.606.293-4.33-1.272-9.402-.019-14.482.38-1.083.255-1.835.267-2.955.37a93.645 93.645 0 00-6.78 3.576c-1.098.39-1.775.425-2.64.126-1.765-1.106-3.374-2.593-4.912-2.524-5.703.258-11.382 1.029-17.07 1.607-.746.031-1.491.063-2.601.182-1.882 1.187-3.32 2.433-4.948 3.332-.942.521-2.192.485-3.304.699-.367-3.712-3.331-3.254-5.678-3.283a867.75 867.75 0 00-25.822.076c-1.137.02-2.257 1.05-3.94 1.963-1.221.336-1.889.32-2.75-.019-2.447-1.051-4.7-1.782-6.951-2.512-8.022-.057-16.043-.113-24.52-.044-5.38-.536-4.237 3.44-5.979 7.048-.444-.942-1.283-1.891-1.267-2.825.08-4.47-3.19-5.05-6.281-5.194-6.761-.315-13.541-.311-20.311-.229-1.135.014-2.257 1.08-3.974 1.992-1.199.265-1.808.195-2.416.126-1.059-.986-2.043-2.723-3.188-2.835-7.476-.737-14.987-1.122-23.277-1.447-2.085.125-3.379.075-4.673.025a4876.308 4876.308 0 00-17.724-4.955c-4.638-1.744-8.93-3.311-13.131-5.09-5.01-2.12-10.194-3.996-14.856-6.737-8.251-4.852-8.303-11.895.209-16.122 6.57-3.263 13.905-4.988 21.145-7.662 7.552 1.169 14.856 2.628 22.17 4.033 7.038 1.352 7.836.703 8.208-6.364.064-1.21.257-2.412 1.253-3.69.227.826.57 1.639.66 2.479.92 8.51 1.33 9.215 9.902 9.903 9.274.744 18.6.832 27.889 1.424 4.09.261 6.29-.99 6.47-5.37.115-2.8.776-5.58 1.313-9.179.49 3.052 1.005 5.374 1.215 7.724.626 7.022.937 7.878 7.794 8.312 11.608.735 23.254.992 34.886 1.075 1.506.01 3.607-1.913 4.4-3.467 1.05-2.061 1.083-4.64 1.57-7.083.669.312 1.14.393 1.18.57 2.295 10.267 2.294 10.427 13.028 10.264 10.632-.16 21.26-.66 31.885-1.108.795-.034 1.558-.843 2.746-1.731 1.542-.8 2.674-1.16 3.806-1.52 0 0 .058.152.09.43.155.549.365.698.662.725z"/><path fill="#764041" d="M378.115 474.693c.73-.363 1.338-.293 2.252-.245.305 6.046.305 12.113.305 18.18l-1.602.03c-.359-5.845-.717-11.689-.955-17.965zM347.202 470.405c1.19-.351 2.484-.301 4.166-.28-.34 4.145-1.066 8.318-2.032 13.864-.81-5.259-1.42-9.22-2.134-13.584z"/><path fill="#FDF9F8" d="M563.179 469.33c-.01-.613.218-.842.66-1.2 5.085-.192 10.027-.352 14.945-.089 1.397.075 2.728 1.387 4.065 2.548-5.826.386-11.629.397-17.428.27-.697-.015-1.376-.786-2.242-1.53z"/><path fill="#E08888" d="M589.228 427.724c-.241-.925-.194-2.002-.009-3.459.192.85.245 2.078.009 3.46z"/><path fill="#764041" d="M450.129 476.22a67.36 67.36 0 002.335.027 128.788 128.788 0 01-1.895 16.66c-.497-4.306-.588-8.643-.704-13.787.071-1.505.168-2.202.264-2.9z"/><path fill="#FDF9F8" d="M449.935 475.9c.098 1.018.001 1.715-.15 2.762-2.264-1.318-4.472-2.988-6.74-4.966 2.19.421 4.443 1.152 6.89 2.203zM499.26 473.247c5.406-.876 11.085-1.647 16.788-1.905 1.538-.07 3.147 1.418 4.879 2.824.114 1.036.072 1.437.03 1.839-7.138-.82-14.276-1.64-21.697-2.758z"/><path fill="#764041" d="M521.144 476.278c-.145-.675-.103-1.076-.028-1.778.71-.335 1.386-.37 2.4-.402.339 4.383.339 8.765.339 13.147l-.553.058c-.481-2.919-.963-5.837-1.57-9.117-.218-.786-.31-1.21-.588-1.908z"/><path fill="#BFBFC1" d="M503.1 435.291c-1.116.78-2.248 1.139-3.729 1.542.162-5.333.673-10.71 1.184-16.086l1.038-.104c.497 4.743.994 9.486 1.507 14.648zM503.791 436.7c-.22.138-.43-.011-.563-.482.187-.056.353.117.563.483z"/></svg>