<svg viewBox="0 0 510 489" xmlns="http://www.w3.org/2000/svg"><path fill="#D38382" d="M167.131 279.017c-1.623-1.31-3.246-2.62-5.25-4.031-.382-.101-.372.042-.372.042-.18-.166-.36-.331-.814-1.097-3.456-3.022-6.637-5.443-9.819-7.864 0 0 .087.04.153-.271-4.005-3.78-8.076-7.25-12.147-10.72 0 0 .067-.015.107-.318-.348-.436-.737-.569-1.125-.702 0 0 .074.005.14-.306-5.76-5.576-11.588-10.842-17.684-16.35 1.116-.4 1.88-.675 2.778-.578 1.397 1.008 2.646 2.165 3.923 2.197 6.258.155 12.524.011 18.999.269 5.374 2.506 10.498 4.816 15.71 6.903 6.714 2.69 13.5 5.202 20.45 8.091 5.565 2.123 10.936 3.944 16.439 6.115.89.956 1.558 1.876 2.418 2.122 11.915 3.403 23.856 6.713 36.158 10.15.872.119 1.378.132 2.188.237.726.072 1.147.053 1.84.113.458.065.646.05 1.18.156 2.339.2 4.333.28 6.75.444 1.566.048 2.71.012 4.254.059 1.757.03 3.114-.023 4.859-.015.906.016 1.425-.03 2.36.003 3.382-.148 6.35-.373 9.761-.547 2.204-.16 3.963-.371 6.018-.603 1.07-.146 1.844-.271 3.06-.334 11.129-2.08 21.816-4.222 32.869-6.425 6.19-2.623 12.016-5.185 18.19-7.764 1.388-.955 2.428-1.893 3.863-2.848 11.343-5.34 22.292-10.663 33.662-15.955 6.935-.655 13.449-1.341 20.266-2.045.094.933.085 1.994-.369 2.806-.82 1.469-1.907 2.789-2.883 4.17 0 0-.008-.075-.297-.084-.433.357-.577.725-.722 1.092 0 0 0-.087-.282-.1-.429.357-.575.728-.72 1.098 0 0 .005-.071-.307-.155-6.84 6.835-13.368 13.754-20.186 20.853-3.06 2.794-5.941 5.302-8.559 8.06-1.817 1.915-3.27 4.175-4.886 6.28 0 0-.053-.045-.364-.214-1.046.176-1.822.452-2.507.876a6319.444 6319.444 0 00-28.457 17.684c-1.05.657-1.923 1.596-2.879 2.405 0 0-.237.174-.79.001-3.222.693-5.95 1.412-8.552 2.447-21.23 8.437-43.068 11.516-65.737 7.742-1.598-.266-3.275-.064-4.915-.08-3.842-1.002-7.685-2.003-12.073-3.383-7.01-2.779-13.473-5.18-19.937-7.581 0 0 .082-.01.01-.313-4.052-2.084-8.032-3.865-12.012-5.647 0 0 .067-.028.078-.356-1.686-1.105-3.384-1.88-5.081-2.657 0 0 .067-.014.069-.348-1.024-.776-2.049-1.217-3.074-1.657 0 0 .07-.008.064-.342-1.024-.774-2.043-1.215-3.061-1.656 0 0 .067-.018.105-.332-4.262-3.122-8.561-5.93-12.86-8.737z"/><path fill="#E08788" d="M145.808 238.992c-6.263.038-12.529.182-18.787.027-1.277-.032-2.526-1.189-3.66-2.385 5.1-2.863 10.073-5.168 15.389-7.545 3.758-1.779 7.222-3.393 10.58-5.205 22.385-12.08 44.76-24.121 69.214-31.754 12.068-3.767 23.407-4.337 34.175 3.606 1.332.983 4.49 1.183 5.767.28 10.203-7.201 20.952-8.743 32.593-4.213.587.229 1.313.102 1.974.141 3.919 1.463 7.837 2.926 12.167 4.969 1.343.772 2.275.964 3.208 1.155 0 0 .113-.087.386.235.715.462 1.157.602 1.599.742 0 0 .142-.107.312.303a434.601 434.601 0 0020.13 10.354c14.916 7.181 29.874 14.276 45.049 21.604.613.339.992.481 1.605.803.985.404 1.737.628 2.769 1.039.924.37 1.567.551 2.431.933 1.415.561 2.608.923 3.86 1.593.519.701.98 1.095 1.443 1.488-6.514.687-13.028 1.373-20.369 2.01-2.807-.287-4.813-.394-6.765-.778-41.081-8.074-82.389-13.66-124.415-11.344-8.134.449-16.32.561-24.38 1.613-18.468 2.408-36.877 5.262-55.296 8.028-3.691.555-7.32 1.523-10.979 2.3z"/><path fill="#F7E6E6" d="M293.027 191.542c-.635.363-1.36.49-1.948.261-11.641-4.53-22.39-2.988-32.593 4.214-1.278.902-4.435.702-5.767-.28-10.768-7.944-22.107-7.374-34.175-3.607-24.454 7.633-46.829 19.674-69.214 31.754-3.358 1.812-6.822 3.426-10.965 5.15-.983-.016-1.239-.05-1.495-.085.85-.683 1.615-1.522 2.56-2.023 14.146-7.494 28.027-15.575 42.563-22.22 13.719-6.272 27.856-12.001 42.338-16.095 9.483-2.68 19.97-1.71 28.46 4.88 2.5 1.941 4.231 1.408 6.02.047 7.084-5.385 15.192-6.383 23.6-5.434 3.598.406 7.064 1.988 10.616 3.438z"/><path fill="#F9E2E3" d="M375.67 231.109c-14.94-7.13-29.899-14.226-44.814-21.407a477.21 477.21 0 01-20.077-10.283c1.58.06 3.425.157 4.952.904 18.584 9.087 37.116 18.283 55.683 27.407 1.847.907 3.835 1.527 5.883 2.52-.46.446-1.044.653-1.627.859z"/><path fill="#FCDCDC" d="M235.08 312.397c1.463-.355 3.14-.557 4.738-.29 22.669 3.773 44.508.694 65.737-7.743 2.603-1.035 5.33-1.754 8.417-2.506-8.983 3.449-18.205 7.487-27.83 9.94-11.908 3.036-24.236 3.96-36.56 3.136-4.802-.32-9.553-1.42-14.503-2.537z"/><path fill="#F9E2E3" d="M136.478 228.977c.648.006.904.041 1.544.13-4.588 2.359-9.56 4.664-14.796 7.157-1.026.461-1.79.736-2.906 1.137 6.096 5.507 11.923 10.773 17.681 16.386-4.913-3.393-9.757-7.135-14.598-10.88-.13-.1-.247-.223-.346-.354-1.344-1.763-2.684-3.529-4.024-5.294 2.36-1.76 4.522-3.943 7.133-5.169 3.105-1.458 6.596-2.093 10.312-3.113z"/><path fill="#FCDCDC" d="M315.288 301.952c.565-.845 1.438-1.784 2.488-2.441a6319.444 6319.444 0 0128.457-17.684c.685-.424 1.461-.7 2.54-.887-6.784 8.048-15.26 13.885-25.367 17.367-2.68.924-5.157 2.438-8.118 3.645z"/><path fill="#F7E6E6" d="M362.84 266.646c6.527-6.92 13.055-13.839 19.93-20.67-1.56 2.485-3.407 4.935-5.39 7.27a356.395 356.395 0 01-8.327 9.434c-1.692 1.853-3.524 3.58-5.7 5.037-.442-.574-.478-.823-.514-1.071z"/><path fill="#FCDCDC" d="M362.549 266.825c.326.07.362.318.45.94-4.367 4.672-8.786 8.97-13.55 13.335 1.27-2.04 2.724-4.3 4.541-6.215 2.618-2.758 5.5-5.266 8.559-8.06zM203.05 301.393c6.307 2.07 12.77 4.471 19.373 7.142a307.937 307.937 0 01-19.374-7.142z"/><path fill="#F9E2E3" d="M139.028 255.38c3.925 3.166 7.996 6.635 11.98 10.46-4.001-3.15-7.918-6.654-11.98-10.46z"/><path fill="#F7E6E6" d="M388.315 237.145c-.765-.376-1.227-.77-1.6-1.583.482-.746.873-1.072 1.264-1.398 5.283 2.394 5.428 2.943 1.515 6.845-1.125 1.121-2.476 2.014-4.077 3.062.622-1.331 1.708-2.651 2.53-4.12.453-.812.462-1.873.368-2.806z"/><path fill="#FCDCDC" d="M167.162 279.366a132.867 132.867 0 0112.82 8.422c-4.293-2.459-8.541-5.266-12.82-8.422z"/><path fill="#F9E2E3" d="M151.021 266.375c3.037 2.113 6.218 4.534 9.513 7.226-3.047-2.126-6.207-4.522-9.513-7.226z"/><path fill="#FCDCDC" d="M191.027 295.434a107.143 107.143 0 0111.881 5.356c-3.864-1.446-7.805-3.235-11.881-5.356z"/><path fill="#F7E6E6" d="M375.904 231.306c.35-.403.933-.61 1.77-.988 2.887.868 5.52 1.907 7.932 3.298-1.186.322-2.152.294-3.118.265a13.784 13.784 0 01-2.449-.91c-1.267-.59-2.015-.816-2.763-1.042a8.98 8.98 0 01-1.372-.623z"/><path fill="#FCDCDC" d="M186.014 292.415c1.571.45 3.269 1.226 4.947 2.366-1.619-.437-3.22-1.239-4.947-2.366z"/><path fill="#F9E2E3" d="M382.71 234.081c.744-.171 1.71-.143 3.042-.123.782.023 1.198.055 1.92.146-.084.386-.475.712-1.014 1.15-1.34-.25-2.534-.612-3.949-1.173z"/><path fill="#FCDCDC" d="M182.999 290.397c.91.127 1.934.568 2.955 1.378-.95-.11-1.894-.587-2.955-1.378zM180.001 288.399c.903.128 1.922.569 2.946 1.378-.939-.109-1.885-.587-2.946-1.378z"/><path fill="#F9E2E3" d="M308.196 197.767c-.7.11-1.633-.082-2.832-.513.69-.09 1.645.061 2.832.513zM161.475 274.993c.034.035.024-.108.038-.128.013-.02-.071.094-.038.128zM310.187 198.758c-.216.147-.658.007-1.33-.398.216-.14.66-.015 1.33.398zM137.946 254.32c.306-.13.695.002 1.04.472-.347.155-.653-.027-1.04-.473z"/><path fill="#F7E6E6" d="M383.299 246.034c-.112-.277.034-.648.506-1.005.135.314-.057.613-.506 1.005zM384.305 245.04c-.116-.278.028-.646.499-1.007.138.31-.05.614-.5 1.007z"/><path fill="#811A19" d="M146.02 239.288c3.446-1.074 7.076-2.042 10.767-2.597 18.419-2.766 36.828-5.62 55.295-8.028 8.06-1.052 16.247-1.164 24.381-1.613 42.026-2.316 83.334 3.27 124.415 11.344 1.952.384 3.958.49 6.344.746-10.543 5.342-21.492 10.666-33.182 15.838-20.802-5.556-41.251-7.256-61.963-6.79-10.592.238-21.2.331-31.788.054-19.693-.517-39.151.962-58.304 5.74-6.755-2.59-13.54-5.101-20.255-7.79-5.212-2.088-10.336-4.398-15.71-6.904z"/><path fill="#F08B8C" d="M182.18 254.282c18.958-5.078 38.416-6.557 58.109-6.04 10.589.277 21.196.184 31.788-.054 20.712-.466 41.16 1.234 61.569 6.807-.694 1.105-1.734 2.043-3.595 2.905-6.164.38-12.025-2.03-16.865 2.489-3.422-3.651-7.79-2.565-12.504-1.354-.759.116-1.186.223-1.94.353-.785.891-1.243 1.759-1.757 2.906-.087.608-.078.946-.16 1.261-.075.294-.246.564-.218.503-1.064-1.288-2.254-3.906-3.37-3.874-4.779.134-9.536 1.05-14.636 1.738-1.432-.14-2.528-.336-4.077-.656-6.455.239-12.457.6-18.78.892-1.137-.356-1.954-.64-3.133-1.03-1.114-.11-1.864-.115-2.949-.308-3.121-.087-5.91.013-9.09.043-2.144.254-3.896.577-6.03.924-7.04-2.099-13.686-4.051-20.08.823-2.54-4.346-10.536-5.689-15.975-2.563-5.371-1.821-10.742-3.642-16.308-5.765z"/><path fill="#FCF8F8" d="M278.936 261.864c4.765-.63 9.522-1.546 14.302-1.68 1.115-.032 2.305 2.586 3.369 3.874-.028.061.143-.209.219-.503.08-.315.072-.653.432-1.379a60.004 60.004 0 001.81-2.811c.428-.107.855-.214 1.96-.134 2.14.374 3.614.79 5.06.705 4.265-.248 6.14 1.7 5.88 5.882-10.687 2.142-21.374 4.284-32.499 5.965-.469-3.613-.501-6.766-.533-9.919z"/><path fill="#FBF4F4" d="M198.619 260.397c5.307-3.476 13.304-2.133 15.843 2.213 6.394-4.874 13.04-2.922 20.1-.363 1.026 3.73 1.646 7.024 2.266 10.318-11.935-3.333-23.876-6.643-35.79-10.046-.861-.246-1.53-1.166-2.42-2.122z"/><path fill="#FCF8F8" d="M256.064 262.229c6.003-.362 12.005-.724 18.465-.587.848 2.218 1.397 3.92 1.586 5.66.187 1.724.01 3.488-.006 5.234-1.76.212-3.518.423-6.148.56-3.83.114-6.79.304-9.75.493-.52.045-1.039.09-2.09-.272-1.04-3.966-1.548-7.527-2.057-11.088z"/><path fill="#FCFDFC" d="M237.195 272.67c-.987-3.399-1.607-6.693-2.249-10.447 1.73-.783 3.482-1.106 5.955-1.144 3.513.166 6.304.047 9.095-.072.75.006 1.501.011 2.62.53.375 4.362.383 8.21.392 12.057-1.145.037-2.289.073-4.186-.106-2.758-.288-4.761-.362-6.765-.435-.188.015-.376.03-.995-.17-.949-.168-1.466-.118-1.983-.069-.506-.013-1.012-.026-1.884-.144z"/><path fill="#F7E6E6" d="M312.334 265.757c-.105-4.12-1.981-6.069-6.247-5.82-1.445.083-2.92-.332-4.727-.715 4.036-1.398 8.404-2.484 11.826 1.167 4.84-4.518 10.7-2.11 16.517-2.473-5.353 2.656-11.179 5.218-17.37 7.841z"/><path fill="#FBF4F4" d="M253.407 273.678c-.408-3.931-.416-7.779-.429-12.036.812-.125 1.629.16 2.766.516.829 3.632 1.337 7.193 1.99 11.099-1.213.398-2.57.451-4.327.42zM276.405 272.516c-.28-1.726-.103-3.49-.29-5.214-.189-1.74-.738-3.442-1.134-5.537 1.092-.179 2.188.018 3.62.157.367 3.095.4 6.248.427 9.799-.78.524-1.553.649-2.623.795zM260.626 273.666c2.544-.266 5.504-.456 8.89-.622-2.54.249-5.508.474-8.89.622zM242.402 273.175c1.659-.049 3.662.025 5.997.229-1.663.05-3.657-.029-5.997-.23zM239.383 272.906c.213-.141.73-.19 1.408-.104-.26.157-.682.176-1.408.104z"/><path fill="#F9E2E3" d="M377.51 232.11c.514.045 1.262.271 2.248.674-.512-.047-1.264-.27-2.249-.675z"/><path fill="#FBF4F4" d="M249.662 260.82c-2.457.306-5.248.425-8.368.328 2.459-.315 5.247-.415 8.368-.328z"/><path fill="#F7E6E6" d="M298.742 259.388c-.168.781-.661 1.586-1.428 2.508.185-.75.643-1.617 1.428-2.508z"/></svg>