<svg viewBox="0 0 509 490" xmlns="http://www.w3.org/2000/svg"><path fill="#E08788" d="M276.275 188.991s.368-.064.626.265c.57.464.881.6 1.193.737 0 0-.106-.015-.012.268.702.846 1.254 1.487 1.926 1.957 14.935 10.442 28.13 22.711 39.28 37.16 1.792 2.322 3.88 4.415 5.831 6.614 0 0-.101-.01-.16.24-.101.447-.142.647-.504 1.007-2.376.695-4.411 1.576-6.488 1.69-4.743.26-9.507.145-14.607.153-6.521-4.445-12.504-9.17-18.933-13.179-5.414-3.375-11.058-7.335-17.104-8.567-19.429-3.96-37.247-1.114-51.292 14.947-2.823 3.229-7.77 4.599-12.224 6.792-6.665-.42-12.846-.807-19.058-1.567.459-1.6.734-2.976 1.471-4.03 12.048-17.216 26.556-31.923 44.512-43.012 4.782-2.953 10.191-3.89 15.306-1.38 5.566 2.733 10.092 4.233 16.272.22 3.322-2.157 9.226-.339 13.965-.315z"/><path fill="#F9E2E2" d="M276.045 188.643c-4.51.324-10.413-1.494-13.735.663-6.18 4.013-10.706 2.513-16.272-.22-5.115-2.51-10.524-1.573-15.306 1.38-17.956 11.089-32.464 25.796-44.512 43.013-.737 1.053-1.012 2.43-1.492 4.424.17 1.411.215 2.114.507 2.69 9.057 17.894 20.864 33.616 36.806 45.975 17.307 13.416 40.058 14.608 59.015 3.338 1.498-.89 3.299-1.27 4.98-1.872.02.015.056.051.056.051-7.41 6.663-16.45 9.835-26.042 10.824-24.424 2.52-42.038-9.597-56.348-27.732-6.081-7.706-11.48-15.957-17.064-24.046-4.853-7.03-5.051-11.757-.205-18.063 11.776-15.322 25.197-28.981 41.51-39.57 7.69-4.99 15.518-3.84 23.55-.77 1.808.692 4.396.603 6.19-.154 6.09-2.57 12.063-2.051 18.362.07zM325.067 235.615c-1.899-1.822-3.987-3.915-5.779-6.236-11.15-14.45-24.345-26.72-39.28-37.161-.672-.47-1.224-1.111-1.916-2.009 4.289 2.229 9.102 4.262 12.953 7.457 12.4 10.285 23.786 21.62 33.03 34.925.516.742.636 1.758.992 3.024zM324.057 242.05c-2.116 3.58-4.232 7.16-6.685 10.863-.338.121-.357.1-.406-.27 2.318-3.789 4.684-7.208 7.061-10.62l.03.027zM305.064 269.056c-2.124 2.592-4.247 5.184-6.697 7.882-.327.105-.35.08-.412-.278 2.311-2.787 4.686-5.216 7.073-7.635l.036.031zM310.089 263.081c-1.464 1.916-2.928 3.832-4.709 5.862-.316.113-.34.092-.397-.276 1.641-2.128 3.339-3.89 5.053-5.634l.053.048zM292.755 282.577c-1.666 1.48-3.333 2.96-5.361 4.45-.362.008-.381-.016-.39-.356a31.79 31.79 0 015.18-4.5c.175.156.571.406.571.406zM317.045 253.044c-1.113 1.92-2.235 3.83-3.687 5.863-.329.122-.344.106-.387-.255 1.319-2.12 2.681-3.88 4.044-5.638l.03.03z"/><path fill="#F9E2E2" d="M324.776 237.078c.041-.2.082-.399.204-.892-.023 1.66-.129 3.616-.578 5.717-.345.147-.365.13-.438-.243.222-1.775.517-3.179.812-4.582zM313.037 259.037c-.765 1.28-1.538 2.553-2.63 3.935-.318.11-.353.077-.465-.29.95-1.469 2.011-2.569 3.072-3.669l.023.024zM296.062 279.055c-.43.653-.86 1.307-1.658 1.973-.367.012-.388-.01-.416-.345.658-.78 1.343-1.223 2.04-1.658l.034.03zM298.052 277.055c-.466.62-.944 1.227-1.706 1.917-.284.083-.306.062-.336-.289.65-.79 1.329-1.228 2.008-1.666l.034.038zM294.047 281.051c-.293.406-.595.8-1.095 1.36-.197.166-.593-.084-.613-.509.545-.578 1.111-.731 1.677-.884l.03.033zM287.045 287.048a2.748 2.748 0 01-.707.962c-.246.075-.282.039-.3-.264.314-.446.644-.59.975-.735l.032.037zM278.013 189.728c-.23.129-.543-.008-.946-.386.227-.12.545 0 .946.386z"/><path fill="#D38281" d="M287.005 286.67c-.323.486-.653.63-.987 1.061-1.663.905-3.464 1.285-4.962 2.175-18.957 11.27-41.708 10.078-59.015-3.338-15.942-12.359-27.75-28.08-36.806-45.974-.292-.577-.336-1.28-.475-2.318 6.201-.008 12.382.379 19.255 1.042 5.72 3.426 11.037 6.204 15.695 9.83 4.696 3.655 8.388 8.628 13.173 12.133 4.013 2.94 8.752 5.645 13.544 6.624 13.098 2.678 24.57-.64 33.608-11.219 6.504-7.61 13.897-14.256 23.67-17.574 4.755-.038 9.519.077 14.262-.183 2.077-.114 4.112-.995 6.488-1.69.026 1.242-.269 2.646-.501 4.413-2.304 3.783-4.67 7.202-6.988 10.992-1.314 2.129-2.676 3.888-3.995 6.008-1.018 1.461-2.08 2.561-3.046 4.013-1.603 2.113-3.3 3.874-4.954 5.992-2.33 2.787-4.705 5.216-7.016 8.003-.616.795-1.295 1.234-1.957 2.014-.667.786-1.352 1.23-2.01 2.009-.538.488-1.104.64-1.824 1.062-1.825 1.708-3.496 3.147-5.16 4.926z"/><path fill="#801918" d="M303.36 239.082c-9.428 3.348-16.821 9.993-23.325 17.604-9.039 10.578-20.51 13.897-33.608 11.22-4.792-.98-9.53-3.685-13.544-6.625-4.785-3.505-8.477-8.478-13.173-12.134-4.658-3.625-9.974-6.403-15.21-9.796 3.76-2.47 8.708-3.84 11.531-7.068 14.045-16.06 31.863-18.907 51.292-14.947 6.046 1.232 11.69 5.192 17.104 8.567 6.43 4.009 12.412 8.734 18.933 13.179z"/></svg>