<svg viewBox="0 0 512 488" xmlns="http://www.w3.org/2000/svg"><path fill="#D38282" d="M295.372 285.742c-2.137.418-4.274.837-7.147 1.113-20.568-.046-40.4.05-60.591.032-15.745-4.46-31.131-8.807-46.518-13.154-3.506-1.535-7.011-3.069-11.059-5.024-9.085-4.828-17.63-9.235-26.173-13.642 0 0 .079-.003.062-.309-5.363-3.43-10.71-6.554-16.058-9.677 0 0 .067-.012.099-.311-1.967-1.795-3.965-3.29-5.963-4.785-.4-1.092-.8-2.184-.657-3.586 1.51-.463 2.48-.616 3.796-.502 2.288.545 4.22.984 6.17 1.07 8.588.385 17.18.813 25.774.944 7.438.113 14.885-.047 22.322-.282 6.84-.217 13.671-.696 20.719-.66 8.126.893 16.043 1.838 23.955 1.797 28.896-.147 57.79-.623 87.17-.915 14.923.085 29.362.14 43.8.095 1.602-.005 3.203-.586 5.28-.91 8.474.221 16.47.504 24.468.605.724.009 1.462-1.153 2.52-1.68 1.392.438 2.457.785 3.522 1.133-.105.593-.21 1.186-.834 2.076-1.012.855-1.504 1.413-1.996 1.971 0 0 .002-.08-.32-.166-6.752 3.734-13.226 7.482-19.586 11.413-2.18 1.347-4.077 3.152-6.103 4.748 0 0 .018-.088-.303-.163-1.773 1.009-3.225 2.091-4.677 3.174 0 0 0-.082-.298-.152-.574.27-.85.608-1.128.947 0 0-.085.108-.534.05-1.985 1.009-3.522 2.077-5.059 3.146 0 0 .004-.08-.287-.166-.778.337-1.265.759-1.752 1.18 0 0 .016-.11-.304-.18a570.775 570.775 0 00-19.633 9.016c-2.328 1.122-4.527 2.51-6.785 3.778-1.172.407-2.344.815-4.184 1.207-7.681 2.245-14.694 4.507-21.708 6.769z"/><path fill="#F8E3E2" d="M390.85 236.727c-1.052.02-2.117-.328-3.752-1.012-14.015-6.141-27.365-12.178-40.929-17.693-18.647-7.583-37.314-15.165-56.25-21.974-10.664-3.834-21.747-5.333-31.94 2.502-1.111.855-4.182.207-5.733-.743-5.809-3.559-11.985-5.172-18.628-3.95-6.192 1.139-12.483 2.3-18.366 4.45-12.5 4.571-24.817 9.665-37.113 14.776-17.82 7.408-35.553 15.021-53.324 22.546-.969.154-1.937.307-3.271.496 4.728-2.639 9.662-5.69 14.945-7.916 17.207-7.25 34.504-14.29 51.841-21.226 11.257-4.503 22.444-9.351 34.03-12.813 10.588-3.163 21.661-4.798 31.67 2.729.738.556 2.576.658 3.257.133 9.94-7.661 21.044-6.466 31.582-2.901 17.357 5.871 34.372 12.79 51.401 19.59 14.97 5.977 29.784 12.346 44.608 18.68 2.156.922 3.98 2.62 5.971 4.326z"/><path fill="#E2D1D5" d="M227.991 287c19.833-.095 39.666-.19 59.817-.116-6.888.75-14.085 1.542-21.303 1.843-7.01.292-14.043.183-21.063.055-5.544-.102-11.081-.5-17.04-1.062-.417-.296-.41-.72-.41-.72z"/><path fill="#F8E3E2" d="M227.634 286.887c.357.114.35.537.345.748-6.397-1.063-12.872-2.028-19.161-3.69-7.798-2.061-15.467-4.624-23.13-7.157-1.449-.48-2.61-1.83-4.238-2.917 15.053 4.209 30.44 8.556 46.184 13.016zM362.396 257.073c1.654-1.533 3.551-3.338 5.73-4.685 6.361-3.931 12.835-7.68 19.627-11.411-8.086 5.403-16.536 10.718-25.357 16.096zM144.016 255.403c8.412 4.071 16.956 8.478 25.725 13.114-4.96-2.076-10.222-4.225-15.305-6.737-3.556-1.757-6.868-4.01-10.42-6.377zM321.623 277.818c1.899-1.32 4.098-2.708 6.426-3.83a515.76 515.76 0 0119.689-9.008c-4.67 2.923-9.622 5.95-14.79 8.548-3.498 1.759-7.3 2.916-11.325 4.29zM295.755 285.791a509.775 509.775 0 0120.946-6.768 509.839 509.839 0 01-20.946 6.768zM128.017 245.41a224.969 224.969 0 0115.93 9.387c-5.255-2.79-10.528-5.924-15.93-9.387zM122.058 240.35c1.964 1.13 3.962 2.625 5.923 4.454-1.987-1.14-3.938-2.614-5.923-4.454zM357.396 260.088c1.1-1.024 2.552-2.106 4.37-3.105-1.096 1.071-2.556 2.06-4.37 3.105zM350.386 264.079c1.176-1.01 2.713-2.078 4.644-3.13-1.165 1.034-2.724 2.053-4.644 3.13zM388.382 241.072c.143-.489.635-1.047 1.332-1.835-.192.436-.587 1.101-1.332 1.835zM348.31 265.078c.163-.347.65-.77 1.468-1.103-.16.402-.652.716-1.468 1.103zM355.954 260.97c-.059-.367.218-.706.833-.974.06.382-.22.692-.833.974z"/><path fill="#E08888" d="M125.163 235.897c17.423-7.793 35.157-15.406 52.976-22.814 12.296-5.111 24.612-10.205 37.113-14.776 5.883-2.15 12.174-3.311 18.366-4.45 6.643-1.222 12.82.391 18.628 3.95 1.55.95 4.622 1.598 5.733.743 10.193-7.835 21.276-6.336 31.94-2.502 18.936 6.81 37.603 14.391 56.25 21.974 13.564 5.515 26.914 11.552 40.603 17.602-.489.864-1.227 2.026-1.951 2.017-7.998-.101-15.994-.384-24.922-.606-7.7.001-14.471-.006-21.241-.022-9.194-.02-18.388-.046-27.907-.342-2.474-.433-4.626-.78-6.77-.727-12.862.32-25.721 1.01-38.583 1.048-21.82.065-43.641-.26-65.462-.422-6.836.363-13.667.842-20.507 1.059-7.437.235-14.884.395-22.322.282-8.595-.131-17.186-.559-25.775-.943-1.948-.087-3.88-.526-6.169-1.07z"/><path fill="#A54C4C" d="M200.148 236.97c21.609-.239 43.43.087 65.25.022 12.862-.039 25.721-.729 38.584-1.048 2.143-.053 4.295.294 6.692.938.25.482.114.909.114.909-28.895.352-57.79.828-86.685.975-7.912.04-15.829-.904-23.955-1.796z"/><path fill="#C26D6D" d="M311.273 237.85c-.485-.06-.35-.486-.273-.697 9.27-.186 18.464-.16 27.658-.14 6.77.016 13.54.023 20.765.034-1.147.313-2.748.894-4.35.899-14.438.046-28.877-.01-43.8-.095z"/></svg>