<svg viewBox="0 0 901 859" xmlns="http://www.w3.org/2000/svg"><path fill="#D38282" d="M434.09 551.915c-5.665-.638-11.318-1.445-16.999-1.883-18.69-1.441-36.621-5.988-53.823-13.301-19.167-8.149-37.175-18.48-53.98-30.739-11.055-8.064-21.899-16.506-32.177-25.531-18.697-16.417-36.899-33.398-55.317-50.133-2.923-2.656-6.023-5.132-8.778-7.948-.971-.992-1.158-2.753-1.179-4.016 2.352.576 4.182 1.381 6.007 1.372 7.852-.04 15.702-.32 23.551-.176 1.447.961 2.912 1.551 4.342 2.216 8.544 3.969 17.229 7.67 25.575 12.02 7.787 4.057 15.21 8.81 23.022 13.5 5.577 2.934 10.866 5.761 16.323 8.214 1.167.525 2.944-.308 4.627-.301.37.749.553 1.283.93 2.098 1.02.82 1.794 1.479 2.684 1.879 18.461 8.296 38.096 12.26 58.216 15.675.549.042.769.054 1.31.265 10.687 2.047 21.052 3.894 31.708 5.792.488.058.685.063 1.25.14 2.096.288 3.824.503 5.935.827 1.958.159 3.533.209 5.365.485.923.286 1.589.346 2.646.502 1.993.153 3.595.21 5.455.455.879.24 1.499.292 2.552.45 2.511.157 4.589.206 7.03.402 2.768.355 5.172.564 7.913.824.79.038 1.244.027 2.136.038 2.489-.027 4.538-.077 7.039-.045 3.817.038 7.182-.005 10.971.022 2.143-.015 3.86-.1 5.95-.13 1.123.004 1.872-.05 3.06-.041 4.15-.305 7.863-.67 11.922-.992.805-.017 1.264-.078 2.104-.083 2.1-.222 3.818-.5 5.92-.766 1.143-.077 1.903-.166 3.005-.21 1.434-.233 2.525-.513 4.028-.773 1.5-.12 2.587-.259 3.939-.39.562-.173.86-.355 1.528-.46 1.608-.12 2.846-.318 4.346-.513.561-.171.86-.345 1.53-.503 1.35-.145 2.328-.307 3.685-.441 3.484-.753 6.59-1.533 10.063-2.37 1.088-.231 1.81-.403 2.816-.575.59-.214.894-.43 1.577-.645 4.946-1.395 9.515-2.79 14.464-4.19 11.24-4.652 22.099-9.302 33.322-13.97 4.999-1.962 9.634-3.905 14.623-5.963 11.12-5.217 22.143-9.849 32.589-15.54 12.802-6.974 25.375-14.258 40.257-17.329 6.097 1.415 11.662 1.458 17.015-1.25-1.038 2.243-1.579 4.96-3.192 6.656-11.9 12.518-23.466 25.431-36.183 37.077-22.518 20.622-46.775 39.185-72.993 54.874-14.653 8.77-29.76 17.196-45.579 23.467-12.292 4.873-25.933 6.544-39.105 8.92-7.873 1.42-15.995 1.458-24.939 2.077-7.415-.007-13.899-.065-20.378.096-3.24.081-6.472.563-9.708.864z"/><path fill="#E08888" d="M686.003 417.557c-5.189 3.035-10.754 2.992-17.296 1.618-24.78-1.717-48.742-2.91-72.576-5.354-17.858-1.83-35.55-5.271-53.698-8.046-2.19-.281-3.994-.673-5.805-.716-15.096-.355-30.192-.776-45.29-.919-13.613-.128-27.229.069-41.335.09-1.15-.02-1.807-.009-2.895-.021-14.588-.053-28.745-.075-42.902-.116-2.045-.006-4.189-.236-4.309 3-1.513.406-2.69.672-3.835.604.977-1.71 2.313-3.637-.778-3.453-11.36.674-22.7 1.668-34.522 2.61-12.824 1.607-25.286 2.541-37.501 4.808-27.085 5.027-54.361 7.365-81.864 7.562-7.85.192-15.701.471-23.553.512-1.825.01-3.655-.796-5.693-1.544 14.322-7.34 28.684-14.743 43.425-21.293 20.188-8.971 40.607-17.432 61.033-25.857 19.543-8.06 39.193-15.864 58.85-23.644 11.696-4.63 24-4.431 36.338-4.495 12.772-.066 24.004 3.574 34.063 11.352 2.708 2.094 5.448 2.87 9.187.878 8.247-4.393 16.585-9.823 25.502-11.446 10.76-1.959 22.606-2.345 33.167.103 13.246 3.071 25.672 9.694 38.44 14.814 9.38 3.762 18.79 7.461 28.101 11.388a1982.23 1982.23 0 0135.843 15.51c20.546 9.144 41.036 18.414 61.534 27.665 2.78 1.255 5.473 2.704 8.37 4.39z"/><path fill="#DEA8AC" d="M434.548 551.97c2.778-.356 6.01-.838 9.25-.919 6.479-.161 12.963-.103 19.926-.091-.823.388-2.125 1.017-3.433 1.03-8.428.087-16.857.038-25.743-.02z"/><path fill="#F18B8C" d="M396.03 408.031c1.177-.266 2.354-.532 4.072-.643 2.22.967 3.867 2.405 5.582 2.492 11.603.584 23.226.765 34.83 1.327 5.19.251 7.384-1.928 7.025-6.974.657-.012 1.315-.023 2.438.366.409 4.583 2.107 6.887 6.657 6.776 12.113-.293 24.233-.328 36.341-.752 1.684-.059 3.312-1.728 5.41-2.65 1.337-.024 2.23-.052 3.45.079 3.252.535 6.178.91 9.537 1.405 5.227 1.964 10.042 3.757 14.812 5.662 19.993 7.987 40.236 15.461 57.686 28.602 3.915 2.948 8.05 5.606 12.083 8.397-4.636 1.943-9.271 3.886-14.367 5.45-1.816-1.427-3.128-3.3-4.537-3.377-5.129-.278-10.338-.368-15.428.23-8.99 1.056-9.737-.924-9.835 10.025-.004.462-.32.922-.655 1.83-.614-1.131-.925-1.704-1.199-2.663-.044-1.15-.125-1.917-.173-2.965-.212-.779-.458-1.276-.71-1.997-.004-.223-.157-.641-.177-.975-1.31-.95-2.602-1.568-4.336-2.284-5.796.343-11.147.786-16.86 1.17-4.568.139-6.448 2.177-5.569 6.848-.011 1.476.038 2.552.028 4.025-.414 2.133-.767 3.868-1.1 5.21-.08-1.167-.18-1.943-.297-2.993-.229-.569-.44-.864-.585-1.514-.066-1.306-.2-2.256-.288-3.523-.257-1.085-.557-1.852-.861-2.618-.004.003.004-.004.015-.392-.54-4.194-3.314-3.83-6.35-3.651-.779-.004-1.224.046-2.094.034-2.138.025-3.851.111-5.97.148-1.205.084-2.005.216-3.108.266-1.103.119-1.903.32-3.011.51-3.69.781-8.516-.972-9.143 5.286-.259 2.481-.378 4.597-.78 6.712-.66 0-1.037 0-1.445-.408-.13-1.77-.228-3.132-.289-4.872-.206-3.693-1.918-5.531-5.31-5.552-8.878-.054-17.76-.197-26.63.033-1.337.035-2.626 1.877-4.25 2.817-1.217-.62-2.122-1.175-3.201-1.846a3.823 3.823 0 01-.607-.562c-.343-.338-.59-.443-.867-.486.002-.015-.017.02-.16-.341-1.828-.78-3.506-1.517-5.2-1.557-6.154-.148-12.324-.278-18.466.021-3.401.166-6.76 1.2-10.348 2.07-1.027 1.063-1.845 1.895-2.75 2.361-1.73-1.464-3.305-3.379-5.024-3.517-7.253-.584-14.549-.639-22.036-.876-.485.074-.72.21-1.168.528-.427.18-.598.25-1.16.308-2.596-.593-4.8-1.177-7.179-1.768-.176-.007-.501-.142-.688-.359-1.053-.181-1.92-.145-3.142-.138-.82-.143-1.282-.256-1.889-.462-.356-.197-.58-.24-1.264-.217-6.627.915-14.694-4.62-18.437 5.821-.736-6.787-5.53-7.922-10.512-8.784-3.255-.564-6.518-1.084-9.778-1.619-7.652-1.254-7.652-1.253-10.743 5.522a48.542 48.542 0 00-.81-2.207c-1.266-2.663-2.27-4.722-3.163-7.104 10.237-9.33 21.612-16.344 34.201-21.311 14.904-5.88 29.881-11.576 45.154-17.544 1.762-.405 3.195-.617 4.629-.83z"/><path fill="#811A19" d="M596.306 452.003c-4.387-2.676-8.521-5.334-12.436-8.282-17.45-13.14-37.693-20.615-57.686-28.602-4.77-1.905-9.585-3.698-14.344-5.753 3.502-.422 6.987-.483 10.432-.879 6.86-.79 13.697-1.763 20.543-2.66 17.766 2.723 35.458 6.163 53.316 7.994 23.834 2.443 47.796 3.637 72.148 5.326-14.009 3.058-26.582 10.342-39.384 17.317-10.446 5.69-21.468 10.322-32.589 15.539zM391.075 409.054c-14.946 5.775-29.923 11.47-44.827 17.35-12.589 4.968-23.964 11.981-34.638 21.368-6.2.014-11.853-.352-17.505-.718-7.583-4.447-15.006-9.201-22.793-13.259-8.346-4.35-17.031-8.05-25.575-12.02-1.43-.664-2.895-1.254-4.342-2.215 27.505-.533 54.78-2.871 81.866-7.898 12.215-2.267 24.677-3.201 37.913-4.76 10.557.705 20.229 1.428 29.9 2.152z"/><path fill="#FFF" d="M488.845 470.911c.12-2.116.24-4.232.909-6.725 4.363-1.32 8.223-2.11 11.961-3.288 1.259-.397 2.206-1.78 3.296-2.713 1.713-.086 3.426-.172 5.662.117 1.458.816 2.392 1.257 3.576 1.697.25.001.749.002.757.4 1.926 6.908 4.812 13.47-1.019 19.744-.015.171-.023.514-.023.514-1.238.198-2.476.396-4.341.558-.93.113-1.233.261-1.536.41-1.087.14-2.174.278-3.891.194-1.805.161-2.98.546-4.154.931-.76.09-1.52.18-2.906.05-2.438.158-4.248.537-6.058.916-.458.06-.917.122-1.723-.26-.43-2.145-.512-3.845-.595-5.546-2.052 4.076-5.143 5.187-9.077 5.208-.899.004-1.792 1.083-2.688 1.668-.749.053-1.498.106-2.757-.218-2.668-2.015-4.676-2.504-6.239.379-3.364.044-6.73.087-10.653-.27-4.424-2.426-6.062-5.267-4.22-9.627.419-.991.32-2.274.218-3.401-.715-7.847-.633-7.413 7.275-9.28 9.349-2.205 18.08-2.151 26.173 3.64.098 1.361.197 2.723.105 4.732.35 1.452.889 2.256 1.428 3.06l.52-2.89z"/><path fill="#FEF9F8" d="M316.214 457.307c2.897-7.055 2.897-7.056 10.549-5.802 3.26.535 6.523 1.055 9.778 1.619 4.983.862 9.776 1.997 10.512 8.784 3.743-10.442 11.81-4.906 18.569-5.696.58.122.92.248.92.248l.356-.064c.463.114.926.227 2.107.471 1.468.172 2.217.213 2.967.254 0 0 .325.135.794.376 1.368 2.024 2.758 3.728 3.063 5.608.627 3.858.672 7.811.956 11.725-19.79-3.384-39.426-7.348-57.887-15.644-.89-.4-1.664-1.06-2.684-1.879z"/><path fill="#FFF" d="M440.001 484.033c-2.077-.05-4.155-.099-6.93-.414-1.314-.338-1.93-.41-2.546-.481-1.602-.056-3.204-.113-5.474-.444-1.32-.367-1.973-.459-2.626-.55-1.575-.05-3.15-.1-5.365-.48-2.406-.778-4.174-1.226-5.985-2.102.015-2.138.074-3.85.462-5.718 1.709-4.679 3.09-9.201 4.89-13.799 2.13-.127 3.837-.18 5.722.075 5.31.831 10.433 1.525 15.58 1.833 5.985.36 8.68 3.32 7.985 9.284-.339 2.897-4.04 11.188-5.713 12.796z"/><path fill="#FEF9F8" d="M380.042 459.042c.172-.07.343-.14.978-.313.749-.17.983-.317 1.167-.545 7.28.248 14.576.303 21.829.887 1.719.138 3.295 2.053 4.981 3.974.311 6.49.578 12.156.844 17.822-10.365-1.847-20.73-3.694-31.397-6.157.33-5.634.964-10.65 1.598-15.668z"/><path fill="#FFF" d="M548.892 458.01s.153.418.161.922c.23 1.001.451 1.5.672 1.998.082.766.163 1.532-.136 2.829-.789 3.08-1.198 5.63-1.608 8.181-4.569 1.395-9.138 2.79-14.357 4.236-.963.232-1.276.413-1.589.595-.722.172-1.443.344-2.69.262-4.468-1.408-7.27-3.256-5.71-8.12.137-.427-.932-1.241-1.44-1.875-.05-1.076-.1-2.152.217-3.726a625.73 625.73 0 015.625-6.691c5.352-.443 10.703-.886 16.621-.96a163.435 163.435 0 004.234 2.349z"/><path fill="#FEF5F4" d="M548.36 471.937c.03-2.547.44-5.098 1.192-7.794.654.429.965 1.002 1.579 2.132.336-.907.651-1.367.655-1.829.098-10.949.845-8.969 9.835-10.025 5.09-.598 10.3-.508 15.428-.23 1.409.077 2.72 1.95 4.174 3.396-10.763 5.047-21.623 9.697-32.862 14.35z"/><path fill="#FEF9F8" d="M486.83 465.63c-8.131-5.412-16.862-5.466-26.211-3.26-7.908 1.866-7.99 1.432-7.275 9.279.102 1.127.201 2.41-.218 3.4-1.842 4.361-.204 7.202 3.768 9.545-1.942.37-3.991.42-6.54-.017-.133-7.519.233-14.55.598-21.583 1.311-1.006 2.6-2.848 3.937-2.883 8.87-.23 17.752-.087 26.63-.033 3.392.02 5.104 1.86 5.31 5.552zM440.366 484.179c1.308-1.754 5.01-10.045 5.348-12.942.696-5.963-2-8.925-7.986-9.284a110.809 110.809 0 01-15.21-1.998c7.939-.282 15.684-.091 23.429.1 0 0 .019-.036.154.128.345.342.586.452.859.493 0 0 .303.29.524.857.3 8.185.378 15.803.457 23.42-2.404-.21-4.808-.419-7.575-.774z"/><path fill="#FEF5F4" d="M294.334 447.295c5.423.125 11.075.491 17.164.801 1.442 2.002 2.446 4.061 3.525 6.51-1.422.596-3.2 1.429-4.366.904-5.457-2.453-10.746-5.28-16.323-8.215z"/><path fill="#FEF9F8" d="M514.002 479.972c5.816-6.103 2.93-12.665 1.286-19.413 1.423.32 2.571.876 3.72 1.434 0 0-.008.007-.003.32.275 1.082.546 1.85.816 2.62.133.95.266 1.9.394 3.469.177.92.358 1.222.54 1.524.1.776.2 1.552.27 3.094-.675 2.734-1.319 4.701-1.963 6.67-.978.16-1.955.322-3.651.421a62.79 62.79 0 01-1.409-.139z"/><path fill="#DEA8AC" d="M448.278 485.003c-.416-7.667-.495-15.285-.62-23.353.859.103 1.764.657 2.982 1.278-.053 7.098-.419 14.13-.725 21.626-.393.476-.847.487-1.637.449zM379.651 459.031c-.243 5.028-.876 10.045-1.53 15.479-.238.405-.458.393-1.007.35-.613-3.944-.658-7.897-1.285-11.755-.305-1.88-1.695-3.584-2.887-5.6 1.91.35 4.114.933 6.71 1.526z"/><path fill="#FEF5F4" d="M519.44 479.716c.266-1.995.91-3.962 1.564-6.304.364-2.11.717-3.844 1.13-5.977.57.237 1.638 1.05 1.5 1.478-1.558 4.864 1.243 6.712 5.345 8.178-2.948 1.092-6.054 1.872-9.538 2.625z"/><path fill="#FEF9F8" d="M477.433 484.847c.458-.646 1.351-1.725 2.25-1.73 3.934-.02 7.025-1.13 9.077-5.207.083 1.7.165 3.401.249 5.502-3.712.765-7.425 1.13-11.576 1.435z"/><path fill="#DEA8AC" d="M410.132 480.918c-.557-5.717-.824-11.383-1.047-17.506.86-1.29 1.678-2.122 2.792-3.097.296-.143.469.03.403.43-.401 4.686-.736 8.97-1.072 13.256-.059 1.711-.118 3.423-.186 5.808a77.44 77.44 0 00-.008 1.178 8.494 8.494 0 01-.882-.069z"/><path fill="#FEF9F8" d="M468.424 485.018c1.138-2.954 3.146-2.465 5.442-.507-1.582.406-3.3.492-5.442.507zM491.46 483.772c1.428-.435 3.238-.814 5.293-.985-1.475.485-3.193.763-5.293.985zM411.382 481.059c-.369-.24-.37-.408-.317-.824 1.821.203 3.589.651 5.613 1.321-1.472.005-3.2-.21-5.296-.497zM500.385 482.797c.832-.432 2.006-.817 3.398-.998-.873.484-1.964.764-3.398.998zM430.783 483.327c.358-.117.974-.046 1.854.185-.355.107-.975.055-1.854-.185zM422.682 482.37c.396-.135 1.048-.043 1.978.227-.39.119-1.055.059-1.978-.227z"/><path fill="#FEF5F4" d="M513.987 480.143c.245-.145.475-.12 1.051-.048.048.22-.25.394-.812.565-.262-.003-.254-.346-.239-.517z"/><path fill="#FEF9F8" d="M508.352 481.633c.038-.157.341-.305.901-.495-.041.14-.339.322-.901.495z"/><path fill="#FEF5F4" d="M532.32 476.771c.028-.182.34-.363.927-.594-.033.165-.338.38-.927.594zM542.433 405.775c-6.464.949-13.302 1.923-20.16 2.712-3.446.396-6.931.457-10.866.76-3.394-.284-6.32-.66-9.711-1.652-.925-1.717-1.384-2.817-1.843-3.918l-1.328.268-.584 4.026c-1.654.924-3.282 2.593-4.966 2.652-12.108.424-24.228.459-36.341.752-4.55.11-6.248-2.193-6.165-6.744 13.64-.422 27.256-.62 40.868-.49 15.099.142 30.195.563 45.29.918 1.812.043 3.616.435 5.806.716zM447.108 404.209c.79 5.07-1.404 7.25-6.594 6.998-11.604-.562-23.227-.743-34.83-1.327-1.715-.087-3.362-1.525-5.245-2.632-.422-3.39 1.722-3.16 3.767-3.155 14.157.04 28.314.063 42.902.116zM391.402 408.861c-10-.53-19.67-1.254-29.754-2.026 10.936-.923 22.276-1.917 33.636-2.591 3.091-.184 1.755 1.743.778 3.453-1.465.547-2.898.76-4.66 1.164z"/><path fill="#DEA8AC" d="M445.804 459.693c-7.602.17-15.347-.02-23.462-.046-2.078.218-3.786.27-6.282.367-1.764.14-2.739.235-3.714.33l-.26-.26c3.292-.728 6.65-1.76 10.052-1.927 6.142-.3 12.312-.169 18.465-.021 1.695.04 3.373.777 5.2 1.557z"/><path fill="#FEF9F8" d="M504.606 458.136c-.685.982-1.632 2.365-2.89 2.762-3.739 1.179-7.6 1.969-11.823 2.923.077-5.88 4.903-4.128 8.908-4.889a24.058 24.058 0 002.998-.448c.8-.132 1.601-.264 2.807-.348z"/><path fill="#FEF5F4" d="M527.676 456.563c-1.392 2.122-3.145 4.187-5.203 6.348-1.245-4.172.635-6.21 5.203-6.348zM519.019 461.605c-1.16-.17-2.308-.727-3.739-1.444-.282-.16-.781-.16-1.15-.413-.622-.748-.875-1.245-1.128-1.74 2.703-.234 5.476-.597 6.017 3.597z"/><path fill="#FEF9F8" d="M488.562 470.91c.11.965-.064 1.928-.237 2.89-.54-.803-1.078-1.607-1.396-2.65.597-.24.974-.24 1.633-.24z"/><path fill="#E08888" d="M498.385 407.974c-.25-1.345-.055-2.687.14-4.029l1.328-.268c.459 1.101.918 2.201 1.516 3.759-.753.485-1.647.513-2.984.538z"/><path fill="#FEF5F4" d="M548.872 457.676c-1.203-.327-2.425-.987-3.77-1.916 1.168.348 2.46.966 3.77 1.916z"/><path fill="#FEF9F8" d="M512.67 457.954c.585.55.838 1.046 1.21 1.793-.815-.188-1.749-.629-2.782-1.383.347-.364.792-.414 1.571-.41z"/><path fill="#FEF5F4" d="M501.497 458.402c-.49.242-1.28.402-2.388.542.485-.222 1.285-.423 2.388-.542z"/><path fill="#DEA8AC" d="M371.785 456.904c-.563.176-1.312.135-2.423-.008.504-.137 1.37-.173 2.423.008z"/><path fill="#FEF5F4" d="M519.865 464.615c-.314-.451-.585-1.22-.856-2.304.299.452.6 1.22.856 2.304zM549.76 460.648c-.256-.216-.477-.715-.702-1.493.243.217.49.714.701 1.493z"/><path fill="#DEA8AC" d="M366.754 456.304c.144.092-.212.156-.212.156s-.34-.126-.472-.251c.104-.144.328-.102.684.095z"/><path fill="#FEF5F4" d="M520.738 469.652c-.165-.028-.346-.33-.59-.895.15.031.361.326.59.895z"/><path fill="#DEA8AC" d="M381.98 458.195c.023.217-.211.364-.705.424-.015-.214.22-.35.705-.424zM446.831 460.52c-.144.115-.385.005-.732-.322.142-.12.39-.016.732.322z"/><path fill="#FEF9F8" d="M412.28 460.745c1.041-.496 2.016-.591 3.359-.656-1.013 4.554-2.393 9.076-4.102 13.755.007-4.128.342-8.413.743-13.099z"/></svg>