<svg viewBox="0 0 901 861" xmlns="http://www.w3.org/2000/svg"><path fill="#D38282" d="M566.122 419.913c.294 1.424 1.34 3.376.768 4.191-8.024 11.432-16.039 22.886-24.548 33.957a170.075 170.075 0 01-16.43 18.428c-13.997 13.564-29.033 25.875-47.925 32.034-19.93 6.498-39.853 6.468-59.6-1.38-14.099-5.604-26.272-13.864-37.772-23.773-19.89-17.137-35.13-37.9-49.323-59.619-.704-1.076-.05-3.039.527-4.484 2.925 1.335 5.22 3.436 7.677 3.647 11.475.985 22.996 1.448 34.708 2.366 2.088 1.093 3.968 1.919 5.914 3.074 3.322 2.851 6.446 5.573 9.864 7.853 6.59 4.395 13.348 8.541 20.133 13.07 1.32.82 2.542 1.36 4.13 1.97 2.087.69 3.805 1.32 5.534 1.922 23.486 8.162 46.446 7.84 68.328-4.942 10.308-6.022 20.204-12.75 30.605-19.257 3.318-1.721 6.317-3.343 9.783-4.964 8.123-.002 15.821.48 23.42-.184 4.812-.42 9.476-2.548 14.207-3.91z"/><path fill="#E08888" d="M565.98 419.602c-4.589 1.672-9.253 3.8-14.066 4.22-7.598.663-15.296.182-23.854.183-5.77-1.26-10.639-2.516-15.835-3.848a324.12 324.12 0 01-12.307-6.1c-.668-.503-1.154-.788-1.845-1.355-.834-.819-1.414-1.428-2.098-1.88-20.545-13.536-43.116-15.44-66.544-11-11.255 2.132-21.044 7.786-30.08 15.165-.956.27-1.633.527-2.669.891-3.757 1.468-7.156 2.83-10.921 4.25-4.166 1.668-7.965 3.276-11.765 4.884-11.504-.65-23.025-1.113-34.5-2.098-2.457-.21-4.752-2.312-7.357-3.817 12.996-13.284 26.073-26.456 39.512-39.246a737.52 737.52 0 0130.847-27.721c4.484-3.81 10.095-5.69 16.29-5.16 5.723.487 11.473.634 17.205 1.031 1.073.075 2.348.342 3.132.997 6.891 5.76 13.656 2.664 20.357-.243 9.628-4.176 19.603-4.085 28.994-.489 5.861 2.245 11.378 6.425 15.922 10.885 16.623 16.32 32.71 33.185 49.152 49.691 3.781 3.796 8.175 6.982 12.43 10.76z"/><path fill="#FEFBFB" d="M518.393 429.07c-10.082 6.407-19.978 13.135-30.286 19.157-21.882 12.782-44.842 13.104-68.328 4.942a228.19 228.19 0 01-5.85-2.14c-1.47-1.761-2.858-3.202-2.935-4.71-.204-3.976.574-8.021.192-11.965-.433-4.468 1.715-5.598 5.44-5.588 8.479.023 16.96.156 25.437.042 4.633-.063 6.102 2.212 5.982 6.495-.164 5.849-.041 11.706-.041 17.56l1.423-.022c.495-6.125 1.219-12.242 1.405-18.376.126-4.153 1.998-5.58 5.861-5.536 6.493.073 12.99-.173 19.48-.017 9.277.223 9.271.327 11.277 9.149.034.152.523.2 1.083.396.173-.964.542-1.9.467-2.797-.453-5.426 2.44-7.441 7.406-7.682 5.648-.275 11.285-.914 16.931-.984 1.677-.02 3.37 1.345 5.056 2.076z"/><path fill="#EA9394" d="M518.712 428.97c-2.005-.63-3.698-1.996-5.375-1.976-5.646.07-11.283.71-16.931.984-4.967.24-7.859 2.256-7.406 7.682.075.898-.294 1.833-.467 2.797-.56-.196-1.049-.244-1.083-.396-2.006-8.822-2-8.926-11.277-9.149-6.49-.156-12.987.09-19.48.017-3.863-.044-5.735 1.383-5.861 5.536-.186 6.134-.91 12.251-1.405 18.376l-1.423.022c0-5.854-.123-11.711.04-17.56.121-4.283-1.348-6.558-5.981-6.495-8.478.114-16.958-.019-25.437-.042-3.725-.01-5.873 1.12-5.44 5.588.382 3.944-.396 7.99-.192 11.966.077 1.507 1.464 2.948 2.57 4.637-.907-.32-2.13-.86-3.451-2.126-.438-6.019-.604-11.331-1.232-16.588-.17-1.426-1.69-3.803-2.672-3.845-8.709-.367-17.436-.307-26.157-.374-1.88-.825-3.76-1.65-5.848-2.744a69.105 69.105 0 0111.73-4.828c7.92 3.045 10.486 1.844 11.106-4.681.678-.257 1.355-.514 2.414-.383.836 3.646.634 7.383 5.437 7.562 12.285.456 24.571.888 36.856 1.353 3.451.13 5.196-1.477 5.515-4.915.39-4.196.942-8.376 1.424-12.564 1.156 4.073 1.752 8.124 2.023 12.196.244 3.65 1.9 5.463 5.603 5.419 9.964-.12 19.932-.043 29.89-.335 12.362-.364 10.773.329 12.077-11.12.485.285.971.57 1.744 1.423 1.766 8.007 5.938 9.799 12.53 5.824 4.868 1.258 9.737 2.515 15.04 3.773-2.564 1.623-5.563 3.245-8.881 4.966z"/><path fill="#FEFBFB" d="M380.118 428.354c8.655-.263 17.382-.323 26.091.044.981.042 2.502 2.42 2.672 3.845.628 5.257.794 10.57 1.135 16.307a332.562 332.562 0 01-20.034-12.343c-3.418-2.28-6.542-5.002-9.864-7.853zM498.073 412.702c-1.098 11.73.49 11.038-11.872 11.402-9.957.292-19.925.215-29.889.335-3.702.044-5.36-1.77-5.603-5.42-.271-4.071-.867-8.122-2.023-12.195-.482 4.188-1.034 8.368-1.424 12.564-.319 3.438-2.064 5.045-5.515 4.915-12.285-.465-24.57-.897-36.856-1.353-4.803-.179-4.6-3.916-5.16-7.575 8.656-7.767 18.445-13.421 29.7-15.554 23.428-4.439 46-2.535 66.544 11.002.684.45 1.264 1.06 2.098 1.879zM512.225 420.157c-6.264 4.049-10.436 2.257-12.02-5.532 3.828 1.587 7.76 3.522 12.02 5.532zM396.682 415.878c-.262 6.418-2.828 7.619-10.381 4.514 3.225-1.685 6.624-3.046 10.381-4.514z"/></svg>