<svg viewBox="0 0 512 488" xmlns="http://www.w3.org/2000/svg"><path fill="#D38282" d="M319.969 277.12c-8.805 12.175-20.503 20.571-34.41 25.91-3.704 1.423-7.727 2.014-12.356 2.781-6.836-.403-12.92-.768-19.004-.748-4.74.016-9.477.51-14.215.792-1.064.045-2.129.09-3.708-.254-8.468-3.952-16.414-7.528-24.377-11.066-1.295-.576-2.664-.985-4-1.471 0 0 .07-.015.047-.283-.367-.431-.71-.594-1.054-.756 0 0 .096.033.096-.271-2.366-2.095-4.731-3.886-7.097-5.677 0 0 .078-.043.15-.362-.67-.761-1.411-1.203-2.154-1.645 0 0 .079-.039.17-.348-6.086-7.575-12.249-14.85-18.467-22.077-.344-.4-1.15-.401-1.74-.589 0 0 .072-.035.147-.363-4.323-6.434-8.721-12.539-13.119-18.644 0 0 .071-.02.191-.356.67-1.943 1.22-3.549 1.91-4.766 3.426 1.257 6.68 2.648 10.01 2.865 4.484.292 9.026-.321 13.721-.31 5.921 3.766 11.645 7.328 17.431 10.785.755.451 1.829.37 2.794.9.877 1.541 1.515 2.956 2.587 3.852 8.359 6.995 17.204 13 28.359 14.775 20.116 3.202 39.138 1.52 55.674-11.832 1.72-1.388 2.991-3.33 4.833-4.965 7.034-4.597 13.706-9.244 20.861-13.913 5.949-.042 11.423.105 16.875-.186 1.673-.089 3.283-1.378 5.169-1.904.005 2.136.293 4.35-.572 5.934-3.362 6.163-7.09 12.126-10.683 18.163 0 0 .006-.07-.315-.068-1.103 1.361-1.885 2.72-2.667 4.077 0 0-.007-.07-.327-.046-1.1 1.367-1.879 2.711-2.658 4.055 0 0-.02-.069-.307-.082-.433.354-.578.72-.724 1.086 0 0 .003-.076-.305-.088-2.46 2.357-4.613 4.726-6.766 7.095z"/><path fill="#F8E3E3" d="M334.36 260.954c3.27-5.9 6.999-11.863 10.361-18.026.865-1.584.577-3.798.46-6.241-11.392-17.198-26.494-29.472-42.984-40.358-13.95-9.209-28.088-15.372-44.62-6.372-1.263.688-3.63.173-5.132-.532-14.983-7.028-28.33-3.86-40.942 5.884-3.85 2.975-8.323 5.145-12.527 7.666l-.05-.052c12.102-10.83 24.77-20.494 42.359-18.871 2.963.273 6.172 1.011 8.667 2.525 4.226 2.565 7.904 1.766 11.98-.033 9.447-4.17 18.894-3.637 28.047.909 12.472 6.195 23.757 14.08 34.395 23.149 8.306 7.081 15.257 15.114 21.666 23.81 2.115 2.87 2.583 5.469.642 8.406-3.975 6.016-7.998 12.001-12.322 18.136zM166.84 236.538c-.55 1.606-1.1 3.212-1.782 5.19-.106-1.84-.98-4.71.083-6.159 9.257-12.613 20.24-23.56 33.426-32.62.358-.026.392.009.433.37-1.757 2.048-3.628 3.663-5.341 5.43-8.962 9.242-17.884 18.522-26.82 27.79z"/><path fill="#C08F8D" d="M240.364 306.061c4.358-.487 9.096-.982 13.835-.998 6.083-.02 12.168.345 18.592.8-.837.552-2.02 1.126-3.191 1.105-9.62-.171-19.238-.453-29.236-.907z"/><path fill="#F8E3E3" d="M177.914 261.412c.526-.168 1.332-.166 1.676.233 6.218 7.227 12.381 14.502 18.445 22.115-6.76-7.1-13.408-14.546-20.12-22.348zM208.021 293.398c1.214.152 2.583.561 3.878 1.137 7.963 3.538 15.91 7.114 23.982 10.997-8.835-.785-16.713-4.608-24.22-9.356-1.205-.763-2.347-1.627-3.64-2.778zM164.93 242.416a392.478 392.478 0 0113.084 18.313c-4.383-5.739-8.708-11.842-13.084-18.313zM320.328 277.082c1.794-2.331 3.947-4.7 6.446-7.054-1.8 2.348-3.943 4.682-6.446 7.054zM200.008 286.395a55.421 55.421 0 016.962 5.407c-2.293-1.462-4.57-3.276-6.962-5.407zM331.378 264.992c.46-1.25 1.242-2.608 2.38-3.963-.448 1.286-1.253 2.57-2.38 3.963zM328.39 268.993c.46-1.228 1.24-2.572 2.374-3.94-.448 1.26-1.252 2.542-2.374 3.94zM197.98 284.358c.65.154 1.392.596 2.041 1.396-.712-.13-1.33-.62-2.041-1.396zM327.309 270.043c-.123-.296.022-.662.49-1.012.141.325-.04.634-.49 1.012zM206.976 292.287c.26-.1.603.063.97.529-.28.113-.583-.076-.97-.529z"/><path fill="#E08788" d="M166.978 236.927c8.797-9.656 17.72-18.936 26.68-28.178 1.714-1.767 3.585-3.382 5.359-5.412 4.163-2.883 8.635-5.053 12.486-8.028 12.612-9.744 25.96-12.912 40.942-5.884 1.503.705 3.869 1.22 5.132.532 16.532-9 30.67-2.837 44.62 6.372 16.49 10.886 31.592 23.16 42.738 40.145-1.528 1.046-3.138 2.335-4.811 2.424-5.452.291-10.926.144-17.274.16-10.345-.48-18.225-5.298-25.267-10.662-15.524-11.824-32.978-13.826-51.548-12.858-10.883.567-20.408 4.243-29.29 10.194-5.116 3.428-10.115 7.09-15.502 10.034-3.237 1.769-7.119 2.36-10.71 3.48-4.518.225-9.06.838-13.543.546-3.33-.217-6.585-1.608-10.012-2.865z"/><path fill="#F1898B" d="M302.026 252.947c-1.48 1.685-2.752 3.627-4.471 5.015-16.536 13.352-35.558 15.034-55.674 11.832-11.155-1.776-20-7.78-28.36-14.775-1.07-.896-1.709-2.31-2.382-4.112 7.466-5.565 14.538-10.89 22.116-15.357 14.304-8.43 38.904-8.726 53.312 4.791 4.837 4.538 10.288 8.423 15.459 12.606z"/><path fill="#811A1A" d="M302.388 252.997c-5.533-4.233-10.984-8.118-15.821-12.656-14.408-13.517-39.008-13.221-53.312-4.79-7.578 4.466-14.65 9.791-22.155 14.99-1.13.095-2.204.177-2.959-.274-5.786-3.457-11.51-7.019-17.43-10.784 3.413-1.357 7.295-1.948 10.532-3.717 5.387-2.944 10.386-6.606 15.502-10.034 8.882-5.95 18.407-9.627 29.29-10.194 18.57-.968 36.024 1.034 51.548 12.858 7.042 5.364 14.922 10.182 24.785 10.682-6.274 4.675-12.946 9.322-19.98 13.92z"/></svg>