<svg viewBox="0 0 509 490" xmlns="http://www.w3.org/2000/svg"><path fill="#D38282" d="M322.807 235.986c.064.443.129.886-.142 1.845-.423 1.097-.51 1.678-.598 2.258 0 0-.054-.058-.37-.033-.76 1.027-1.203 2.03-1.647 3.032 0 0 .042-.075-.28-.1-.948.495-1.676.93-2.186 1.546-7.071 8.53-14.13 17.07-21.134 25.654-.662.811-.933 1.94-1.386 2.923 0 0-.05-.06-.327-.075-.418.341-.56.697-.7 1.053 0 0-.027-.08-.349-.184-1.455.54-2.68 1.066-3.709 1.85-19.288 14.692-39.554 16.962-61.03 4.978-1.517-.846-3.344-1.136-5.027-1.684 0 0 .07-.036.092-.346-2.879-2.763-5.699-5.32-8.709-7.63-1.985-1.522-4.244-2.686-6.38-4.011 0 0 .07-.061.152-.364-.409-.716-.9-1.128-1.391-1.541 0 0 .15-.021.157-.306-5.9-8.295-11.788-16.32-17.722-24.31-2.11-2.84-2.401-5.373.891-7.108-.234 3.737 2.054 3.518 4.292 3.583 7.882.227 15.76.531 23.823 1.11 7 5.274 13.816 10.245 20.634 15.215 8.089 5.895 21.021 7.158 28.677 1.75 7.492-5.292 14.258-11.61 21.331-17.492.082-.068.01-.32.424-.525 6.77-.05 13.128.066 19.478-.12 4.155-.123 8.298-.685 12.62-1.033.172.017.516.065.516.065z"/><path fill="#F7E3E2" d="M191.014 233.015c-3.294 2.153-3.003 4.686-.893 7.526 5.934 7.99 11.822 16.015 17.694 24.381-4.648-4.92-9.374-10.1-13.828-15.505-2.439-2.96-4.385-6.321-6.614-9.458-2.045-2.88-1.392-5.392.86-7.769 12.581-13.28 25.068-26.622 41.062-36.072 7.743-4.575 15.432-4.124 23.212-.868 2.35.983 3.73 1.284 6.305-.048 8.503-4.4 16.945-2.56 24.85 2.077 2.897 1.699 5.452 3.98 8.268 6.341.105.345.07.381-.298.425-2.23-1.002-4.177-1.922-5.937-3.118-8.233-5.594-16.743-9.373-26.294-3.248-2.837 1.819-4.774 1.461-7.587-.125-6.586-3.713-13.61-4.417-20.4-.38-15.74 9.362-28.785 21.806-40.4 35.84zM224.052 279.38c1.553.217 3.38.507 4.897 1.353 21.476 11.984 41.742 9.714 61.03-4.979 1.029-.783 2.254-1.309 3.743-1.824-7.675 8.513-17.641 12.97-28.928 15.135-11.055 2.12-21.477.188-31.581-4.118-3.177-1.354-6.03-3.469-9.161-5.567zM295.414 273.068c.103-.94.374-2.069 1.036-2.88 7.004-8.585 14.063-17.125 21.134-25.654.51-.616 1.238-1.051 2.22-1.52-6.24 11.289-13.512 21.975-24.39 30.054zM209.034 267.38c2.027 1.007 4.286 2.171 6.271 3.694 3.01 2.309 5.83 4.866 8.695 7.665-4.976-3.448-9.916-7.243-14.966-11.358zM314.07 224.922c2.648 2.772 5.296 5.545 7.952 8.684.007.367-.023.395-.366.375-2.778-3.01-5.214-5.998-7.634-9.005l.048-.054z"/><path fill="#F7E3E2" d="M292.053 203.946c1.273.773 2.528 1.565 3.885 2.687.101.33.067.361-.288.422-1.454-.977-2.552-2.016-3.65-3.054l.053-.055zM320.362 242.965c.132-.88.575-1.882 1.374-2.912-.117.912-.59 1.85-1.374 2.912zM312.074 222.92c.606.48 1.212.96 1.907 1.72.089.282.057.318-.304.37-.798-.637-1.234-1.326-1.654-2.034l.051-.057zM306.06 216.935c.612.474 1.226.948 1.911 1.723.073.3.034.336-.305.368-.78-.655-1.221-1.342-1.649-2.045l.042-.046zM302.066 212.928c.606.483 1.213.966 1.891 1.747.072.298.044.323-.289.325-.777-.667-1.22-1.335-1.65-2.02l.048-.052zM207.51 265.47c.667.1 1.158.512 1.54 1.266-.644-.09-1.18-.523-1.54-1.267zM322.38 239.983c-.225-.474-.138-1.055.205-1.823.206.447.157 1.082-.205 1.823zM322.871 235.672c-.064.314-.408.266-.624-.067a5.28 5.28 0 01-.248-1.604l.046-.042c.307.457.599.928.826 1.713zM299.07 209.923c.292.166.584.331.924.766.05.27.012.305-.272.29-.43-.335-.577-.656-.706-.997l.054-.059zM305.052 215.942c.292.164.584.328.941.742.066.25.038.282-.243.256-.438-.329-.596-.633-.74-.951l.042-.047zM294.3 274.02c-.122-.287.02-.643.475-.992.14.312-.036.617-.475.991z"/><path fill="#F7E3E2" d="M300.062 210.94c.308.15.597.318.93.756.043.27.004.308-.278.289-.425-.343-.567-.667-.708-.99l.056-.055zM301.055 211.948c.308.148.596.314.948.73.063.25.031.284-.26.273-.443-.323-.595-.635-.747-.947l.059-.056zM296.056 206.947c.307.147.597.312.935.746.048.27.007.31-.278.296-.425-.34-.567-.668-.708-.995l.051-.047z"/><path fill="#F7E3E2" d="M297.06 207.943c.308.149.597.316.932.752.047.268.013.3-.27.28-.43-.337-.577-.655-.724-.973l.061-.059zM304.043 214.96c.305.15.596.314.948.73.061.252.033.284-.247.256-.434-.335-.589-.641-.743-.948l.042-.039z"/><path fill="#F7E3E2" d="M298.056 208.947c.305.149.593.314.948.728.066.248.03.287-.264.28-.441-.325-.588-.643-.735-.96l.051-.048zM311.075 221.919c.288.167.577.335.933.751.066.25.032.286-.27.292-.447-.317-.592-.64-.718-.983l.055-.06zM310.073 220.921c.29.166.579.333.935.748.067.25.03.29-.27.295-.445-.32-.589-.645-.716-.988l.05-.055z"/><path fill="#F7E3E2" d="M309.074 219.92c.29.167.58.334.934.75.065.251.03.288-.267.286-.447-.319-.595-.636-.724-.974l.057-.062zM308.062 218.94c.307.15.595.316.947.73.065.25.027.29-.276.295-.444-.321-.586-.646-.728-.971l.057-.053z"/><path fill="#E08888" d="M307.666 219.026c.481.293.623.618 1.048.96.432.334.58.651 1.01.989.425.344.569.67.995 1.01.427.337.572.66 1.002.997.722.702 1.158 1.391 1.94 2.046 2.78 2.955 5.217 5.943 7.995 8.953.354.443.364.867.418 1.606-4.105.682-8.248 1.244-12.403 1.366-6.35.187-12.708.071-19.886.162-5.151-1.4-9.821-2.27-13.746-4.47-13.122-7.352-26.052-8.278-39.334-.594-5.47 3.164-11.037 6.328-17.76 5.772-7.88-.276-15.76-.58-23.64-.807-2.24-.065-4.527.154-4.293-3.583 11.617-14.453 24.662-26.897 40.403-36.258 6.789-4.038 13.813-3.334 20.4.379 2.812 1.586 4.75 1.944 7.586.125 9.551-6.125 18.06-2.346 26.294 3.248 1.76 1.196 3.708 2.116 5.937 3.118 1.466.994 2.564 2.033 4.018 3.01.496.266.638.593 1.063.934.432.331.58.65 1.01.986.429.337.576.655.999 1 .423.348.57.669 1 1.004.425.339.567.663.992 1.006.434.331.586.643 1.014.984.72.696 1.163 1.364 1.94 2.03.487.306.642.612 1.062.962.424.346.582.65 1.007.995.708.728 1.149 1.415 1.93 2.07z"/><path fill="#811A19" d="M219.127 238.126c6.541.253 12.108-2.911 17.578-6.075 13.282-7.684 26.212-6.758 39.334.594 3.925 2.2 8.595 3.07 13.332 4.508.408.126.48.378.398.446-7.073 5.881-13.84 12.2-21.33 17.492-7.657 5.408-20.589 4.145-28.678-1.75-6.818-4.97-13.635-9.941-20.634-15.215z"/></svg>