<svg viewBox="0 0 512 487" xmlns="http://www.w3.org/2000/svg"><path fill="#D48282" d="M195.538 317.955s-.071.06-.222-.314c-.58-.436-1.01-.499-1.439-.562 0 0 .07-.004.086-.333-1.016-.779-2.046-1.228-3.076-1.677 0 0 .07-.007.064-.333-1.025-.772-2.044-1.219-3.063-1.665 0 0 .078-.007.038-.32-1.04-.772-2.04-1.23-3.041-1.69 0 0 .076-.004.058-.33-1.03-.766-2.042-1.207-3.054-1.648 0 0 .067-.012.08-.356-1.443-1.149-2.898-1.953-4.354-2.756-.273.077-.473-.01-.592-.843-1.488-1.444-2.985-2.309-4.481-3.173l-.305.015s-.214-.218-.22-.776c-1.048-1.064-2.088-1.569-3.128-2.074 0 0 .085-.095.138-.384-.35-.418-.751-.546-1.154-.675 0 0 .095-.009.048-.254-.382-.43-.717-.614-1.052-.798 0 0 .103.007.097-.26-.368-.413-.73-.56-1.091-.708 0 0 .074.033.15-.234-.31-.736-.697-1.205-1.315-1.94-1.428-.767-2.626-1.266-3.823-1.766 0 0 .078-.058.174-.381-.667-.764-1.43-1.204-2.192-1.644 0 0 .068-.013.169-.348-.656-.772-1.411-1.21-2.167-1.646 0 0 .07-.009.121-.32-.343-.442-.739-.571-1.134-.701 0 0 .082-.001.134-.303-.344-.435-.74-.569-1.136-.702 0 0 .07-.002.203-.312-2.638-3.1-5.41-5.89-8.18-8.68 0 0 .074-.036.217-.292-.555-1.016-1.252-1.775-1.95-2.535-2.625-3.122-5.25-6.245-7.975-10.066a466.973 466.973 0 00-12.639-20.182c-1.223-1.845-2.907-3.384-4.38-5.064-.13-1.378-.26-2.756.219-4.448 1.905-.442 3.201-.57 4.545-.348.081.584.115.817.224 1.37 8.124 12.409 20.81 18.445 32.998 25.673 13.22 7.563 25.88 15.61 39.353 21.925 15.652 7.336 33 7.083 49.884 7.74 11.6.45 23.308.07 34.867-1.014 9.013-.846 18.424-2.007 26.674-5.413 14.219-5.87 27.672-13.594 41.76-20.624 9.52-6.805 18.87-13.345 27.846-20.363 2.584-2.02 4.088-5.422 6.35-8.412.574-.555.887-.889 1.549-1.107 3.077 1.219 3.027 3.037 1.834 5.33-1.836 3.53-3.543 7.127-5.576 10.946-.368 1.14-.465 2.028-.562 2.917 0 0-.067-.072-.404-.092-.76 1.021-1.183 2.062-1.606 3.102 0 0-.07-.092-.367-.16-4.424 6.008-8.55 12.086-12.675 18.164 0 0 .042-.077-.27-.137-2.544 2.275-4.777 4.61-7.057 7.277.096.505.24.677.384.848 0 0-.08-.07-.38-.116-.426.356-.551.757-.676 1.16 0 0-.001-.078-.313-.142-.437.338-.562.74-.687 1.141 0 0-.001-.077-.313-.142-.437.338-.562.74-.687 1.142 0 0-.001-.077-.313-.142-.438.338-.562.74-.687 1.142 0 0-.005-.069-.342-.198-.769.641-1.202 1.412-1.635 2.182 0 0-.015-.067-.328-.127-.442.341-.572.743-.702 1.144 0 0 0-.085-.302-.132-.434.346-.566.74-.698 1.133 0 0 0-.086-.31-.135-.432.345-.556.739-.68 1.133 0 0 0-.073-.32-.148-.438.332-.559.74-.68 1.147 0 0 0-.072-.319-.147-.44.332-.56.74-.68 1.147 0 0-.042-.098-.304-.286-1.785 1.203-3.308 2.594-4.831 3.986-3.769 3.349-7.537 6.697-11.544 10.157-.238.11.09.147.09.147-.235.224-.47.448-1.355 1.043-1.157.885-1.665 1.398-2.173 1.912 0 0 .064-.162-.138-.037-.4.444-.597.762-.794 1.08 0 0 .013-.077-.294-.187-1.104.67-1.901 1.45-2.698 2.228 0 0 0-.12-.304-.18-1.426 1.004-2.55 2.066-3.673 3.13 0 0-.005-.07-.305-.187-.782.32-1.263.757-1.744 1.194 0 0 .018-.11-.297-.134-1.765 1.03-3.215 2.083-4.665 3.138 0 0 .002-.071-.335-.188-14.77 6.814-29.766 11.95-46.15 14.084-5.734.155-11.056.806-16.295.397-16.153-1.262-31.678-5.15-46.554-12.566-3.239-1.448-6.204-2.682-9.169-3.917z"/><path fill="#F7E4E4" d="M124.868 233.778c-1.296.128-2.592.257-4.274.452.308-.618.883-1.533 1.71-1.954 21.228-10.802 42.398-21.726 63.765-32.248 13.625-6.709 27.828-12.481 42.856-14.61 7.222-1.022 15.11 1.076 22.407 2.916 3.173.8 5.412 1.632 8.388-.24 2.224-1.398 4.993-1.93 7.899-2.604.378.616.377.987.041 1.502-2.941 1.221-5.718 2.011-8.109 3.445-3.071 1.843-5.472 1.409-8.695-.037-4.124-1.85-8.782-2.94-13.306-3.382-11.813-1.151-22.931 2.773-33.224 7.515-26.387 12.156-52.28 25.387-78.649 38.308a3.485 3.485 0 00-.715 1.081c.032-.066-.094-.144-.094-.144z"/><path fill="#F7E3E3" d="M267.996 186.848l.002-1.392c14.638-.862 28.662 2.41 41.886 8.11 14.652 6.314 28.802 13.806 43.096 20.933 11.458 5.713 22.724 11.817 34.245 17.396 4.403 2.132 4.673 4.838 2.666 8.515-1.833 3.36-3.838 6.625-6.07 10.1-.509-.068-.698-.318-.87-.581 1.761-3.568 3.468-7.165 5.304-10.695 1.193-2.293 1.243-4.111-2.092-5.555-18.609-9.71-36.49-19.321-54.645-28.384-20.009-9.989-40.385-19.071-63.522-18.447z"/><path fill="#FCD9DC" d="M204.98 322.085c14.603 7.202 30.128 11.091 46.281 12.353 5.24.409 10.561-.242 16.294-.2.448.208.445.604.445.604-6.866.394-13.878 1.852-20.564.934-10.086-1.383-20.001-4.212-29.873-6.861-4.259-1.143-8.227-3.37-12.466-5.703-.132-.774-.124-.95-.117-1.127z"/><path fill="#FCD8D9" d="M268.428 334.922c-.428-.08-.425-.476-.423-.674 15.935-2.341 30.93-7.477 45.736-14.288-6.023 3.106-12.2 6.778-18.87 8.906-8.463 2.7-17.325 4.148-26.443 6.056z"/><path fill="#F7E4E4" d="M120.073 239.299c1.552 1.306 3.236 2.845 4.459 4.69 4.266 6.437 8.372 12.98 12.529 19.868a588.982 588.982 0 01-16.988-24.558z"/><path fill="#FCDCDF" d="M367.382 273.97c3.809-5.937 7.934-12.015 12.404-17.99-3.8 6.018-7.943 11.933-12.404 17.99z"/><path fill="#FFEDEF" d="M146.937 277.411a83.867 83.867 0 018.116 8.367c-2.779-2.443-5.418-5.23-8.116-8.367z"/><path fill="#FCDCDF" d="M359.785 280.918c2.233-2.335 4.466-4.67 7.049-6.922-1.449 2.327-3.248 4.573-5.703 6.903-.886.063-1.116.04-1.346.019zM204.707 321.872c.266.39.258.566.24 1.007-2.989-1.262-5.968-2.789-9.178-4.62 2.734.93 5.7 2.165 8.938 3.613z"/><path fill="#FFEDEF" d="M344.28 296.923c1.178-1.474 2.701-2.865 4.524-4.03-1.193 1.521-2.686 2.817-4.524 4.03zM161.01 292.4c1.074.2 2.272.7 3.71 1.752.255.934.269 1.315.283 1.697-1.29-1.05-2.581-2.1-3.994-3.449z"/><path fill="#FCD8D9" d="M314.394 320.086c1.097-.996 2.547-2.05 4.367-3.07-1.092 1.026-2.553 2.019-4.367 3.07z"/><path fill="#FCDCDF" d="M177.81 306.27c1.26.504 2.716 1.308 4.156 2.49-1.332-.478-2.646-1.335-4.156-2.49zM172.763 302.246a17.985 17.985 0 014.26 2.704c-1.351-.536-2.695-1.474-4.26-2.704z"/><path fill="#FCD8D9" d="M321.36 315.997a17.826 17.826 0 013.425-2.992c-.796.993-1.956 1.924-3.424 2.992z"/><path fill="#FFEDEF" d="M145.107 274.546c.737.45 1.434 1.21 1.968 2.262-.778-.457-1.392-1.205-1.968-2.262z"/><path fill="#FCDCDF" d="M191.016 315.376c.901.142 1.931.591 2.945 1.405-.95-.123-1.883-.61-2.945-1.405zM188 313.387c.907.13 1.926.577 2.952 1.385-.941-.116-1.89-.593-2.952-1.385z"/><path fill="#FCD8D9" d="M325.357 313.105c.469-.7 1.266-1.479 2.409-2.141-.463.765-1.271 1.413-2.409 2.14z"/><path fill="#FCDCDF" d="M185.01 311.373c.876.147 1.876.606 2.919 1.417-.903-.133-1.848-.62-2.919-1.417zM182.004 309.397c.897.127 1.909.568 2.941 1.372-.928-.11-1.877-.584-2.941-1.372zM169.022 299.438c.907.187 1.947.692 3.004 1.603-.946-.157-1.909-.721-3.004-1.603zM380.416 255.99c.114-.923.537-1.964 1.343-2.966-.09.974-.562 1.911-1.343 2.965zM382.679 250.18c.444.012.633.262 1.003.67-.224.798-.61 1.427-1.28 2.151-.188-.793-.091-1.681.277-2.821z"/><path fill="#FFEDEF" d="M158.977 290.357c.655.16 1.417.6 2.062 1.406-.73-.13-1.343-.627-2.062-1.406z"/><path fill="#FCD8D9" d="M329.217 309.996c.244-.41.752-.923 1.468-1.603-.262.39-.733.944-1.468 1.603z"/><path fill="#FFEDEF" d="M156.979 288.362c.648.157 1.403.594 2.052 1.4-.719-.127-1.332-.623-2.052-1.4zM354.368 288.019c.154-.663.587-1.434 1.39-2.069-.124.744-.618 1.353-1.39 2.069z"/><path fill="#FCDCDF" d="M165.23 295.925c-.241-.458-.255-.839-.28-1.506.378.183.765.652 1.058 1.425-.093.304-.55.158-.778.081z"/><path fill="#FCD8D9" d="M319.327 317.083c.157-.379.638-.816 1.452-1.124-.154.44-.642.753-1.452 1.124z"/><path fill="#FFEDEF" d="M350.324 292.05c-.134-.316-.013-.724.462-1.056.167.372-.02.669-.462 1.056zM359.738 281.25c.277-.31.507-.288 1.082-.235.164.326-.017.62-.448 1-.394-.087-.538-.26-.634-.764zM359.321 283.051c-.13-.31-.005-.712.47-1.05.163.363-.026.66-.47 1.05zM358.321 284.051c-.13-.31-.005-.712.47-1.05.163.363-.026.66-.47 1.05z"/><path fill="#FCDCDF" d="M194.002 317.39c.305-.248.734-.185 1.284.215-.306.258-.733.177-1.284-.214z"/><path fill="#FFEDEF" d="M357.321 285.051c-.13-.31-.005-.713.47-1.05.163.363-.026.66-.47 1.05zM356.321 286.051c-.13-.311-.006-.713.47-1.05.163.363-.026.66-.47 1.05zM154.947 286.314c.305-.125.7.009 1.045.485-.353.153-.653-.037-1.045-.485zM155.949 287.318c.304-.127.7.002 1.043.479-.353.157-.652-.033-1.043-.48z"/><path fill="#FCD8D9" d="M328.291 311.046c-.073-.22.124-.54.605-.95.078.221-.128.536-.605.95zM332.408 307.302c.072-.157-.255-.194-.35-.204-.094-.01-.044.304-.044.304s.32.057.394-.1z"/><path fill="#FFEDEF" d="M353.316 289.053c-.127-.311.003-.713.48-1.051.157.362-.033.661-.48 1.05zM352.317 290.052c-.126-.302.006-.695.482-1.04.155.347-.035.648-.482 1.04z"/><path fill="#FCDCDF" d="M167.948 298.32c.328-.13.73-.002 1.048.472-.38.16-.677-.026-1.048-.471zM166.968 297.27c.236-.077.571.108.957.584-.252.088-.555-.117-.957-.583zM165.964 296.3c.273-.112.634.036.998.5-.301.133-.605-.053-.998-.5z"/><path fill="#FFEDEF" d="M351.325 291.05c-.132-.302-.008-.696.467-1.04.164.349-.024.648-.467 1.04zM349.324 293.05c-.134-.317-.013-.724.462-1.056.167.372-.02.669-.462 1.056z"/><path fill="#F1898A" d="M350.362 263.87c-13.774 6.946-27.227 14.67-41.446 20.54-8.25 3.406-17.661 4.567-26.674 5.413-11.56 1.085-23.267 1.465-34.867 1.014-16.884-.657-34.232-.404-49.884-7.74-13.473-6.314-26.134-14.362-39.156-22.197 3.856-2.836 7.588-5.374 11.594-7.36 22.709-11.264 46.968-12.667 71.706-11.166 7.621.462 15.277.415 22.919.478 13.801.112 27.689-.81 41.384.43 16.958 1.536 32.056 8.46 44.424 20.588z"/><path fill="#E08788" d="M267.66 186.992c23.473-.768 43.85 8.314 63.858 18.303 18.155 9.063 36.036 18.675 54.296 28.27-.055.557-.368.89-1.34 1.432-2.298-.071-3.94-.33-5.575-.632-32.082-5.92-64.125-12.047-96.968-11.899-33.778.153-67.618-1.076-101.204 3.618-18.614 2.602-37.112 6.036-55.662 9.095-.034-.233-.068-.466-.15-1.05-.047-.351.08-.273.24-.398.375-.42.588-.715.8-1.01 26.091-12.801 51.984-26.032 78.371-38.188 10.293-4.742 21.41-8.666 33.224-7.515 4.524.441 9.182 1.532 13.306 3.382 3.223 1.446 5.624 1.88 8.695.037 2.39-1.434 5.168-2.224 8.11-3.445z"/><path fill="#811A19" d="M125.14 235.5c18.475-3.38 36.973-6.814 55.587-9.416 33.586-4.694 67.426-3.465 101.204-3.618 32.843-.148 64.886 5.978 96.968 11.899 1.635.302 3.277.56 5.313.854-1.602 2.782-3.106 6.183-5.69 8.204-8.976 7.018-18.326 13.558-27.846 20.363-12.682-12.044-27.78-18.968-44.738-20.504-13.695-1.24-27.583-.318-41.384-.43-7.642-.063-15.298-.016-22.919-.478-24.738-1.5-48.997-.098-71.706 11.165-4.006 1.987-7.738 4.525-11.794 7.08-12.185-6.675-24.87-12.711-32.995-25.12z"/><path fill="#D48282" d="M125.677 232.84c.066.176-.147.47-.554.957-.037-.151.12-.494.554-.956z"/></svg>