<svg viewBox="0 0 895 859" xmlns="http://www.w3.org/2000/svg"><path fill="#D38282" d="M681.054 415.865c2.496-.09 3.91.43 2.342 3.342-4.13 7.67-7.745 15.648-12.292 23.057-10.638 17.335-22.8 33.596-37.095 48.102-11.813 11.989-24.1 23.51-36.141 35.275-10.935 10.684-23.146 19.728-36.385 27.25-21.848 12.415-43.836 24.721-69.342 28.1-9.709 1.286-19.47 2.45-29.244 2.889-11.173.502-22.43.79-33.57.011-25.42-1.779-49.606-8.266-71.584-21.594-16.523-10.02-33.18-19.87-49.173-30.691-9.327-6.311-17.774-14.048-26.054-21.748-10.41-9.683-20.662-19.605-30.233-30.108-14.334-15.731-26.824-32.945-37.987-51.084-2.218-3.604-4.125-7.4-6.338-11.402 2.103-1.442 4.167-2.857 6.656-3.937.884 1.203 1.345 2.071 1.624 3.171.608 1.647 1.049 3.547 2.24 4.4 9.168 6.57 18.256 13.295 27.8 19.283 16.735 10.5 33.776 20.508 50.93 30.97 13.713 7.678 27.047 15.375 40.716 22.421 6.258 3.226 13.175 5.17 20.049 7.84 5.112 1.586 9.97 3.026 15.152 4.61 1.233.4 2.141.656 3.394 1.042 9.925 2.333 19.506 4.536 28.716 6.654 1.324-1.95 2.112-3.11 2.91-3.884 2.302 1.968 4.468 4.665 6.908 4.94 9.9 1.116 19.885 1.488 30.235 2.132.922-.026 1.448-.049 2.425-.036 10.512-.417 20.57-1.068 30.637-1.243 4.882-.085 6.457-2.103 6.042-6.598.816.037 1.143.05 1.505.437l.489 5.385c10.408-2.034 20.443-3.994 30.898-5.968.98-.052 1.539-.09 2.436-.242a5828.372 5828.372 0 0125.352-7.585c18.479-5.06 34.108-15.173 50.315-24.058 1.811-.993 3.175-2.802 5.103-4.153 1.413-.3 2.636-.454 3.5-1.093 24.657-18.208 49.278-36.464 74.248-54.756 1.167-.406 1.991-.769 2.816-1.13z"/><path fill="#E08787" d="M680.875 415.55c-.646.677-1.47 1.04-3.027 1.43-2.17-.355-3.587-.846-5.047-1.106-17.676-3.155-35.303-6.644-53.052-9.318-27.291-4.112-54.565-9.332-82.034-11.026-35.507-2.19-71.2-1.683-106.813-1.736-23.964-.036-48.056-.382-71.865 1.836-33.084 3.081-65.984 8.238-98.906 12.905-14.642 2.076-29.145 5.124-43.712 7.731-.46-.868-.92-1.736-1.44-2.976-.059-.371-.012-.318.24-.382a30.53 30.53 0 001.774-.756c8.6-4.172 17.249-8.243 25.787-12.536 29.593-14.877 58.802-30.576 88.843-44.48 18.252-8.448 37.589-14.711 56.765-20.951 16.767-5.457 34.314-6.161 50.167 2.234 8.055 4.265 13.396 2.673 19.979-1.194 10.753-6.318 22.513-4.888 34.036-3.31 28.316 3.875 54.294 14.939 79.717 27.25 21.579 10.451 42.766 21.711 64.13 32.607 13.54 6.906 27.096 13.782 40.613 20.733 1.337.687 2.45 1.81 3.845 3.045z"/><path fill="#D38282" d="M216.682 412.084c-.196.299-.704.53-1.49.802.208-.262.694-.566 1.49-.802z"/><path fill="#F28A8B" d="M485.862 509.092c-.327-.013-.654-.026-1.69-.346-2.732-1.392-4.689-3.24-6.787-3.418-5.957-.504-11.974-.44-17.965-.391-11.71.093-11.71.152-12.157 11.896-.527.024-1.053.047-1.916-.372-.326-1.606-.279-2.77-.31-3.933-.193-7.122-.52-7.573-7.785-7.703-7.642-.137-15.29.117-22.933-.02-3.517-.062-5.774 1-6.598 4.73-2.132-1.778-3.705-4.87-5.6-5.082-7.241-.812-14.588-.875-21.89-.767-1.367.02-2.705 2.112-4.057 3.248-.908-.256-1.816-.512-3.106-1.248-4.501-5.102-10.228-3.61-15.35-4.418-6.619-2.526-13.536-4.47-19.793-7.696-13.67-7.046-27.004-14.743-40.58-22.73 16.324-26.55 36.574-48.01 66.121-59.533 18.848-7.35 37.978-11.043 58.07-8.836 16.281 1.789 32.49 2.249 48.806.303 27.312-3.259 52.864 1.626 76.52 16.354 22.062 13.735 39.825 31.475 53.271 53.635-1.571 1.43-2.935 3.24-4.746 4.233-16.207 8.885-31.836 18.998-50.7 23.992-7.36.223-13.95.31-20.525.664-4.494.241-6.098 2.773-4.78 7.101-.56.038-1.118.076-2.165-.232-.99-4.496-3.44-5.942-7.426-5.544-6.273.627-12.552 1.211-18.84 1.647-2.971.206-4.518 1.696-5.09 4.466z"/><path fill="#811918" d="M600.49 472.845c-13.803-22.24-31.566-39.98-53.627-53.715-23.657-14.728-49.21-19.613-76.521-16.354-16.315 1.946-32.525 1.486-48.806-.303-20.092-2.207-39.222 1.486-58.07 8.836-29.547 11.522-49.797 32.983-66.362 59.286-17.05-9.906-34.091-19.914-50.825-30.414-9.545-5.988-18.633-12.714-27.801-19.282-1.191-.854-1.632-2.754-2.24-4.4 14.748-2.84 29.251-5.888 43.893-7.964 32.922-4.667 65.822-9.824 98.906-12.905 23.81-2.218 47.901-1.872 71.865-1.836 35.614.053 71.306-.453 106.813 1.736 27.47 1.694 54.743 6.914 82.034 11.026 17.75 2.674 35.376 6.163 53.052 9.318 1.46.26 2.878.751 4.704 1.15-24.237 18.264-48.858 36.52-73.514 54.728-.865.639-2.088.793-3.5 1.093z"/><path fill="#FEFAF9" d="M408.13 509.544c.415-3.739 2.672-4.801 6.19-4.738 7.641.136 15.29-.118 22.932.019 7.264.13 7.592.581 7.785 7.703.031 1.163-.016 2.327-.086 3.935-10.013-.201-19.998-.573-29.898-1.69-2.44-.274-4.606-2.97-6.931-4.915-.033-.36.009-.314.009-.314zM447.713 516.87c-.002-11.781-.003-11.84 11.707-11.933 5.991-.048 12.008-.113 17.965.391 2.098.178 4.055 2.026 6.296 3.394 1.126 4.802-.449 6.82-5.33 6.905-10.068.175-20.126.826-30.638 1.243zM485.897 509.466c.536-3.144 2.083-4.634 5.054-4.84 6.288-.436 12.567-1.02 18.84-1.647 3.985-.398 6.436 1.048 7.006 5.558-9.968 2.32-20.003 4.28-30.411 6.314l-.489-5.385z"/><path fill="#FDF4F4" d="M407.72 509.535c.41.009.369-.038.391-.062-.764 1.135-1.552 2.296-2.876 4.245-9.21-2.118-18.79-4.321-28.716-6.654 1.007-1.266 2.345-3.358 3.713-3.378 7.3-.108 14.648-.045 21.888.767 1.896.213 3.47 3.304 5.6 5.082zM519.72 508.64c-1.656-4.213-.052-6.745 4.442-6.986 6.575-.353 13.165-.44 20.133-.576-7.822 2.527-16.03 4.988-24.575 7.563zM357.973 501.413c4.867.662 10.594-.83 14.77 4.128-4.8-1.103-9.658-2.543-14.77-4.128z"/></svg>