<svg viewBox="0 0 509 490" xmlns="http://www.w3.org/2000/svg"><path fill="#E08788" d="M208.749 274.204c-6.577-8.82-13.336-17.511-19.684-26.492-8.194-11.593-8.362-11.944.309-22.682 11.645-14.422 24.418-27.832 40.486-37.473 7.176-4.305 14.792-3.653 22.359-.212 1.748.795 4.624 1.176 6.046.274 7.583-4.81 15.308-3.896 22.041.46 17.658 11.424 32.422 26.071 44.89 43.039 4.33 5.893 1.017 9.316-3.75 14.584.956-2.962 2.283-5.715 3.286-7.797-6.286 0-12.994 0-20.07-.011-3.514-1.777-6.862-3.264-9.753-5.376-3.88-2.838-7.167-6.512-11.128-9.213-19.42-13.244-49.517-10.695-66.621 5.417-3.864 3.64-7.532 7.657-13.914 7.659-6.477.218-12.487.534-18.927.873 5.83 8.431 11.465 16.408 16.902 24.517 2.696 4.02 5.03 8.281 7.528 12.433z"/><path fill="#D38282" d="M305.03 237.905h19.702c-1.003 2.082-2.33 4.835-3.6 7.959.058.37.006.38-.328.428-.706.966-1.08 1.884-1.453 2.802 0 0-.038.185-.473.178-5.534 6.784-10.644 13.569-15.699 20.393-.218.295.062.959.11 1.451 0 0 .002.153-.427.14-1.579 1.339-2.73 2.692-3.88 4.046-2.407 2.512-4.814 5.024-7.711 7.826-.735.506-.944.752-1.12 1.027-.053.346-.224.619-1.053.951-.96.765-1.381 1.395-1.802 2.026 0 0-.022.176-.475.097-2.268.654-4.213 1.168-5.874 2.158-8.547 5.099-17.988 7.699-27.682 7.101-12.73-.784-24.165-5.757-33.847-14.4-1.484-1.325-3.665-1.87-5.523-2.774 0 0-.17-.013-.156-.448-1.31-1.506-2.633-2.576-3.956-3.646-.276-.183-.551-.366-.93-.782-2.602-4.386-4.936-8.647-7.632-12.667-5.437-8.109-11.072-16.086-16.902-24.517 6.44-.34 12.45-.655 18.927-.586 8.644 3.898 15.795 8.789 20.995 16.139 13.373 18.904 44.495 19.23 60.596 3.194 6.395-6.369 13.443-12.083 20.193-18.096z"/><path fill="#E08788" d="M214.03 279.608c1.723.61 3.904 1.155 5.388 2.48 9.682 8.643 21.116 13.616 33.847 14.4 9.694.598 19.135-2.002 27.682-7.1 1.66-.991 3.606-1.505 5.786-2.146-7.37 7.01-16.825 9.941-26.804 10.8-18.138 1.561-33.297-5.054-45.898-18.434zM303.587 270.97c-.346-.346-.626-1.01-.408-1.305 5.055-6.824 10.165-13.609 15.606-20.374-4.738 7.195-9.819 14.365-15.198 21.68zM299.334 275.22c.799-1.272 1.95-2.625 3.452-3.958-.798 1.306-1.95 2.59-3.452 3.958zM209.82 275.559c1.286.73 2.609 1.801 3.908 3.222-1.306-.727-2.588-1.805-3.907-3.222zM319.628 248.974c.096-.798.47-1.716 1.177-2.658-.078.83-.489 1.685-1.177 2.658zM287.63 287.12c.087-.619.508-1.25 1.238-1.924-.095.608-.498 1.26-1.237 1.924zM290.386 284.056c-.06-.176.15-.422.585-.787.01.13-.17.409-.585.787z"/><path fill="#801918" d="M304.661 237.894c-6.381 6.024-13.429 11.738-19.824 18.107-16.101 16.035-47.223 15.71-60.596-3.194-5.2-7.35-12.351-12.241-20.528-16.04 5.915-.388 9.583-4.405 13.447-8.045 17.104-16.112 47.201-18.661 66.621-5.417 3.96 2.701 7.247 6.375 11.128 9.213 2.89 2.112 6.239 3.599 9.752 5.376z"/></svg>