<svg viewBox="0 0 904 850" xmlns="http://www.w3.org/2000/svg"><path fill="#FEFBFB" d="M1 49.469c.334.506.96 1.48.96 2.456.047 63.588.045 127.176.038 190.764 0 .66-.116 1.32-.588 2.146C1 179.979 1 114.958 1 49.469z"/><path fill="#D38282" d="M392 475.859c-9.333-1.453-18.697-2.73-27.989-4.403-10.982-1.978-22.013-3.866-32.81-6.622-7.371-1.88-14.614-4.682-21.508-7.934-26.545-12.523-52.934-25.377-79.359-38.154-2.91-1.408-5.672-3.12-8.508-4.684-3.118-1.718-1.446-2.807.98-3.7.782.294 1.083.426 1.385.558 0 0 .38-.012.657.365 3.559.986 6.817 1.795 10.125 2.17 13.93 1.585 27.849 3.815 41.825 4.317 12.843.461 25.755-.988 38.574-1.236 1.497 1.699 2.866 3.781 4.652 4.24 5.901 1.515 11.922 2.672 17.96 3.52 4.308.605 8.718.492 13.44.744 1.75.348 3.143.65 4.953.939 4.641.789 8.866 1.591 13.36 2.431 1.792.052 3.313.067 5.367-.033 1.237.027 1.942.167 2.687.271.04-.037.452.042.872-.137 2.483.12 4.545.42 6.96.857 9.05.548 17.747.958 26.885 1.195 10.484.088 20.526.349 30.883.861 4.667.126 9.019 0 13.802-.219 4.872.127 9.315.571 13.751.514 8.24-.107 16.476-.507 25.103-.917 5.578-.363 10.767-.593 16.397-.82 8.144-.695 15.858-1.294 23.545-2.143 2.922-.322 5.78-1.217 9.066-1.86 1.445-.025 2.49-.041 4.017-.069 11.35-1.733 22.238-3.353 33.064-5.315 1.284-.233 2.227-2.346 3.662-3.66 1.973-.53 3.643-1.468 5.243-1.361 10.208.68 20.432 2.548 30.589 2.2 15.15-.52 30.265-2.393 45.353-4.067 3.093-.343 6.003-2.342 8.997-3.578l3.865 1.41c-.892.983-1.595 2.371-2.704 2.89-17.998 8.409-36.06 16.683-54.08 25.042-10.719 4.971-21.186 10.556-32.14 14.93-13.466 5.376-27.23 10.06-41.042 14.493-7.955 2.553-16.215 4.245-24.425 5.883-4.457.889-9.1.853-14.38.909-1.536-.45-2.347-.684-3.16-.685-37.39-.016-74.78-.02-112.17.027-1.249.002-2.497.542-3.745.83z"/><path fill="#E08888" d="M675.569 410.061c-2.583 1.304-5.493 3.303-8.586 3.646-15.088 1.674-30.203 3.547-45.353 4.067-10.157.348-20.381-1.52-30.589-2.2-1.6-.107-3.27.832-5.406 1.006-1.836-1.071-3.084-2.268-4.527-2.59-17.71-3.955-35.537-7.032-53.78-7.013-44.974.047-89.95.34-134.92-.107-26.141-.26-51.766 2.471-76.973 9.307-12.882.607-25.794 2.056-38.637 1.595-13.976-.502-27.894-2.732-41.825-4.316-3.308-.376-6.566-1.185-9.937-2.196 3.83-1.99 7.65-3.912 11.684-5.113 25.797-7.681 51.677-15.084 77.451-22.838 10.3-3.098 20.469-6.667 30.574-10.36 10.86-3.968 21.324-9.25 32.416-12.306 16.067-4.428 32.49-7.426 49.187-2.066 7.662 2.46 15.442 4.96 23.36 6.04 3.939.537 8.354-1.95 12.477-3.306 13.735-4.514 27.934-6.946 42.171-5.017 10.12 1.371 20.015 5.022 29.761 8.377 12.637 4.35 24.885 9.842 37.553 14.087 23.03 7.716 46.192 15.06 69.411 22.19 11.226 3.447 22.71 6.056 34.488 9.113z"/><path fill="#C39090" d="M392.463 475.938c.784-.368 2.032-.908 3.28-.91 37.39-.047 74.781-.043 112.172-.027.812 0 1.623.235 2.728.647-39.043.315-78.38.342-118.18.29z"/><path fill="#EEE7E3" d="M458 478.04l-68.865-.001.003-.804h87.074l.013.805H458zM493 353.958c5.102-.003 9.707-.003 14.312-.003v.713h-29.824l-.022-.707c5.011 0 10.023 0 15.533-.003z"/><path fill="#E08888" d="M224.093 410.659c-.204.129-.505-.003-.936-.35.193-.114.516-.013.936.35z"/><path fill="#FEFBFB" d="M315.372 416.536c25.27-7.195 50.895-9.927 77.037-9.666 44.969.448 89.945.154 134.919.107 18.243-.019 36.07 3.058 53.78 7.013 1.443.322 2.691 1.519 4.193 2.664-.938 1.595-1.881 3.708-3.165 3.94a537.301 537.301 0 01-33.025 4.918c-1.17-5.057-1.897-9.727-2.624-14.397l-.503.094-1.327 14.78c-2.888.633-5.746 1.528-8.668 1.85a331.664 331.664 0 01-23.732 1.774c-1.782-.46-2.96-.74-4.086-.603-4.53.556-6.294-1.542-6.445-5.912-.13-3.742-.77-7.465-1.186-11.197-1.203 3.933-1.084 7.994-1.76 11.92-.427 2.476-2.04 4.75-3.122 7.113-8.238.278-16.474.678-24.714.785-4.436.057-8.88-.387-14.152-.553-2.15-1.222-4.183-2.283-4.64-3.815-1-3.338-1.196-6.916-1.72-10.396-1.466 3.416-2.05 6.633-2.243 9.873-.202 3.415-1.974 4.584-5.113 4.344-10.042-.26-20.084-.52-30.903-.747-1.768-.047-2.758-.142-3.75-.208-6.804-.45-6.906-.602-7.468-7.655-.256-3.218-.731-6.42-1.107-9.629-.526 1.143-.678 2.208-.773 3.277-1.12 12.618-1.118 12.618-13.805 13.02-2.062-.3-4.124-.599-6.68-.773-.492.125-.839.228-.839.228-.705-.14-1.41-.281-3.014-.347-2.356.06-3.813.048-5.27.035-4.224-.803-8.449-1.605-13.218-2.78-1.292-4.767-2.038-9.163-2.975-14.68l-2.207 14.082c-4.365-.207-8.775-.094-13.084-.7-6.037-.847-12.058-2.004-17.96-3.52-1.785-.458-3.154-2.54-4.65-4.239z"/><path fill="#7F3539" d="M385.622 429.368c12.335-.54 12.333-.54 13.453-13.158.095-1.07.247-2.134.773-3.277.376 3.21.851 6.41 1.107 9.63.562 7.052.664 7.205 7.467 7.654.993.066 1.983.161 3.31.38a936.404 936.404 0 01-26.11-1.23zM496.047 430.802c.692-2.232 2.306-4.505 2.733-6.982.676-3.925.557-7.986 1.76-11.919.415 3.732 1.056 7.455 1.186 11.197.151 4.37 1.914 6.468 6.445 5.912 1.126-.138 2.304.142 3.645.6-5.002.599-10.191.829-15.77 1.192zM443.391 431.424c2.824-.012 4.596-1.181 4.798-4.596.192-3.24.777-6.457 2.243-9.873.524 3.48.72 7.058 1.72 10.396.457 1.532 2.49 2.593 4.208 3.906-3.95.166-8.302.293-12.969.167zM545.055 425.98c.044-4.918.487-9.844.929-14.771l.503-.094c.727 4.67 1.454 9.34 2.143 14.409-1.085.414-2.13.43-3.575.456zM351.423 425.04c.325-4.388 1.006-8.732 1.851-14.127.937 5.517 1.683 9.913 2.558 14.694-1.265.083-2.659-.22-4.409-.567zM369.737 428.41a92.215 92.215 0 014.468.041c-1.155.026-2.676.011-4.468-.04zM377.791 428.648c-.04.037.307-.066.38-.012.072.054-.34-.025-.38.012z"/></svg>